<?xml version="1.0" encoding="UTF-8"?>
<!-- Braincup app icon. Mascot artwork matches the favicon in
     composeApp/src/wasmJsMain/resources/index.html, framed on the same 1024 grid
     and margins as media/ic_launcher-web.png and the Play Store icon. -->
<svg xmlns="http://www.w3.org/2000/svg" width="1024" height="1024" viewBox="0 0 1024 1024">
  <rect width="1024" height="1024" fill="#FFFFFF"/>
  <g transform="translate(101.062 120.500) scale(1.156342)">
    <path fill="#FF9678" d="M407 26c-4 1-17 3-29 5-40 6-52 9-52 12 0 2 3 4 12 5 96 19 152 86 156 186 0 22-2 21 28 16 19-2 23-2 28 2 16 15 39 12 56-9 3-3 3-3 19-3 32-1 33-2 33-26 0-45-25-79-61-82-12 0-15-2-12-6 3-2 20-4 27-3 12 2 11-3-6-18-27-26-41-33-68-34-14-1-14-1-19-4-9-7-31-11-52-11-12 0-11-3 2-6 9-2 9-2 10-4 1-4-14-18-19-16-1 0-5-1-10-2-9-3-33-4-43-2m152 116c14 20 21 42 16 47-4 4-8 0-8-10 0-12-5-26-13-39-7-11-2-9 5 2M237 46c-14 1-20 2-26 5-6 2-11 2-22 3-64 4-83 35-26 43 3 0 5-1 10-3 13-6 37-11 40-8 2 4-4 10-17 15-46 21-53 30-35 45 25 20 35 43 30 63-12 47 12 80 59 82 14 0 15 0 17 3 3 3 3 3 26 0 17-2 19-3 21-5 1-1 7-5 12-7 4-3 11-6 14-8 5-2 5-2 13 1 17 7 26 5 33-10 2-4 2-4 10-3 13 1 44 0 53-3s3-59-10-93c-29-74-89-110-144-86-8 4-11 2-9-4 1-6 16-12 28-12 7 0 7-5 1-9-14-7-56-12-78-9m36 48c1 1 2 4 2 9 2 21 12 40 28 51 9 6 7 20-2 15-3-2-6-3-8-4-3-1-5-3-7-5-1-2-5-6-7-9-5-5-5-5-5-8 3-12 2-18-4-33-4-9-6-15-5-17 2-2 6-1 8 1m176 265c-4 0-6 1-6 5-5 21-10 43-12 47-2 3-3 7-3 9 0 7-7 15-18 20-7 3-48 9-74 12-7 1-20 2-29 3-32 4-49 3-63-4-12-5-11-8-11 45 0 87 1 92 17 108 18 18 31 18 142 5 28-3 63-7 78-9 37-4 121-15 129-16 23-5 52-25 61-43 2-3 4-7 5-8 2-2 2-3 3-69 1-67 1-71-3-66-7 10-25 17-55 20-7 1-24 3-37 5-74 9-84 5-101-39-11-29-10-27-23-25m45 136c4 5-2 13-9 15-13 4-53 8-58 6s-8-10-4-13c1-1 32-5 64-8 2 0 4-1 5-1 0 0 1 1 2 1"/>
    <path fill="#F87B57" d="M289 68c-4 2-6 5-6 11 0 7 3 8 14 3 8-3 8-4 3-10-6-6-7-6-11-4m-156 2c-2 0-5 1-6 1-15 4-49 46-49 62 0 10 5 21 10 23 1 0 5 2 9 5 3 3 7 6 9 6 1 2 2 3 2 14 2 26 8 37 23 37 8 0 9-4 1-29-6-18-2-40 10-59 5-8 6-8 10-4 2 3 3 3 14-6 10-9 10-9 7-13-2-2-4-4-4-6-2-4-6-7-16-9-20-4-25-10-18-19 4-5 4-6-2-3m14 70c-8 12-8 11-7 28 0 33 11 47 38 49 14 0 14 1 16-11 5-19-8-43-32-63-12-10-11-9-15-3m-87 28c-30 10-47 46-33 74 4 6 6 8 11 9s20 6 23 8c2 1 1 2-11 7-30 10-41 51-24 84 4 7 4 7 2 16-4 18-4 19 1 30 9 22 18 32 30 31 6-1 7 1 2 2-3 0-8 2-12 5-4 2-9 4-10 5-2 1-5 2-6 3-7 1-14 35-13 54 1 7 13 31 24 46 15 21 39 30 34 12-6-18-5-28 3-28 5 0 6 2 8 11 4 15 4 15 14 25s23 20 33 23c3 2 8 4 12 5 15 8 16 5 11-21-3-9 13 0 18 10 7 17 7 17 35 36 14 9 29 18 34 21 6 3 10 5 10 7 2 4 10 5 34 4 18-1 26-2 73-7 14-2 33-4 42-5 8 0 17-2 19-2 2-1 8-1 12-2 3 0 14-1 24-3 10-1 24-3 32-3 7-1 17-2 22-3 25-3 44-5 48-5 5 0 7 0 17-3 3-1 5-2 6-2 3 2 23-5 35-13 26-16 42-36 48-60 3-13-3-13-10 0-9 18-38 38-61 43-8 1-92 12-129 16-15 2-50 6-78 9-110 13-120 13-138-5-16-16-17-21-17-106 0-49-1-46 9-42 12 6 34 7 65 3 9-1 22-2 29-3 26-3 67-9 74-12 12-5 18-13 18-22 0-5-1-6-4-3-9 6-16 8-58 14-16 1-32 3-36 4-64 9-83 6-92-12-3-5-5-5-8-2-4 5-6 2-14-22-11-30-5-27-70-43-18-4-36-9-41-11-9-2-9-2-16 0-24 8-40-3-36-24 6-23 21-43 34-46 20-4 28-3 65 7 72 19 77 20 100 17 17-2 18-3 15-7-2-2-2-3-16-3-39-2-62-22-62-55 0-6 0-6-25-6-26-1-29 0-32 7-6 13-21-4-32-35-8-26-24-37-42-32m576 69c-4 0-11 1-17 1-13 0-14 0-18 6-4 8 4 16 12 10 2-1 3-1 8 0 7 0 20-2 25-4 3-2 4-4 4-8 0-6-1-6-14-5m-98 8c0 1-8 2-18 3-21 3-26 7-15 12 3 1 6 3 8 4 4 3 14 3 17 0 2 0 4-1 5-1 6 0 12-7 12-14 0-2-8-5-9-4m120 150c-3 0-17 2-30 4-27 4-33 4-40 6-10 2-17 3-20 2-3 0-10 1-16 1-15 2-24 2-34 0-7-1-8-1-11 0-5 3-6 2-6 0 0-3-2-6-5-6 0 0-1-1-1-2-1-2-5-3-8-3-18 5 2 29 26 32 13 2 66-3 67-6 1-5 4-6 8-3 14 7 70-6 78-18 5-9 4-10-8-7"/>
    <path fill="#ED7354" d="M390 19c-6 1-15 2-19 3-5 1-15 3-23 4-17 3-28 6-44 13-12 5-13 5-25 3-27-5-55-5-87 0-24 4-26 5-26 10 0 2-1 3-2 4-7 3-3 4 11 2 5-1 13-2 18-2 7 0 11-1 18-3 25-8 66-8 92 1 15 4 16 8 3 9-13 2-15 4-9 10 5 6 6 6 14 4 72-14 140 67 140 166 0 15 2 14-36 18-6 0-17-2-24-4-3-1-4-1-7 5-7 15-14 18-29 11-8-4-12-4-20 1-3 2-9 5-13 7-8 4-13 8-11 10 0 1 39-3 88-9 11-2 28-4 39-5 21-2 74-9 78-10s-2-7-10-9c-1-1-3-2-3-4 0-1-2-2-4-3-2-2-2-2-3-17-3-81-38-139-102-170-18-8-29-12-57-18-14-4-1-7 64-17 21-3 34-3 48 1 13 4 13 4 13 1-1-8-42-15-72-12m80 16c-1 2 0 3 2 5 4 5 4 6-1 7-30 8-32 10-7 11 29 1 43 4 53 11 5 3 5 3 19 4 26 1 40 8 67 32 16 15 17 17 8 16-3-1-14 0-25 2-4 0-5 3-4 7 1 3 2 4 13 4 24 2 46 20 55 47 8 20 9 54 2 54-2 0-4 3-4 6 0 2-1 4-3 6-5 5-3 5 10 4 18-3 16 0 15-26-2-39-8-56-30-81-5-5-7-9-9-15-13-31-56-67-82-67-3 0-6-1-12-5-14-9-23-13-40-14-10-1-11-1-17-4-7-5-9-5-10-4M197 84c-23 5-36 11-31 16 0 2 1 3 1 4 0 10 12 9 35-3 23-11 19-21-5-17m66 8c-2 2 0 8 5 21 7 16 7 24 2 32-1 2-1 2 0 3 4 3 9 8 13 13 3 4 5 5 9 6 2 1 7 4 10 6 7 5 7 5 8-8 1-9 0-10-7-15-14-10-24-28-26-49-1-10-9-16-14-9m-116 27c-16 16-25 53-17 72 6 15 6 24 1 25-8 1-8 10 0 19 3 3 2 3 7-1s8-5 30-4c24 0 23 1 23-9 0-6 0-6-12-6-15-1-16-2-25-10-14-14-18-42-7-61 10-16 10-16 7-20-1-1-2-3-2-4 0-3-3-3-5-1m399 13s2 4 5 9c10 15 14 28 14 40 0 8 0 8 2 10 8 6 13 2 12-9-2-23-28-63-33-50M86 155c-1 4 3 10 14 16 8 5 9 5 10 1 2-4 1-5-2-7-2-1-6-3-9-6-7-5-12-7-13-4m459 94c-1 1-1 3-1 3 0 3-6 8-10 8-3 0-7 4-5 5 1 1 11 0 26-2 11-2 12-4 3-8-3-2-6-4-7-6-2-2-5-3-6 0m51 2c-1 1-4 3-5 4-5 2-4 3 6 3 11-1 11-2 7-6-4-5-5-5-8-1m-559-1c-1 4 11 19 13 18 1-1 6-2 11-4 11-3 11-4-6-10-13-5-17-6-18-4m67 82c-1 1-2 3-3 5-1 1-3 3-3 4-3 4 5 7 51 18 60 15 57 13 67 42 8 25 11 29 18 25 1-1 2-2 3-2 5 0-15-59-22-65-5-3-6-4-52-16-53-14-56-14-59-11m345 10c-6 4-7 22-2 19 3-2 11-1 13 1 1 0 4 8 7 17 10 25 11 27 17 23 1-1 4-2 6-3 4 0 4-1 0-9-2-3-7-15-11-26-4-12-9-22-9-23-2-2-18-1-21 1M23 385c-2 3-3 18-3 31 1 22 4 24 22 13 8-5 8-6 2-12-5-5-9-12-14-25-3-8-5-9-7-7m559 31c-7 4-4 8 6 7 7 0 7-1 3-5-5-4-5-4-9-2m-524 8c-4 3-2 9 3 8 1 0 4 0 7 1 11 2 11-1 2-7-7-5-9-5-12-2m-37 83c-6 15 18 61 37 72 29 17 47 18 34 2-2-3-6-9-8-14-4-8-5-9-9-7-8 5-25-11-41-39-9-17-11-19-13-14m76 51c0 11 17 34 33 45 15 10 42 20 46 16s-9-28-16-28c-3 0-7-1-10-2-4-2-9-4-12-6-9-3-21-11-31-20-9-9-10-9-10-5m88 36c0 2 9 17 14 23 8 11 24 21 41 26 20 7 26 0 8-9-9-5-58-37-60-39s-3-2-3-1m380 21c-3 0-5 2-5 5s-1 4-4 4c-3 1-4 4-2 4 8 0 19-3 17-5 0-1-1-3-1-5-1-4-1-4-5-3m-136 15c-22 3-24 5-15 11 8 7 21 5 21-4 0-2 1-4 2-5 2-1 1-3-1-3-1 0-4 1-7 1"/>
    <path fill="#FEFEFF" d="M669 243c-2 4 8 3-89 15-26 3-64 7-86 10s-48 6-58 7c-11 1-30 3-43 5s-35 4-50 6-31 4-37 5c-7 0-17 2-24 2-8 1-21 3-29 4-21 3-26 2-97-17-35-10-37-10-52-9-17 1-24 3-22 6 1 0 38 10 99 25 41 10 40 10 40 18 1 9 23 84 31 106 8 20 7 20 119 6 65-8 60-3 75-76 3-12 4-14 14-14 5 0 7 0 8 1 2 3 3 2 5-1 4-9 10 0 26 40 10 27 10 28 23 29 14 2 139-12 149-17 12-6 12-6 27-82 11-58 10-61-16-69-11-4-11-4-13 0m11 23c1 2 1 3-9 55-8 44-11 53-15 54-1 1-24 4-51 7-28 3-53 7-56 7-12 2-18 1-19-1-1-1-8-19-16-40-8-20-17-41-19-47-6-15-15-12 69-22 122-15 114-15 116-13m-245 51c-6 23-19 66-23 78-3 10-3 11-28 14-11 1-36 4-56 7-51 6-48 6-50 3-3-4-32-94-32-98 0-3-1-3 30-7 15-2 29-4 30-4 1-1 4-1 5-1 1-1 6-1 11-1 8-1 40-4 62-7 10-2 42-6 50-6 6-1 6 0 1 22"/>
    <path fill="#4A403A" d="M634 268c-42 5-40 5-42 9-1 2-9 22-19 44-32 76-30 70-21 69 6 0 104-12 106-13 4-1 11-28 24-99 3-17 6-17-48-10m-219 26c-72 9-101 13-82 14 5 0 6-2-21 60-19 45-22 52-19 53 0 1 17-1 37-4 20-2 45-5 56-6 25-3 25-4 28-14 7-20 28-97 28-102 1-3-2-3-27-1"/>
    <path fill="#DC5A38" d="M162 49c-52 11-98 46-111 85-2 7-3 8-11 15-31 26-39 60-27 105 3 11 3 11 1 19-10 28-10 51-1 75 3 8 3 8 0 17-5 22-5 19-6 67 0 64 1 97 4 106 14 39 42 59 86 63 11 1 13 2 19 6 8 8 36 18 57 21 12 2 11 2 12 14 1 10 1 10 1 4 0-13 2-14 12-8 14 10 30 16 49 20 12 2 53 2 59 0s64-9 76-9c8 0 34-3 35-4 2-1 1-3-3-8-5-4-5-4-40 0-81 9-116 11-134 4-29-11-41-24-58-58-7-13-7-14-11-16l-8-4c-12-9-8 18 7 43 2 4 4 8 4 9 0 6-30-5-46-17-13-10-29-32-29-40 0-1-1-5-3-8s-3-6-3-7c0-12-9-22-17-19-9 3 0 40 14 59 6 8 2 9-14 2-16-6-24-12-30-20-14-18-27-52-23-59 1 0 1-5 0-9-3-21 5-54 13-54 1 0 6-2 10-4 3-3 8-6 9-7 5-2 5-5 1-7-5-3-9-3-14 1-12 8-16 8-18 3-3-7-2-36 1-43 6-11 7-30 3-38-14-26-6-67 15-78 6-3 7-3 4-7-7-10-8-13-12-15-16-13-14-46 5-65 23-23 50-16 60 17 9 30 23 47 33 39 3-2 3-3-1-7-3-4-5-9-5-12 0-2-2-4-5-7-8-6-12-18-12-32 0-7 0-7-11-14-7-5-9-6-11-11-1-2-2-5-3-5-1-1-5-14-5-18 0-14 35-57 49-60 1 0 6-2 11-4 8-5 23-10 28-11 3-1 3-1 3-6-1-5-1-5-9-3m493 513c-1 1-3 5-5 8-14 19-50 40-73 43-8 0-10 2-9 6 1 6 2 6 9 6 33-3 64-25 79-55 4-8 4-13-1-8m-102 54c-2 0-18 2-36 4-76 8-83 9-84 16-1 2-1 4-1 5 0 2 0 2 3 2 5 0 59-6 64-7 2-1 8-2 12-2 3-1 12-3 20-3 28-4 30-4 31-10s0-6-9-5"/>
    <path fill="#C2AEFD" d="M78 276c-14 9-31 51-25 62 10 16 43 15 51-1 3-6 3-6 59 9 44 11 45 12 50 15 4 4 6 7 15 34 11 36 14 40 25 44 8 2 10 0 6-5-5-7-34-102-36-116 0-8 0-8-30-15-14-4-44-12-67-17-41-11-45-12-48-10m394 62c-3 3-2 8 5 28 14 35 19 42 32 42 4 0 4 0 0-6-1-3-5-12-8-20-16-43-22-51-29-44"/>
    <path fill="#2B2622" d="M574 276c-5 0-16 2-25 2-16 2-51 7-57 8-5 1-5 0 16 54 23 59 21 54 31 52 9-2 8-1 16-21 3-8 12-28 19-45 19-44 21-49 21-51-1-1-9-1-21 1m-242 30c-2 0-13 1-25 3-27 3-60 7-62 8-4 1-2 6 14 55 20 58 17 51 25 51 9-1 9-1 14-13 2-5 9-23 16-40 30-70 29-66 18-64"/>
    <path fill="#A82D0C" d="M485 493c-62 6-66 7-66 14 0 12 4 14 38 10 35-4 40-6 40-19 0-6-1-6-12-5"/>
  </g>
</svg>
