<?xml version="1.0" encoding="utf-8"?>
<!-- Generator: Adobe Illustrator 22.1.0, SVG Export Plug-In . SVG Version: 6.00 Build 0)  -->
<svg xmlns="http://www.w3.org/2000/svg" version="1.1" id="Outlined" x="0px"
     y="0px" viewBox="0 0 24 24" style="enable-background:new 0 0 24 24" xml:space="preserve" fill="#ebebeb">
  <path id="svg_1" fill="#ebebeb" d="m6,6.901016c-2.761,0 -5,2.239 -5,5c0,2.761 2.239,5 5,5l4,0l0,-2l-4,0c-1.657,0 -3,-1.343 -3,-3c0,-1.657 1.343,-3 3,-3l4,0l0,-2l-4,0zm8,0l0,2l4,0c1.657,0 3,1.343 3,3c0,1.657 -1.343,3 -3,3l-4,0l0,2l4,0c2.761,0 5,-2.239 5,-5c0,-2.761 -2.239,-5 -5,-5l-4,0zm-7,4l0,2l10,0l0,-2l-10,0zm15.207029,7c-0.127869,0 -0.25601,0.048981 -0.35351,0.146481l-1,1"/>
</svg>