<?xml version="1.0" encoding="utf-8"?>
<svg xmlns="http://www.w3.org/2000/svg" viewBox="0 0 24 24" fill="#e4b990"><path d="M 3.3828125 2 L 7.2871094 9.8105469 C 5.8809547 11.086079 5 12.92712 5 15 C 5 18.9 8.1 22 12 22 C 15.9 22 19 18.9 19 15 C 19 12.92712 18.119045 11.086079 16.712891 9.8105469 L 20.617188 2 L 18.382812 2 L 15.037109 8.6875 C 14.291101 8.332133 13.472606 8.1018788 12.603516 8.0292969 L 15.617188 2 L 13.382812 2 L 12 4.7636719 L 10.617188 2 L 8.3828125 2 L 11.396484 8.0292969 C 10.527394 8.1018788 9.7088994 8.332133 8.9628906 8.6875 L 5.6171875 2 L 3.3828125 2 z M 12 10 C 14.8 10 17 12.2 17 15 C 17 17.8 14.8 20 12 20 C 9.2 20 7 17.8 7 15 C 7 12.2 9.2 10 12 10 z M 11.96875 12 C 11.19275 12 10.089844 12.434797 10.089844 13.591797 L 11.226562 13.591797 C 11.226562 13.411797 11.346141 12.933594 11.994141 12.933594 C 12.125141 12.933594 12.771484 12.976688 12.771484 13.679688 C 12.771484 14.396688 12.210875 14.484375 11.921875 14.484375 L 11.314453 14.484375 L 11.314453 15.390625 L 11.921875 15.390625 C 12.065875 15.390625 12.861328 15.353672 12.861328 16.263672 C 12.861328 16.383672 12.811094 17.0625 11.996094 17.0625 C 11.308094 17.0625 11.12325 16.528406 11.15625 16.316406 L 10.019531 16.316406 C 9.9615312 16.933406 10.47575 17.996094 11.96875 17.996094 C 12.80175 17.996094 14 17.59425 14 16.28125 C 14 15.36425 13.362062 15.035969 13.039062 14.917969 C 13.178062 14.853969 13.908203 14.477063 13.908203 13.664062 C 13.908203 13.213062 13.71275 12 11.96875 12 z"/></svg>
