<?xml version="1.0" encoding="utf-8"?>
<!-- Generator: Adobe Illustrator 20.1.0, SVG Export Plug-In . SVG Version: 6.00 Build 0)  -->
<svg version="1.1" id="Capa_1" xmlns="http://www.w3.org/2000/svg" xmlns:xlink="http://www.w3.org/1999/xlink" x="0px" y="0px" width="800px" height="600px" viewBox="0 0 800 600" style="enable-background:new 0 0 800 600;" xml:space="preserve">

<g>
	<path d="M373.9-1010.6c-10.4-1.9-20.5-4.9-30.2-9.2c-2.4-1.1-4.8-2.2-7.1-3.4c-1.8-0.9-3.8-2.6-5.8-3
		c-2.9-0.6-4,0.9-5,3.4s-3.5,7-2.7,9.8c1,3.1,6.2,4.1,8.6,5c10,3.9,20,7.8,30.1,11.7c0.3,0.2,0.7,0.3,1,0.4c0.3,0.1,0.6,0.2,1,0.4
		c0.6,0.3,1.2,0.2,1.7,0c1.1,0,2.2-0.3,3.3-0.8c4.6-2.1,3.4-6.7,6.2-10C376.1-1007.7,375.9-1010.2,373.9-1010.6z" style="fill:#4A3B2A;"/>
	<path d="M549.6-825.6c-1.1-17.3-3.5-34.7-8.2-51.4s-11.7-32.8-22-46.8c-10.8-14.7-24.7-26.4-39.4-37
		c-18.7-13.3-38.1-25.7-57.3-38.2c-16.9-11-35.6-25.7-56.9-22.3c-2,0.3-2.3,2.9-1.1,4.2c1.9,2,3.8,4,5.7,6.1
		c-3.2-0.8-6.6-1.1-10-0.9c-1.9,0.1-3.1,2.1-2.2,3.8c1.6,2.8,3.5,5.5,5.4,8.1c-3.8-0.5-7.7-0.1-11.4,1.5c-1.3,0.6-2.6,2.2-1.5,3.7
		c3.9,5.4,8.2,10.4,12.9,15c-5.5-0.5-11-1-16.5-1.5c-2.2-0.2-3.2,2.8-1.8,4.3c10.5,10.3,24,15.8,37.5,20.7
		c14.5,5.3,28.5,10.7,41.1,19.7c24.8,17.8,42.3,44.6,53.4,72.8c6.1,15.6,11.9,32.8,11.3,49.7c-0.5,14.6-6.7,28.5-15.8,39.8
		c-20.6,25.2-54,36-85.7,31.2c-9.3-1.4-18.6-4.1-27.1-8.1c-3.9-1.8-9.6-4-11.8-7.9c-2.5-4.4-1.2-11.8-1.2-16.6
		c0.1-20.8,0.2-41.7,0.3-62.5c12.3,1.1,15.5-20,11.6-28.7c-2.4-5.5-7.3-9.3-13.4-9.2c-3,0-5.9,1-8.1,2.8c-3.6-20.6-8.1-41-13.6-61.2
		c8.5-7-9.3-15.3-13.9-17.5c-13-6.3-25.4-5-39.3-2.9c-25.6,4-53.6,6-74.8,22.5c-0.2,0.2-0.3,0.3-0.5,0.5c-1.3-0.5-2.8-0.1-3.1,1.6
		c-4.1,23.5-8.1,46.9-12.2,70.4c-2.4-2.8-5.8-4.6-9.7-5.2c-7.8-1.2-14.7,3.8-17.8,10.8s-2.7,16.1,2.3,22.2c3.6,4.4,9.5,6.3,14.5,4.6
		c-3,28.5-1.2,56.7,4.1,84.9c1,5.3,1.4,9.3-2.3,13.8c-1.7,2.1-3.7,4.1-5.4,6.3c-4.3,5.3-8,10.9-11.2,16.9
		c-5.7,10.8-9.6,22.7-11.4,34.8c-0.9,6.1-1.4,12.5-1,18.7c0.3,4.8,1.6,8.1,6.1,10.1c12.1,5.5,27.5,7,40.6,7.8
		c28.5,1.9,57.1-2.7,85-8c34.9-6.7,69.7-13.9,104.6-20.8c0.8-0.2,1.6-1,1.7-1.7c0.2-1,0.4-2,0.6-2.9c37.6-1.1,76.6-4.4,110.2-22.7
		c30.5-16.6,52.1-43.7,57.4-78.4C551.3-787.7,550.9-806.8,549.6-825.6z" style="fill:#F4BFAB;"/>
	<path d="M344.2-957.8c-9.6-10.8-20.7-20.9-33.9-27.3c-13.4-6.5-28.7-9-43.2-5.2c-0.6-8.9-3.4-17.4-8.4-24.9
		c-0.9-1.4-3.5-1.8-4.3,0c-2.8,6.4-4.7,13-5.4,19.8c-4.2-7.3-10.2-13.4-17.5-18.1c-1.7-1-3.7,0.3-3.8,2.2
		c-0.3,10.9,2.1,21.4,6.9,31.1c-25.7,0.9-48,17-62,38.1c-3.8,5.7-7,11.8-9.8,18.1c-2.3,5.3-6.6,12.7-5.2,18.7
		c2.1,9.3,14.2,8,20.8,4.8c7.1-3.4,13.4-8.5,18.8-14.4c0.1,1.9,0.3,3.8,0.7,5.6c1.2,5.7,4.8,14.8,12,14.5
		c6.6-0.3,12.5-8.4,15.9-13.3c0.8-1.1,1.5-2.3,2.2-3.5c0.5,2.8,1.4,5.4,2.9,7.9c4,6.4,12,10.9,19.4,7.8c6.7-2.8,9.5-10.1,10.5-16.8
		c0.2-1.3,0.3-2.6,0.4-4c3.5,5.3,8.2,9.3,14.3,10.4c9.9,1.9,13.8-6.5,15.1-16.3c0.3,0.7,0.7,1.4,1,2.1c3.1,5.8,8.8,15.1,16,16.4
		c8,1.5,8.5-7.5,8.4-13.1c-0.1-6.4-0.7-12.7-1.8-19c6.3,8,13.7,15.1,22.1,20.9c4.4,3,9.4,5,14.6,2.8c4.8-2.1,8.2-6.9,9.3-11.9
		C363.7-937.1,352-949,344.2-957.8z" style="fill:#4A3B2A;"/>
	<path d="M412.8-855.2c-10.3-0.8-20.7-1.6-31-2.3c-3.2-0.2-3.2,4.8,0,5c10.3,0.8,20.7,1.6,31,2.3
		C416-850,416-855,412.8-855.2z" style="fill:#4A3B2A;"/>
	<path d="M413.8-772.8c-11,0.5-22,0.2-33-1c-3.2-0.3-3.2,4.7,0,5c11,1.2,22,1.5,33,1C417-767.9,417-772.9,413.8-772.8z" style="fill:#4A3B2A;"/>
	<path d="M289.5-891c-0.9-3.1-5.7-1.8-4.8,1.3c7.9,28.8,17.5,68.4-9.5,90.8c-12.4,10.2-30.6,12-44.6,4.2
		c-14.4-8.1-21.2-23.1-21.1-39.3c0.1-18.4,5-39.1,14.4-55c1.7-2.8-2.7-5.3-4.3-2.5c-9.6,16.1-14.3,36.2-15.1,54.9
		c-0.7,16.8,5,32.8,18.7,43c13,9.7,30.5,11.3,45.2,4.7c15.2-6.8,24.5-21.6,28-37.5C301.2-848,295.2-870.1,289.5-891z" style="fill:#4A3B2A;"/>
	<path d="M348.2-861.8c-1,0.5-2.1,1.1-3.1,1.6c-0.2-0.9-0.2-1.8-0.3-2.8c-0.1-3.2-5.1-3.2-5,0c0.1,4.1,1.2,8,3.2,11.6
		c1.6,2.8,6,0.3,4.3-2.5c-0.3-0.5-0.5-0.9-0.7-1.4c1.4-0.7,2.7-1.4,4.1-2.1C353.6-858.9,351-863.3,348.2-861.8z" style="fill:#4A3B2A;"/>
	<path d="M172.2-848c-0.2,0.5-0.3,1.1-0.5,1.6c-2.8-1.4-5.7-2.5-8.6-3.5c-3.1-1-4.4,3.8-1.3,4.8c2.9,1,5.7,2.1,8.4,3.5
		c-0.8,2.6-1.6,5.2-2.5,7.7c-1,3.1,3.8,4.4,4.8,1.3c1.5-4.7,3-9.4,4.5-14.1C178-849.8,173.2-851.1,172.2-848z" style="fill:#4A3B2A;"/>
	<path d="M206.2-884.9c-0.3,4.4-1.7,10.2-5.2,13.2c-3,2.7-4.2-1.8-4.3-4c0-2.4,0.6-4.7,1.5-7c1.2-3-3.6-4.3-4.8-1.3
		c-2.3,5.7-3.1,18.7,6.3,18.3c3.6-0.2,6-3.6,7.6-6.4c2.3-3.9,3.5-8.3,3.8-12.9C211.4-888.1,206.4-888.1,206.2-884.9z" style="fill:#4A3B2A;"/>
	<path d="M317.1-892.8c-0.3-3.2-5.3-3.2-5,0c0.6,5.1,1.7,12.7-1.4,17.2c-2.4,3.5-6.5,2.8-8.6-0.6
		c-1.8-3-1.7-6.8-1.7-10.1c0-3.2-5-3.2-5,0c0,4.8,0.2,10,3.3,14c2.5,3.1,6.5,5,10.4,3.9C318.9-871.2,317.9-885,317.1-892.8z" style="fill:#4A3B2A;"/>
	<path d="M227.9-829.1c-0.7-2.9-0.8-5.8-0.4-8.8c0.2-1.4-1.3-2.5-2.5-2.5c-1.5,0-2.3,1.2-2.5,2.5
		c-0.4,3.4-0.2,6.8,0.6,10.1C223.8-824.7,228.6-826,227.9-829.1z" style="fill:#4A3B2A;"/>
	<path d="M240.8-822.2c-0.6-3.6-1.3-7.3-1.9-10.9c-0.6-3.2-5.4-1.8-4.8,1.3c0.6,3.6,1.3,7.3,1.9,10.9
		C236.5-817.7,241.3-819,240.8-822.2z" style="fill:#4A3B2A;"/>
	<path d="M236.6-807.9c-1.1-1.8-2.1-3.6-3.2-5.4c-1.6-2.8-6-0.3-4.3,2.5c1.1,1.8,2.1,3.6,3.2,5.4
		C233.9-802.6,238.2-805.2,236.6-807.9z" style="fill:#4A3B2A;"/>
	<path d="M253.4-803.8c-1.6-1.8-3.2-3.6-4.8-5.4c-0.9-1-2.6-0.9-3.5,0c-1,1-0.9,2.5,0,3.5c1.6,1.8,3.2,3.6,4.8,5.4
		c0.9,1,2.6,0.9,3.5,0C254.4-801.2,254.3-802.8,253.4-803.8z" style="fill:#4A3B2A;"/>
	<path d="M555.9-766.2c11-33.8,5.3-71.6-1.5-105.7c-3.4-17.2-9-34.1-19.8-48.2c-11.3-14.7-26.5-25.9-40.8-37.5
		c-16.7-13.6-33.1-28.9-52.5-38.6h-0.1c-1.1-0.9-2.9-1.1-3.7,0.5l-20.8,37.8c-2,3.6-5.5,8.1-4.3,12.5c1.5,5.1,7.4,9.9,10.9,13.6
		c8.8,9.3,19,17.2,27.6,26.7c1.2,1.3,2.4,2.7,3.5,4.1c0.1,0.2,0.1,0.3,0.2,0.5c18.7,34.2,39.9,76.7,21.6,115.2
		c-9.6,14.3-23.6,25.8-39.6,32c-13.6,5.3-28.3,6.6-42.8,6.1c-13.4-0.5-28.5-1.9-38-12.5l-0.1-0.1c-0.1-0.3-0.2-0.5-0.4-0.8
		c-1.6-2.3-3.2-4.7-4.8-7c-0.7-1-2.2-1.7-3.4-0.9c-23.6,16.2-51.7,22.9-79.8,25.9c-13.8,1.5-27.7,2.2-41.6,2.7
		c-16.3,0.7-32.6,1.3-48.9-0.3c-0.7-0.1-1.3,0.3-1.7,0.7c-0.6,0.3-1.1,0.8-1.4,1.5c-0.6,1.6-0.9,3.2-1.2,4.8
		c-0.1,0.4-0.3,0.8-0.4,1.2c-0.1,0.4-0.2,0.8-0.1,1.1c-3.4,4.9-7.4,9.4-11.1,14.2c-5.1,6.6-9.3,13.8-12.6,21.4
		c-6.6,15.2-9.5,31.7-8.4,48.2c0.1,1.6,1.4,2.4,2.7,2.4c10.1,10.2,23.9,14.5,37.9,16.2c17.6,2.1,35.7,0.9,53.3-0.2
		c38.9-2.4,77.5-8.6,115.1-18.5c10.2-2.7,20.6-5.2,30.5-8.9c3.4-1.3,7.1-4.6,7.1-8c50.7,4.4,102.4-14.5,139-49.8
		c5.2-5,10.1-10.4,14.6-16.1c2.9-3.6,6.6-7.6,8.5-12c6.9,4.6,18,2.3,21.4-5.8C573.7-756.6,565-766.2,555.9-766.2z" style="fill:#ED7354;"/>
	<path d="M299-733.2c-1-5.1-2.5-10-4.4-14.8c-1.3-3-2.9-6.7-6.4-7.6c-3.6-0.9-6.6,1.7-8.8,4.1
		c-3.5,3.8-6.6,7.9-9.7,12.1c-2.4-1.1-5.2-1.3-7.9-0.4c-4.4-0.3-7.8,3.1-9.2,7.3c-0.1-0.3-0.3-0.6-0.5-0.9
		c-6.3-7-14.4-11.6-23.6-13.4c-1.3-0.3-2.7,0.4-3.1,1.7c-2,7.6-1.3,15.2,0.9,22.6c1.8,5.9,4.2,12.3,8.6,16.8
		c9.3,9.4,19,1.3,24.4-7.4c2,1.3,4.3,2,7.1,1.4c3-0.6,5.4-2.2,7.2-4.5c5.8,4.3,16.1,10.5,23,6.9C303.7-712.9,300.2-727,299-733.2z" style="fill:#4A3B2A;"/>
	<path d="M342.5-794.5c-6.9,1.8-13.8,3.6-20.7,5.4c-3.1,0.8-1.8,5.6,1.3,4.8c6.9-1.8,13.8-3.6,20.7-5.4
		C346.9-790.5,345.6-795.3,342.5-794.5z" style="fill:#4A3B2A;"/>
	<path d="M193.5-798.8c-0.7-3.1-5.5-1.8-4.8,1.3c0.8,3.7,1.2,7.5,1.3,11.3c0,3.2,5,3.2,5,0
		C194.9-790.4,194.4-794.7,193.5-798.8z" style="fill:#4A3B2A;"/>
	<path d="M187.3-764.1c-0.6-2.4-0.7-4.9-0.4-7.4c0.2-1.3-1.3-2.5-2.5-2.5c-1.5,0-2.3,1.2-2.5,2.5
		c-0.4,2.9-0.1,5.8,0.5,8.7C183.2-759.7,188.1-761,187.3-764.1z" style="fill:#4A3B2A;"/>
	<path d="M202.2-755.5c-1-3.3-1.5-6.6-1.2-10c0.2-3.2-4.8-3.2-5,0c-0.2,3.8,0.3,7.7,1.4,11.3
		C198.3-751.1,203.2-752.4,202.2-755.5z" style="fill:#4A3B2A;"/>
	<path d="M182.1-675.9c-2.3,16.2-3.3,32.4-2.8,48.7c0.1,3.2,5.1,3.2,5,0c-0.4-15.8,0.4-31.7,2.6-47.4
		C187.4-677.7,182.6-679.1,182.1-675.9z" style="fill:#FFFFFF;"/>
	<path d="M389-661.8c-2-10.2-4.6-20.2-7.8-30.1c-1-3-5.8-1.7-4.8,1.3c3.2,9.9,5.8,19.9,7.8,30.1
		C384.8-657.3,389.6-658.7,389-661.8z" style="fill:#FFFFFF;"/>
	<path d="M278.2-635.8c-4.1-22.3-6.9-44.8-8.4-67.4c-0.2-3.2-5.2-3.2-5,0c1.5,23.1,4.4,46,8.6,68.7
		C274-631.4,278.8-632.7,278.2-635.8z" style="fill:#FFFFFF;"/>
	<path d="M287.2-672.7c-1.1-1.9-3.5-1.4-4.4,0.2c-0.5,0.3-0.9,0.8-1.1,1.6c-0.2,1.3-0.4,2.6-0.5,3.9
		c-0.6,2.9-0.6,6.1,0.6,8.3c1.5,2.8,5.8,2.1,6.2-0.5C291.1-662.5,289.1-669.5,287.2-672.7z" style="fill:#4A3B2A;"/>
	<path d="M459.7-977.4c-9.7,16.7-19.4,33.3-29.1,50c-1.6,2.8,2.7,5.3,4.3,2.5c9.7-16.7,19.4-33.3,29.1-50
		C465.6-977.6,461.3-980.2,459.7-977.4z" style="fill:#FFFFFF;"/>
	<path d="M521.1-837.8c-0.9-3.8-1.2-7.5-0.9-11.3c0.3-3.2-4.7-3.2-5,0c-0.4,4.3,0,8.5,1,12.7
		C517.1-833.4,521.9-834.7,521.1-837.8z" style="fill:#FFFFFF;"/>
	<path d="M529.3-845.2v13c0,3.2,5,3.2,5,0v-13C534.3-848.4,529.3-848.4,529.3-845.2z" style="fill:#FFFFFF;"/>
	<path d="M532.2-813.2c-0.2-1.3-1-2.5-2.5-2.5c-1.2,0-2.7,1.2-2.5,2.5c0.3,2.6,0,4.9-0.9,7.3c-0.5,1.3,0.5,2.7,1.7,3.1
		c1.4,0.4,2.6-0.5,3.1-1.7C532.2-807.3,532.6-810.2,532.2-813.2z" style="fill:#FFFFFF;"/>
	<path d="M542.5-795.6c-1.4-0.4-2.5,0.5-3.1,1.7c-1,2.3-2,4.7-3,7c-0.5,1.2,0.6,2.8,1.7,3.1c1.4,0.4,2.5-0.5,3.1-1.7
		c1-2.3,2-4.7,3-7C544.7-793.7,543.6-795.3,542.5-795.6z" style="fill:#FFFFFF;"/>
	<path d="M522.3-761.2c-0.1,2.1-0.7,3.9-1.8,5.7c-1.7,2.8,2.7,5.3,4.3,2.5c1.5-2.5,2.3-5.3,2.4-8.2
		C527.5-764.4,522.5-764.4,522.3-761.2z" style="fill:#FFFFFF;"/>
	<path d="M515.4-787.6c-1.4-0.4-2.6,0.5-3.1,1.7c-0.7,1.7-1.3,3.3-2,5c-0.5,1.3,0.5,2.7,1.7,3.1
		c1.4,0.4,2.6-0.5,3.1-1.7c0.7-1.7,1.3-3.3,2-5C517.7-785.8,516.6-787.3,515.4-787.6z" style="fill:#FFFFFF;"/>
	<path d="M228.5-967.7c-2.7,0.9-5.2,2.3-7.3,4.3c-2.3,2.2,1.2,5.8,3.5,3.5c1.5-1.4,3.2-2.4,5.1-3
		C232.8-963.9,231.5-968.7,228.5-967.7z" style="fill:#FFFFFF;"/>
	<path d="M203.7-947.4c-1.1-1.1-2.5-0.8-3.5,0c-1.8,1.4-3.7,2.9-5.5,4.3c-1.1,0.8-0.9,2.7,0,3.5c1.1,1.1,2.5,0.8,3.5,0
		c1.8-1.4,3.7-2.9,5.5-4.3C204.8-944.7,204.6-946.5,203.7-947.4z" style="fill:#FFFFFF;"/>
	<path d="M218.7-946.2c-0.8,2.7-1.5,5.4-2.3,8.1c-0.9,3.1,3.9,4.4,4.8,1.3c0.8-2.7,1.5-5.4,2.3-8.1
		C224.4-948,219.6-949.3,218.7-946.2z" style="fill:#FFFFFF;"/>
	<path d="M177.9-925.9c-0.6,2.1-1.5,3.9-2.7,5.6c-0.8,1.1-0.2,2.8,0.9,3.4c1.3,0.7,2.6,0.2,3.4-0.9
		c1.5-2.1,2.6-4.4,3.2-6.8C183.6-927.7,178.8-929,177.9-925.9z" style="fill:#FFFFFF;"/>
	<path d="M219-725.7c-17.8,10-35.6,20-53.4,29.9c-1.3-6.7-1.5-13.3-0.8-20.1c0.3-3.2-4.7-3.2-5,0
		c-0.8,8.3-0.2,16.5,1.7,24.6c0.4,1.6,2.3,2.3,3.7,1.5l56.4-31.6C224.4-723,221.9-727.3,219-725.7z" style="fill:#FFFFFF;"/>
	<path d="M367.2-755.8c-1-0.7-2.2-0.2-3,0.4c-2.9,2.3-2.5,7.7-2.9,11.1c-0.6,4.6-1.2,9.3-1.8,13.9
		c-18.3-1.6-36.5-4.3-54.5-8.1c-3.1-0.7-4.5,4.1-1.3,4.8c19.1,4.1,38.5,6.9,57.9,8.5c1.5,0.1,2.3-1.3,2.5-2.5c0.5-4,1-8,1.6-12
		c0.2-1.8,0.2-7.4,1.1-10.4c0.1,0,0.2,0,0.3,0c1.1-0.2,1.8-1.4,1.8-2.4C369-754.1,368.4-754.8,367.2-755.8z" style="fill:#FFFFFF;"/>
	<path d="M257.7-717.8c-0.4-1.2-0.7-2.4-1.1-3.6c0.4-1.1,0.1-2.4-0.9-3c-0.5-1.7-1-3.3-1.5-5c-0.9-3.1-5.7-1.8-4.8,1.3
		c0.3,1.1,0.6,2.2,1,3.2h-7.5c-3.2,0-3.2,5,0,5h9c0.3,1.1,0.7,2.3,1,3.4C253.8-713.4,258.6-714.7,257.7-717.8z" style="fill:#FFFFFF;"/>
	<path d="M288.8-733.4c-0.4-1.4-1.7-2-3.1-1.7c-2.5,0.4-4.8,1.5-6.7,3c-0.3-1.2-0.5-2.4-0.8-3.6
		c-0.7-3.1-5.5-1.8-4.8,1.3c1,4.7,2,9.3,3,14c0.7,3.1,5.5,1.8,4.8-1.3c-0.3-1.6-0.7-3.1-1-4.7c0.2-0.1,0.3-0.2,0.4-0.4
		c1.7-2,3.8-3.1,6.4-3.5C288.4-730.6,289.1-732.2,288.8-733.4z" style="fill:#FFFFFF;"/>
</g>
<g>
	<path d="M559.7,416.6c-6.1-24.2-21.6-44.1-41.5-58.6c-22.9-16.6-50.1-25.5-77.4-31.7c0-30.1-1.6-60.2-4.8-90.1
		c12.1-2,25.3-15.3,17.3-27.7c-4.8-7.3-17-9.9-23.5-4.1c-4.6-21.4-9.2-42.8-13.7-64.2c-0.2-0.9-1.2-1.6-2.1-1.6
		c-42.2,0.1-84.4,1.5-126.5,4.3c-2.6,0.2-2.8,3.9-0.6,4.3c0,0,0,0.1,0,0.1c0.6,20.9-0.2,41.7-2.6,62.4c-12.3-1.7-27.7,5.8-27.5,19.7
		c0.1,11.4,13,20.4,23.2,16.2c1.8,14.8,3.7,29.6,5.8,44.3c1.2,8.3,2.4,16.6,3.7,24.8c0.6,4,1.2,8,1.9,12c0.2,1.2,0.3,2.4,0.5,3.7
		c-36.8,16.8-62.1,56.1-61,96.8c1.1,42.1,31.4,80.8,71.1,94.1c25.9,8.7,53.3,4.8,79.6-0.5c-0.5,0.4-1.1,0.7-1.6,1.1
		c-1.9,1.2-1.1,3.9,1.1,4.1c31.2,2.5,63.3-1.3,93.9-7c26.4-5,53.7-14.6,71.4-35.9C561.7,464.4,565.5,439.8,559.7,416.6z" style="fill:#F4BFAB;"/>
	<path d="M455.7,93.2c-13.5-8.4-32.4-3.6-43.9,6.5c-1.1-13-9.4-26.6-24.4-24.7c-11.5,1.5-15.7,12.5-17.3,22.9
		c-2.5-4.9-5.4-9.6-8.8-14.1c-4.1-5.4-9.1-11.9-16.3-13.1c-12.1-2.1-12.2,12.1-10.1,23.1c-3.1-3.2-6.4-6-10.2-8.5
		c-6.3-4.2-14.5-8.5-22.2-9c-6.6-0.5-11.7,4-13.7,10.1c-1.4,4.2-0.9,8.4,0.3,12.5c-6.7-3.2-15.1-2.9-20.8,2.2
		c-8.1,7.2-7.1,20.5,0.2,27.7c-7.9,3.9-14.4,11.7-19.2,18.7c-5.4,7.9-8.1,19-2,27.3c5.4,7.3,15.4,7.8,23.2,4.4
		c7.1-3.2,11.8-9.4,15.5-16.1c0.2,5.8,1.2,11.5,4.3,16.4c3.8,6,10.6,10.5,17.9,9.3c10.4-1.6,14.7-12.2,15.6-22.1
		c7.4,11,18.3,20.3,32.5,17.8c9.5-1.7,16.6-10.7,16-19.7c8.9,7.3,19.7,13.2,31.2,8.3c7.2-3.1,11.2-11.2,9.7-18.3
		c11.8,5.9,26,8.9,36.2-1.6c6.9-7.2,5.5-20.3-2.5-25.2c5.4-2.7,9.8-7.2,12.5-12.8C463,107.8,463.4,98,455.7,93.2z" style="fill:#4A3B2A;"/>
	<path d="M398.6,270.7c-0.8-23.4-5.9-47-13.5-69.2c-1-2.9-5.5-1.6-4.5,1.3c6.1,18,10.4,36.7,12.4,55.7
		c1.5,14.3,2.6,31.2-5.7,43.9c-10,15.2-32.3,14.7-47,7.1c-14.2-7.4-19.1-24.5-20.9-39.3c-2.6-21.5-1.6-43.5,2.5-64.8
		c0.6-3-4-4.2-4.5-1.3c-4.1,21.5-5.2,43.6-2.7,65.4c1.8,15.3,6.2,32.3,19.5,41.7c13.4,9.4,35.9,11.8,49.5,1.7
		C396.7,303.3,399.1,285.7,398.6,270.7z" style="fill:#4A3B2A;"/>
	<path d="M412.6,195.6c-1.1-2.8-5.6-1.6-4.5,1.3c0.7,1.8,1.2,3.5,0.1,5.3c-0.9,1.6-2.8,2.9-4.7,2.8
		c-3.8-0.1-5.9-4.4-5.1-7.7c0.7-2.9-3.8-4.2-4.5-1.3c-1.5,6.2,2.7,13.6,9.6,13.6C411,209.7,415.1,202.1,412.6,195.6z" style="fill:#4A3B2A;"/>
	<path d="M312.4,199.6c-1.3,4.3-4.7,14.5-11.2,11.2c-3.7-1.8-3.1-9-4.1-12.4c-0.9-2.9-5.4-1.7-4.5,1.3
		c1.8,6,1,15.2,9.4,16.2c8.9,1,12.9-7.9,15-15C317.8,197.9,313.2,196.7,312.4,199.6z" style="fill:#4A3B2A;"/>
	<path d="M269.4,217.3v4.3c-2.2,1.2-4.7,1.7-7.2,1.3c-3-0.4-4.2,4.1-1.3,4.5c2.9,0.4,5.8,0.2,8.5-0.8v4.2
		c0,3,4.7,3,4.7,0v-13.6C274.1,214.2,269.4,214.2,269.4,217.3z" style="fill:#4A3B2A;"/>
	<path d="M446.6,209.5c-4.1,2.2-8.4,3.7-12.9,4.3c-0.2-1.5-0.4-3-0.6-4.5c-0.4-3-5-1.7-4.5,1.3
		c0.7,4.6,1.2,9.2,1.5,13.8c0.2,3,4.9,3,4.7,0c-0.1-1.9-0.3-3.9-0.5-5.8c5.2-0.7,10.1-2.3,14.8-4.9
		C451.7,212.1,449.3,208,446.6,209.5z" style="fill:#4A3B2A;"/>
	<path d="M345.1,251.1c-0.4-2.9-0.5-5.8-0.4-8.8c0.1-3-4.6-3-4.7,0c-0.2,3.4,0.1,6.7,0.6,10c0.2,1.3,1.8,1.9,2.9,1.6
		C344.8,253.7,345.3,252.4,345.1,251.1z" style="fill:#4A3B2A;"/>
	<path d="M335.5,271.9c-0.9-3.1-1.3-6.2-1.1-9.4c0.1-3-4.6-3-4.7,0c-0.2,3.6,0.3,7.2,1.3,10.7
		C331.8,276,336.4,274.8,335.5,271.9z" style="fill:#4A3B2A;"/>
	<path d="M354.3,279.4c-0.6-2.4-1.5-4.7-2.6-6.9c-0.6-1.1-2.2-1.5-3.2-0.8c-1.2,0.7-1.4,2.1-0.8,3.2
		c0.9,1.9,1.6,3.8,2.1,5.8C350.5,283.6,355.1,282.3,354.3,279.4z" style="fill:#4A3B2A;"/>
	<path d="M349.6,300.9c-1.6-2.1-3.2-4.3-4.9-6.4c-0.8-1-2-1.5-3.2-0.8c-1,0.6-1.6,2.2-0.8,3.2c1.6,2.1,3.2,4.3,4.9,6.4
		c0.8,1,2,1.5,3.2,0.8C349.8,303.5,350.4,301.9,349.6,300.9z" style="fill:#4A3B2A;"/>
	<path d="M297.8,278.4c-0.2-1.3-1-2.4-2.4-2.4c-1.2,0-2.5,1.1-2.4,2.4c0.3,2.4,0.6,4.8,0.9,7.2c0.2,1.3,1,2.4,2.4,2.4
		c1.2,0,2.5-1.1,2.4-2.4C298.4,283.2,298.1,280.8,297.8,278.4z" style="fill:#4A3B2A;"/>
	<path d="M297.6,307.5c-0.9-1.9-1.3-3.9-1.1-6c0.2-3-4.5-3-4.7,0c-0.2,2.9,0.5,5.8,1.8,8.4
		C294.9,312.6,298.9,310.2,297.6,307.5z" style="fill:#4A3B2A;"/>
	<path d="M308.4,298.8c-1.2-2.8-5.3-0.4-4.1,2.4c1.3,2.8,1.8,5.8,1.9,8.9c0,3,4.7,3,4.7,0
		C310.9,306.1,310,302.4,308.4,298.8z" style="fill:#4A3B2A;"/>
	<path d="M565,427.6c-6.6-46.7-42.5-83.7-86.8-98.3c-13.7-4.5-28-7-42.4-7.6c-1.5-0.1-2.2,1.1-2.1,2.2
		c-45.6,12.3-93.7,13.2-139.7,2.5c-0.6-0.8-1.7-1.3-2.8-0.6c-25,14.9-44.1,38.1-55,65c-5.5,13.5-8.8,27.9-9.7,42.4
		c-0.5,7.2-0.3,14.4,0.5,21.5c0.4,3.8,2,8.5,1.3,12.2c-0.7,3.7-4.3,5.9-5.5,9.5c-2,6,0.2,13.5,6.3,16.2c4.3,1.9,9.3,1,12.7-1.8
		C273.2,521,319.3,534,362,524.6c2-0.4,2-3.2,0.5-4c0,0,0-0.1,0-0.1c-4.7-18.1-8.1-36.4-10.1-55c9.3-1,18.6,0.6,27.8,2.1
		c9.1,1.5,18.2,2.8,27.4,3.8c1.9,0.2,3.7,0.4,5.6,0.6c2.8,18.7,5.5,37.3,8.3,56c0.2,1.2,1.7,1.7,2.7,1.5c17.2-3.1,34.4-6.2,51.7-9.4
		c15.5-2.8,31-6,45.5-12.3c23.3-10.2,44.2-32.2,42.3-58.9c6.3,1.3,13.6-2.6,14.3-9.4C578.7,432.1,571.6,426.8,565,427.6z" style="fill:#ED7354;"/>
	<path d="M445.7,321.5c-51.7,34.9-116.9,27-173.8,11.6c-2.9-0.8-4.2,3.7-1.3,4.5c58.1,15.7,124.7,23.5,177.4-12.1
		C450.6,323.9,448.3,319.8,445.7,321.5z" style="fill:#FFFFFF;"/>
	<path d="M342.6,522.4c-4.9-18.2-7.4-36.8-7.3-55.7c0-3-4.7-3-4.7,0c-0.1,19.2,2.4,38.4,7.5,56.9
		C338.9,526.6,343.4,525.3,342.6,522.4z" style="fill:#FFFFFF;"/>
	<path d="M445.8,522.7c-2.9-17.4-5.7-34.8-8.6-52.2c-0.5-3-5-1.7-4.5,1.3l8.6,52.2C441.7,526.9,446.3,525.6,445.8,522.7
		z" style="fill:#FFFFFF;"/>
	<path d="M283.3,472c-8.1-2.6-16.2-5.1-24.2-7.7c-2.9-0.9-4.1,3.6-1.3,4.5c8.1,2.6,16.2,5.1,24.2,7.7
		C284.9,477.5,286.2,472.9,283.3,472z" style="fill:#FFFFFF;"/>
	<path d="M513.2,463.3c-13,3.3-25.4,8.5-36.8,15.5c-2.6,1.6-0.2,5.7,2.4,4.1c11.1-6.8,23.1-11.8,35.7-15.1
		C517.4,467.1,516.1,462.5,513.2,463.3z" style="fill:#FFFFFF;"/>
	<path d="M507.6,384.6c-2.4-3.8-5.8-6.5-9.9-8.1c-2.8-1.1-4,3.4-1.3,4.5c2.9,1.2,5.4,3.3,7.1,5.9
		C505.2,389.6,509.3,387.2,507.6,384.6z" style="fill:#FFFFFF;"/>
	<path d="M539.6,394.8c-2.1-3.9-4.2-7.8-6.4-11.7c-1.5-2.7-5.5-0.3-4.1,2.4c2.1,3.9,4.2,7.8,6.4,11.7
		C537,399.8,541.1,397.4,539.6,394.8z" style="fill:#FFFFFF;"/>
	<path d="M532.9,420c-0.9-1.9-1.9-3.8-2.8-5.6c-0.6-1.1-2.2-1.5-3.2-0.8c-1.2,0.7-1.4,2.1-0.8,3.2
		c0.9,1.9,1.9,3.8,2.8,5.6c0.6,1.1,2.2,1.5,3.2,0.8C533.2,422.6,533.5,421.2,532.9,420z" style="fill:#FFFFFF;"/>
	<path d="M552.6,443.3c-1.1-2.8-5.6-1.6-4.5,1.3c1.4,3.6,1.2,7.6-1.3,10.7c-1.8,2.4,1.5,5.7,3.3,3.3
		C553.5,454.2,554.7,448.5,552.6,443.3z" style="fill:#FFFFFF;"/>
	<path d="M311.8,144.7c-1.2-0.7-2.5-0.2-3.2,0.8c-1.5,2.2-2.6,4.6-3.4,7.1c-0.8,2.9,3.7,4.2,4.5,1.3
		c0.6-2.2,1.6-4.1,2.9-6C313.4,146.9,312.9,145.3,311.8,144.7z" style="fill:#FFFFFF;"/>
	<path d="M282.1,142.4c-1.8,2.6-4.2,4.7-6.9,6.3c-2.6,1.5-0.2,5.6,2.4,4.1c3.4-2,6.3-4.7,8.6-8
		C287.9,142.3,283.9,139.9,282.1,142.4z" style="fill:#FFFFFF;"/>
	<path d="M301,112.2c-3.1,0.8-6.1,0.8-9.1,0c-2.9-0.8-4.2,3.8-1.3,4.5c3.9,1,7.8,1,11.6,0
		C305.2,115.9,304,111.4,301,112.2z" style="fill:#FFFFFF;"/>
	<path d="M328.2,97.2c-2.2-0.8-4.4-1.6-6.5-2.5c-1.2-0.4-2.6,0.5-2.9,1.6c-0.4,1.3,0.5,2.4,1.6,2.9
		c2.2,0.8,4.4,1.6,6.5,2.5c1.2,0.4,2.6-0.5,2.9-1.6C330.2,98.7,329.4,97.6,328.2,97.2z" style="fill:#FFFFFF;"/>
	<path d="M342.1,128.6c-0.3-1.2-1.7-2.1-2.9-1.6c-1.9,0.7-3.8,1.2-5.8,1.4c-1.3,0.1-2.4,1-2.4,2.4
		c0,1.2,1.1,2.5,2.4,2.4c2.4-0.3,4.8-0.8,7.1-1.6C341.7,131,342.5,129.9,342.1,128.6z" style="fill:#FFFFFF;"/>
	<path d="M486.3,390.4c0-3.6,0-7.6-2-10.8c-4-6.2-14.7-5.6-21.1-6.4c-10.4-1.4-20.8-2.6-31.2-3.6
		c-41.6-4.2-83.6-5.8-125.4-4.8c-5.7,0.1-11.5,0.1-17.3,0.6c-3,0.3-5.7,1.1-6.9,4.1c-1.8,4.4-1,10.5-1.1,15.2
		c-0.2,5.6-0.5,11.2-0.7,16.9c-1,24.4-2.1,48.7-3.1,73.1c-0.1,2.5,3.1,2.9,4.3,1.3c18,2.8,36.2,3.9,54.3,3.5
		c25.3,1.6,50.6,2.9,75.9,3.8c10.6,0.4,21.1,0.7,31.7,0.9c5,0.1,9.9,0.2,14.9,0.3c4.6,0.1,9.8,0.8,14.4-0.1c8-1.5,7.8-10.3,8.7-16.8
		c1.3-10.1,2.4-20.2,3.2-30.3c0.8-10.6,1.3-21.3,1.5-32C486.3,400.2,486.3,395.3,486.3,390.4z" style="fill:#4A3B2A;"/>
	<path d="M407.2,388.3c0-6.5,0-13,0-19.5c0-0.9-0.7-2.1-1.7-2.3c-9.1-1.4-18.2-2.6-27.4-3.6c-4.5-0.5-9.3-1.3-13.9-1.3
		c-2.5,0-4.4,0.4-5.7,2.7c-0.3,0.6-0.4,1.1-0.3,1.6c0,0.1,0,0.2,0,0.4c0,6.2,0,12.4,0,18.6c0,5.2-1,11.4,0.1,16.5
		c0.9,4.1,4.4,4.3,8,4.9c4.8,0.8,9.6,1.4,14.5,1.9c2.2,22.6,3.3,45.4,3.1,68.1c0,3,4.7,3,4.7,0c0.2-22.6-0.8-45.2-3-67.7
		c5.1,0.4,10.3,0.8,15.4,0.7c3.2-0.1,5.5-1.4,6.2-4.7C408.1,399.6,407.2,393.5,407.2,388.3z" style="fill:#FFFFFF;"/>
	<path d="M382.5,366.5c-1.5,13.3-1.9,26.6-1.2,39.9c0.2,3,4.9,3,4.7,0c-0.7-13.3-0.3-26.7,1.2-39.9
		C387.5,363.5,382.8,363.5,382.5,366.5z" style="fill:#4A3B2A;"/>
	<path d="M303.6,389.6c-0.4-2.5-0.8-5-1.3-7.5c-0.5-3-5-1.7-4.5,1.3l1.3,7.5C299.6,393.8,304.1,392.5,303.6,389.6z" style="fill:#FFFFFF;"/>
	<path d="M311.2,396.5v7.5c0,3,4.7,3,4.7,0v-7.5C315.9,393.5,311.2,393.4,311.2,396.5z" style="fill:#FFFFFF;"/>
	<path d="M300,412.7v10c0,3,4.7,3,4.7,0v-10C304.7,409.7,300,409.7,300,412.7z" style="fill:#FFFFFF;"/>
</g>
</svg>
