<?xml version="1.0" encoding="utf-8"?>
<!-- Generator: Adobe Illustrator 20.1.0, SVG Export Plug-In . SVG Version: 6.00 Build 0)  -->
<svg version="1.1" id="Capa_1" xmlns="http://www.w3.org/2000/svg" xmlns:xlink="http://www.w3.org/1999/xlink" x="0px" y="0px" viewBox="0 0 800 600" style="enable-background:new 0 0 800 600;" xml:space="preserve">

<g>
	<path d="M552.8,416.7c-1.4-2.6-4.4-3.5-7.1-3.9c-1.6-0.2-3.2-0.3-4.8-0.4c4.3-2.4,8.2-5.3,11.7-8.9
		c1.2-1.3,0.8-3.8-1.1-4.2c-5.8-1.1-11.6-0.9-17,0.6c2.7-3.9,4.9-8.1,6.7-12.5c0.9-2.3-2-3.6-3.7-2.8c-3.1,1.4-6,3-8.7,4.8
		c2.1-5.9,2.8-12.2,2.1-18.7c-0.2-2.2-2.5-3.2-4.3-1.8c-44.2,37.6-110.9,44.8-162.1,17.5c-2.1-12.6-5.1-25-8.8-37.2
		c5.7,2.2,12.8,0.8,17.3-4.1c10.3-11.2,4.6-27-1.8-38.6c-8-14.7-19.1-27.5-30.7-39.5c-10.6-10.9-21.5-24.7-37.5-26.6
		c-9.9-1.2-20.3,0-30.2,1.1c-10.4,1.2-20.6,2.9-30.8,5.3c-1.7,0.4-2.1,1.9-1.6,3.2c-0.7,0.1-1.4,0.4-1.8,1.2
		c-12.8,21.8-16.6,48.2-20.8,72.7c-4.1,23.8-7.1,47.8-9,71.9c-31.4-1-41.9-38.2-42.3-64.1c-0.5-26,7.2-52,21.3-73.9
		c8.3-12.9,18.8-24.2,31-33.4c1.7-1.3,1.6-3.9-0.6-4.6c-4.2-1.3-8.5-0.9-12.2,0.6c0.8-1.8,1.6-3.5,2.4-5.3c0.7-1.5-0.1-4-2.2-3.8
		c-4.7,0.5-9,1.8-12.9,4l5.7-12.8c0.8-1.9-0.6-4.3-2.8-3.7c-4.8,1.4-9.1,3.7-12.9,6.7c0.6-3.2,0.9-6.5,0.8-9.8
		c0-1.8-2.2-3.3-3.8-2.2c-47.8,34-64.2,95.7-52.6,151.3c5.9,28.2,17.9,58.8,37.8,80.2c9.6,10.3,21.7,17.5,35.4,21
		c14.9,3.8,30.5,3.8,45.8,3.8c19.9-0.1,39.9-0.2,59.8-0.4c0.7,0,1.4,0,2.1,0c19,1.7,38.3,1.9,57.3,2.9c3-1,38.3,2.6,56,2.1
		c21.2-0.6,42.3-2.5,63.2-6c18.5-3.2,37.2-7.5,53.9-16.5C543.8,429.5,556.5,423.9,552.8,416.7z" style="fill:#F4BFAB;"/>
	<path d="M511.3,441.7c-4.6-18.9-11.3-37.2-20-54.7c-0.6-1.3-2.3-1.5-3.4-0.9c-21.9,11-46.3,16.1-70.8,14.9
		c-12-0.6-24-2.7-35.4-6.5c-2.1-0.7-4.4-1.6-6.7-2.7l-2.4-13c-0.5-2.7-0.3-7.6-3.4-8.8c-1.8-0.7-4.6,0.2-6.3,0.5
		c-2.3,0.4-4.6,1-6.8,1.5c-48.2,4.6-96.8,5.3-145.1,2c-0.9-0.1-1.5,0.3-1.9,0.8c-0.5,0.2-0.9,0.5-1.2,1.1c-1.8,3.4-3.5,6.8-5.3,10.2
		c-1.3,2.4-1.5,4.4-5,4.2c-1.4-0.1-3.2-0.9-4.3-1.5c-5.1-2.3-9.3-6.3-12.4-10.9c-7.2-10.6-9.8-23.6-10.7-36.2
		c-2.2-29.6,5.3-59.3,20.8-84.5c0.7-1.1,0.3-2.8-0.9-3.4c-14.8-7.6-29.7-15.1-44.5-22.7c-1.3-0.7-2.6-0.2-3.4,0.9
		c-36.5,48.1-29.4,112.3-5.1,164c-5.4,4.5-9.2,13.4-2.6,18.5c3.8,3,9.2,2.5,12.3-0.4c8,13,20.8,22.3,35,28
		c9.1,3.6,18.7,5.7,28.4,7.1c2.4,0.3,6.5,0.3,10.6,0.8l0.1,0.1c5.3,0,15.8,1.1,15.8,1.1c60.4,1.2,120.8,2.4,181.3,3.3
		c-0.6,5.8,1.2,12.5,8.3,11.9c4.2-0.3,7.3-3.4,9-7.1c0.6-1.2,1.3-2.9,1.6-4.6c6.8,0.1,13.7,0.2,20.5,0.3c18.2,0.2,36.1-0.6,52.4-9.4
		c0.9-0.5,1.3-1.2,1.2-2C511.3,443.2,511.4,442.5,511.3,441.7z" style="fill:#ED7354;"/>
	<path d="M680.5,307.3c0.6-56.9-0.9-113.8-4.6-170.5c-0.1-1.4-1.1-2.5-2.5-2.5c-70.4-1.4-140.8-0.9-211.2,1.7
		c-19.9,0.7-39.8,1.6-59.7,2.7c-1.4,0.1-2.5,1.1-2.5,2.5c-0.8,66.6,0.7,133.2,4.2,199.7c0.1,2,2.1,2.7,3.5,2.3
		c0.3,0.2,0.8,0.4,1.3,0.4c16.6,1,33.3,1.2,49.9,0.6c7.2-0.3,14.3-0.7,21.5-1.3c66.7,3.1,133.8-4.5,200.3-9.5
		c1.2-0.1,2.6-1.1,2.5-2.5C682.3,323,681.4,315.1,680.5,307.3z" style="fill:#F4BFAB;"/>
	<path d="M355.6,230c-4.2-2.4-9-3.8-13.9-4.4c4.6-3.1,8.3-7.4,10.8-12.5c0.8-1.6,0.1-3.1-1.5-3.7
		c-10.8-4.2-22.6-4.1-33.2-0.1c6.2-11.4,13.1-30.1-0.1-32.3c-6.7-1.1-13.5,4.2-18.2,8.3c-3.2,2.8-6,6.1-8.3,9.6
		c-0.3-13.7-3.9-27.9-18.6-32.4c-0.9-0.3-2.4,0.2-2.8,1.1c-4.2,9.8-6.2,20.1-6,30.4c-5.4-9.3-12.3-17.5-20.8-24.3
		c-1.8-1.4-4-0.5-4.3,1.8c-1,9.7-0.3,19.3,2.1,28.6c-6.9-6.8-15.4-11.9-24.9-14.8c-1.1-0.3-2.3,0.2-2.8,1.1
		c-9.4,15.8,1.4,31.4,12.3,43.1c-8.4,5.4-16,12-22.4,19.7c-3.4,4.1-6.5,8.4-9.2,13c-2.1,3.6-4.6,8.2-3.2,12.5c3,9,14.1,4.3,20.5,1.2
		c-2.8,4.4-5.3,8.9-7.1,13.8c-2.1,5.4-6.2,18.5-0.1,22.7c6.8,4.7,13.8-4.7,17.6-9.1c2-2.4,3.9-4.8,5.7-7.3c-0.8,6-0.4,12.3,5.9,14.2
		c8.3,2.5,12.6-10.8,15.3-16.1c3.9-7.5,7.4-15.2,10.6-23.1c2,9.9,6.1,19.3,12.2,27.5c1.3,1.7,3.9,1.6,4.6-0.6
		c3-9.4,4.6-19.1,4.5-28.9c5.7,8.5,12.1,16.5,19.2,24c1.4,1.5,3.5,0.5,4.2-1.1c3.6-8.8,4.6-18.4,3-27.6c3.6,3.6,7.6,6.8,11.8,9.7
		c5.1,3.5,13.1,9.1,19,4.1c4-3.4,4.1-9.7,2.3-14.3c-1.9-4.9-6.1-8-9.7-11.6c7.3,1.4,14.7,1.8,22.1,1.1c5.6-0.5,12.3-2.5,12.6-9.2
		C365.4,238.3,360.4,232.7,355.6,230z" style="fill:#4A3B2A;"/>
	<path d="M632.2,168.9c-50.7,7.3-101.7,11.4-152.9,12.4c-3.2,0.1-3.2,5.1,0,5c51.6-1,103.1-5.2,154.2-12.6
		C636.7,173.2,635.4,168.4,632.2,168.9z" style="fill:#4A3B2A;"/>
	<path d="M633,220.1c-50.7,5.7-101.8,7-152.7,3.9c-3.2-0.2-3.2,4.8,0,5c50.9,3.1,102,1.8,152.7-3.9
		C636.2,224.8,636.2,219.7,633,220.1z" style="fill:#4A3B2A;"/>
	<path d="M634.2,265.5c-48.3,6.1-97.2,7.5-145.8,4.1c-3.2-0.2-3.2,4.8,0,5c48.6,3.4,97.4,2,145.8-4.1
		C637.3,270.1,637.4,265.1,634.2,265.5z" style="fill:#4A3B2A;"/>
	<path d="M644.1,296.2c-50.6,8.1-101.8,11.6-153,10.6c-3.2-0.1-3.2,4.9,0,5c51.7,1,103.3-2.6,154.3-10.8
		C648.6,300.5,647.2,295.7,644.1,296.2z" style="fill:#4A3B2A;"/>
	<path d="M451.3,181.1c-0.3-3.7-0.3-7.5,0-11.2c0.1-1.2-1.2-2.7-2.5-2.5c-6.5,0.8-13,1.2-19.6,1.1c-2.1,0-2.8,2-2.2,3.5
		c0,0,0,0,0,0.1c0.1,3.4,0.1,6.7,0.2,10.1c0,2.5-0.4,5.5,0.5,7.9c1.8,4.7,10.4,3.2,14.2,3.4c3.5,0.1,10.3,1.6,10.6-3.6
		C452.7,186.9,451.5,183.9,451.3,181.1z M442.8,188.4l-6.8-0.3c-2.5-0.1-3.6,0.5-3.8-2.1c-0.3-4.1-0.2-8.4-0.2-12.5
		c4.7,0,9.4-0.3,14.1-0.8c-0.1,3.6-0.1,7.2,0.4,10.8c0.2,1.4,0.1,3.8,0.7,5.1c-0.1,0-0.1,0-0.2,0
		C446.3,188.2,443.5,188.4,442.8,188.4z" style="fill:#4A3B2A;"/>
	<path d="M451.3,225.9c-0.3-3.7-0.3-7.5,0-11.2c0.1-1.2-1.2-2.7-2.5-2.5c-6.5,0.8-13,1.2-19.6,1.1c-2.1,0-2.8,2-2.2,3.5
		c0,0,0,0,0,0.1c0.1,3.4,0.1,6.7,0.2,10.1c0,2.5-0.4,5.5,0.5,7.9c1.8,4.7,10.4,3.2,14.2,3.4c3.5,0.1,10.3,1.6,10.6-3.6
		C452.7,231.8,451.5,228.7,451.3,225.9z M442.8,233.3L436,233c-2.5-0.1-3.6,0.5-3.8-2.1c-0.3-4.1-0.2-8.4-0.2-12.5
		c4.7,0,9.4-0.3,14.1-0.8c-0.1,3.6-0.1,7.2,0.4,10.8c0.2,1.4,0.1,3.8,0.7,5.1c-0.1,0-0.1,0-0.2,0C446.3,233,443.5,233.3,442.8,233.3
		z" style="fill:#4A3B2A;"/>
	<path d="M451.3,270.8c-0.3-3.7-0.3-7.5,0-11.2c0.1-1.2-1.2-2.7-2.5-2.5c-6.5,0.8-13,1.2-19.6,1.1c-2.1,0-2.8,2-2.2,3.5
		c0,0,0,0,0,0.1c0.1,3.4,0.1,6.7,0.2,10.1c0,2.5-0.4,5.5,0.5,7.9c1.8,4.7,10.4,3.2,14.2,3.4c3.5,0.1,10.3,1.6,10.6-3.6
		C452.7,276.7,451.5,273.6,451.3,270.8z M442.8,278.1l-6.8-0.3c-2.5-0.1-3.6,0.5-3.8-2.1c-0.3-4.1-0.2-8.4-0.2-12.5
		c4.7,0,9.4-0.3,14.1-0.8c-0.1,3.6-0.1,7.2,0.4,10.8c0.2,1.4,0.1,3.8,0.7,5.1c-0.1,0-0.1,0-0.2,0
		C446.3,277.9,443.5,278.2,442.8,278.1z" style="fill:#4A3B2A;"/>
	<path d="M451.3,315.7c-0.3-3.7-0.3-7.5,0-11.2c0.1-1.2-1.2-2.7-2.5-2.5c-6.5,0.8-13,1.2-19.6,1.1c-2.1,0-2.8,2-2.2,3.5
		c0,0,0,0,0,0.1c0.1,3.4,0.1,6.7,0.2,10.1c0,2.5-0.4,5.5,0.5,7.9c1.8,4.7,10.4,3.2,14.2,3.4c3.5,0.1,10.3,1.6,10.6-3.6
		C452.7,321.6,451.5,318.5,451.3,315.7z M442.8,323l-6.8-0.3c-2.5-0.1-3.6,0.5-3.8-2.1c-0.3-4.1-0.2-8.4-0.2-12.5
		c4.7,0,9.4-0.3,14.1-0.8c-0.1,3.6-0.1,7.2,0.4,10.8c0.2,1.4,0.1,3.8,0.7,5.1c-0.1,0-0.1,0-0.2,0C446.3,322.8,443.5,323,442.8,323z" style="fill:#4A3B2A;"/>
	<path d="M461.9,295c-3.6,3.8-7.3,7.7-10.9,11.5c-3,3.2-6.1,7.6-9.6,10.5c-0.7-1.3-1.3-3.3-1.5-3.8
		c-1.2-2.9-6.1-1.6-4.8,1.3c2.3,5.5,4.3,11.4,10,5.6c7-7,13.6-14.4,20.4-21.6C467.7,296.2,464.2,292.6,461.9,295z" style="fill:#ED7354;"/>
	<path d="M455.2,248.8c-4.8,6.8-10.1,13.3-15.3,19.9c-0.6-0.9-1.1-1.9-1.4-3c-0.9-3.1-5.7-1.8-4.8,1.3
		c0.8,3,2.3,5.3,4.6,7.3c1.3,1.1,2.9,0.8,3.9-0.5c5.8-7.5,11.8-14.8,17.3-22.5C461.4,248.7,457,246.2,455.2,248.8z" style="fill:#ED7354;"/>
	<path d="M455.2,206.2c-3.3,4.1-6.5,8.2-9.8,12.3c-1.5,1.9-3.5,3.8-4.6,5.8c-0.2,0.4-0.6,0.7-0.8,1
		c-0.6-1.3-1.3-3.6-1.4-4.1c-1-3-5.9-1.7-4.8,1.3c1.3,3.8,3.9,11.7,9.1,7.1c2.9-2.6,5.2-6.4,7.7-9.5c2.7-3.4,5.5-6.9,8.2-10.3
		C460.8,207.2,457.2,203.7,455.2,206.2z" style="fill:#ED7354;"/>
	<path d="M461.8,156.2c-5.2,5.2-10.1,10.6-14.5,16.5c-0.9,1.2-5.3,8.7-6.5,8.3c-0.7-0.2-2.4-5-3.5-5.8
		c-2.5-2-6.1,1.5-3.5,3.5c2.3,1.8,2,5.5,4.8,7c2.5,1.4,5.1,0.1,6.8-1.8c3.2-3.5,5.6-8,8.6-11.7c3.5-4.4,7.3-8.5,11.4-12.5
		C467.6,157.5,464.1,153.9,461.8,156.2z" style="fill:#ED7354;"/>
	<path d="M377.5,386.9c-3.9,0.7-7.7,1.4-11.6,2c0.1-0.3,0.2-0.7,0.2-1.2c-0.5-5-1.1-10.1-1.6-15.1c-0.3-3.2-5.3-3.2-5,0
		c0.5,5,1.1,10.1,1.6,15.1c0.1,0.8,0.5,1.4,1,1.8c-4.2,0.6-8.4,1.2-12.6,1.7l0,0c-1.3-5.1-2.6-10.1-3.9-15.2
		c-0.8-3.1-5.6-1.8-4.8,1.3c1.2,4.8,2.5,9.6,3.7,14.5c-5.5,0.6-10.9,1.1-16.4,1.5c-1.2-6-2.3-11.9-3.5-17.9
		c-0.6-3.2-5.4-1.8-4.8,1.3c1.1,5.6,2.2,11.3,3.3,16.9c-5.9,0.3-11.8,0.6-17.7,0.7c-1-4.9-1.9-9.9-2.5-14.8c-0.4-3.2-5.4-3.2-5,0
		c0.6,5,1.4,10,2.4,14.9c-3.9,0-7.8,0-11.7-0.1c-2,0-3.9-0.1-5.9-0.2c-0.8-5.8-1.6-11.6-2.4-17.4c-0.4-3.2-5.3-1.8-4.8,1.3l2.2,15.8
		c-5.4-0.3-10.7-0.6-16.1-1.1c0-0.3,0.1-0.6,0-0.9c-1-5-1.1-10.1-0.3-15.2c0.5-3.1-4.3-4.5-4.8-1.3c-0.9,5.7-0.8,11.3,0.2,17
		c-4-0.4-8-0.8-12-1.3c-1-0.1-2-0.3-3.1-0.4c0,0,0,0,0-0.1c0.8-4.8,1.2-9.6,1.3-14.5c0.1-3.2-4.9-3.2-5,0c-0.1,4.4-0.5,8.8-1.2,13.1
		c0,0.3,0,0.5,0,0.7c-4.5-0.7-9-1.4-13.4-2.2c1.3-3.9,2.6-7.7,3.9-11.6c1-3.1-3.8-4.4-4.8-1.3c-1.3,4-2.7,8-4,11.9
		c-5.6-1.2-11.2-2.9-15.7-6.7c-2.5-2-6,1.5-3.5,3.5c10.6,8.8,26,9.7,39.1,11.6c13.5,1.9,27.2,3.2,40.8,3.8c0.6,0.4,1.4,0.4,2.1,0.1
		c1.2,0,2.3,0.1,3.5,0.1c31.6,1,63.1-1.6,94.1-7.4C382,391.1,380.7,386.3,377.5,386.9z" style="fill:#FFFFFF;"/>
	<path d="M183.9,269.7c-3.6,0.4-9.4-5.3-12.3-7.2c-4.1-2.7-8.1-5.5-12.2-8.2c-7.9-5.3-15.7-10.5-23.6-15.8
		c-2.7-1.8-5.2,2.5-2.5,4.3c8.9,6,17.9,12,26.8,18c4.3,2.9,8.7,5.8,13,8.7c3.2,2.1,6.7,5.6,10.7,5.2
		C187.1,274.3,187.1,269.3,183.9,269.7z" style="fill:#FFFFFF;"/>
	<path d="M496.4,447.5c-5.7-19.1-11.4-38.2-17.6-57.1c-1-3-5.8-1.7-4.8,1.3c6.5,19.9,12.5,40,18.5,60
		c0.3,1,1.3,1.9,2.4,1.8c2.3,0,3.1-1.7,3.4-3.7C498.4,448.4,497.5,447.6,496.4,447.5z" style="fill:#FFFFFF;"/>
	<path d="M164.8,283.8c-0.3,3.4-1.6,6.4-3.6,9.2c-1.9,2.6,2.5,5.1,4.3,2.5c2.5-3.5,3.9-7.4,4.3-11.7
		C170.1,280.6,165.1,280.6,164.8,283.8z" style="fill:#FFFFFF;"/>
	<path d="M151.1,281.7c-1.1,4.1-2.2,8.3-3.4,12.4c-0.8,3.1,4,4.4,4.8,1.3c1.1-4.1,2.2-8.3,3.4-12.4
		C156.8,280,152,278.6,151.1,281.7z" style="fill:#FFFFFF;"/>
	<path d="M159.9,316.2c-0.5-1.6-0.7-3.3-0.4-4.9c0.2-1.3-0.3-2.7-1.7-3.1c-1.2-0.3-2.9,0.4-3.1,1.7
		c-0.4,2.6-0.3,5.1,0.4,7.6C156,320.6,160.9,319.3,159.9,316.2z" style="fill:#FFFFFF;"/>
	<path d="M454.5,408.6c-3.1,0.1-6.1,0.9-8.8,2.5c-2.8,1.6-0.3,5.9,2.5,4.3c2-1.1,4-1.7,6.3-1.8
		C457.7,413.5,457.7,408.5,454.5,408.6z" style="fill:#FFFFFF;"/>
	<path d="M429.8,405.4c-1.6,0.5-3.2,0.8-4.9,0.5c-1.3-0.2-2.7,0.3-3.1,1.7c-0.3,1.2,0.4,2.9,1.7,3.1
		c2.6,0.4,5.1,0.3,7.6-0.5C434.1,409.3,432.8,404.4,429.8,405.4z" style="fill:#FFFFFF;"/>
	<path d="M441.5,419.3c-1.2,0.6-2.6,0.6-3.7,0.1c-1.2-0.6-2.7-0.3-3.4,0.9c-0.6,1.1-0.3,2.8,0.9,3.4
		c2.9,1.4,5.9,1.4,8.8-0.1C446.9,422.2,444.4,417.9,441.5,419.3z" style="fill:#FFFFFF;"/>
	<path d="M257.5,252.7c-1.2-0.6-2.7-0.3-3.4,0.9L252,257c-0.7,1.1-0.3,2.8,0.9,3.4c1.2,0.6,2.7,0.3,3.4-0.9
		c0.7-1.1,1.4-2.3,2.1-3.4S258.7,253.4,257.5,252.7z" style="fill:#FFFFFF;"/>
	<path d="M245.3,242.6c-0.8-1.2-2.2-1.5-3.4-0.9c-0.9,0.5-1.8,0.9-2.8,1.4c-1.2,0.6-1.6,2.3-0.9,3.4
		c0.8,1.2,2.2,1.5,3.4,0.9c0.9-0.5,1.8-0.9,2.8-1.4C245.5,245.4,246,243.6,245.3,242.6z" style="fill:#FFFFFF;"/>
	<path d="M251.1,222.1c-1.9-2.3-4.9-3.6-8-3.5c-3.2,0.1-3.2,5.1,0,5c1.8-0.1,3.3,0.7,4.4,2.1c0.9,1,2.6,0.9,3.5,0
		C252.1,224.6,251.9,223.2,251.1,222.1z" style="fill:#FFFFFF;"/>
	<path d="M271,234.2c-0.4-1.4-1.7-2-3.1-1.7c-0.1,0-0.1,0-0.1,0s0,0-0.1,0s-0.2,0-0.4,0c-0.1,0-0.3-0.1-0.4-0.1
		c-0.1-0.1-0.4-0.2-0.5-0.3c-1.1-0.7-2.8-0.3-3.4,0.9c-0.7,1.2-0.3,2.7,0.9,3.4c1.6,1,3.5,1.3,5.4,0.9
		C270.5,237,271.4,235.4,271,234.2z" style="fill:#FFFFFF;"/>
	<path d="M329.8,307.1c-0.8-3.1-5.6-1.8-4.8,1.3c0.9,3.5,1.6,10.6-3.6,11.4c-3.7,0.5-5.9-4.1-6.6-7.1
		c-0.7-3.1-5.6-1.8-4.8,1.3c1.4,5.7,6.2,12.1,12.8,10.6C330.8,322.8,331.4,313.6,329.8,307.1z" style="fill:#4A3B2A;"/>
	<path d="M286.7,338.9c-3.9,1.2-8.8,1.7-11.6-1.9c-1.1-1.4-1.8-3.3-0.9-5c0.8-1.7,3-2.5,4.6-1.7
		c2.8,1.5,5.4-2.8,2.5-4.3c-6.5-3.5-13.9,2.8-12.3,9.8c2,8.6,11.7,10.2,18.9,7.9C291.1,342.8,289.8,338,286.7,338.9z" style="fill:#4A3B2A;"/>
	<path d="M361.1,307.6c-1.3-1.4-2.7-2.8-4-4.2c-0.9-1-2.6-0.9-3.5,0c-1,1-0.9,2.6,0,3.5c1.3,1.4,2.7,2.8,4,4.2
		c0.9,1,2.6,0.9,3.5,0C362.1,310.1,362.1,308.6,361.1,307.6z" style="fill:#4A3B2A;"/>
	<path d="M362.5,327.9c-1.1-2.7-2.6-5.2-4.3-7.5c-0.8-1.1-2.2-1.6-3.4-0.9c-1.1,0.6-1.7,2.3-0.9,3.4
		c1.8,2.3,3.2,4.8,4.3,7.5c0.5,1.2,2.4,1.5,3.4,0.9C362.9,330.6,363,329.1,362.5,327.9z" style="fill:#4A3B2A;"/>
	<path d="M373,330.6c-0.3-1.8-0.6-3.7-0.9-5.5c-0.2-1.3-1.9-2.1-3.1-1.7c-1.4,0.4-2,1.7-1.7,3.1
		c0.3,1.8,0.6,3.7,0.9,5.5c0.2,1.3,1.9,2.1,3.1,1.7C372.7,333.3,373.2,332,373,330.6z" style="fill:#4A3B2A;"/>
	<path d="M235.8,348.5c-0.2-1.3-1.9-2.1-3.1-1.7c-1.4,0.4-2,1.7-1.7,3.1c0.2,0.9,0.1,2-0.3,2.9
		c-0.6,1.2-0.4,2.7,0.9,3.4c1.1,0.6,2.9,0.3,3.4-0.9C236,353.1,236.3,350.9,235.8,348.5z" style="fill:#4A3B2A;"/>
	<path d="M241.8,326.1c-1.2-0.3-2.8,0.4-3.1,1.7c-0.3,1.6-0.6,3.2-0.8,4.8c-0.2,1.3,0.4,2.7,1.7,3.1
		c1.2,0.3,2.8-0.4,3.1-1.7c0.3-1.6,0.6-3.2,0.8-4.8C243.8,327.9,243.2,326.5,241.8,326.1z" style="fill:#4A3B2A;"/>
	<path d="M244.7,346.4v6.9c0,3.2,5,3.2,5,0v-6.9C249.7,343.2,244.7,343.2,244.7,346.4z" style="fill:#4A3B2A;"/>
	<path d="M224.1,325.8c-0.7,2.1-1.4,4.1-2,6.2c-1,3.1,3.8,4.4,4.8,1.3c0.7-2.1,1.4-4.1,2-6.2
		C229.9,324,225.1,322.7,224.1,325.8z" style="fill:#4A3B2A;"/>
</g>
</svg>
