<?xml version="1.0" encoding="utf-8"?>
<svg fill="#ebebeb" viewBox="0 0 24 24" xmlns="http://www.w3.org/2000/svg">
    <path
        d="M 3.3828125 2 L 7.2871094 9.8105469 C 5.8809547 11.086079 5 12.92712 5 15 C 5 18.9 8.1 22 12 22 C 15.9 22 19 18.9 19 15 C 19 12.92712 18.119045 11.086079 16.712891 9.8105469 L 20.617188 2 L 18.382812 2 L 15.037109 8.6875 C 14.291101 8.332133 13.472606 8.1018788 12.603516 8.0292969 L 15.617188 2 L 13.382812 2 L 12 4.7636719 L 10.617188 2 L 8.3828125 2 L 11.396484 8.0292969 C 10.527394 8.1018788 9.7088994 8.332133 8.9628906 8.6875 L 5.6171875 2 L 3.3828125 2 z M 12 10 C 14.8 10 17 12.2 17 15 C 17 17.8 14.8 20 12 20 C 9.2 20 7 17.8 7 15 C 7 12.2 9.2 10 12 10 z M 12.046875 12 C 10.272875 12 9.981 13.401 10 14 L 11.173828 14 C 11.173828 13.857 11.309 13 12 13 C 12.663 13 12.791016 13.523156 12.791016 13.785156 C 12.791016 14.551156 11.745 15.262266 10 17.197266 L 10 18 L 13.988281 17.976562 L 13.986328 17.033203 L 11.728516 17.033203 C 13.342516 15.379203 14 14.630875 14 13.671875 C 14 12.986875 13.614875 12 12.046875 12 z" />
</svg>
