<?xml version="1.0" encoding="UTF-8"?>
<svg fill="#ebebeb" version="1.1" viewBox="0 0 24 24" xmlns="http://www.w3.org/2000/svg">
    <g fill="#ebebeb" id="surface1">
        <path style=" "
            d="M 12.0625 2.03125 C 11.925781 2.03125 11.789063 2.042969 11.6875 2.09375 L 2.6875 6.09375 L 2.5 6.09375 C 2.101563 6.394531 2 6.789063 2 7.1875 L 2 17 C 2 17.398438 2.195313 17.804688 2.59375 17.90625 L 11.59375 21.90625 L 12.1875 21.90625 L 21.1875 17.90625 C 21.585938 17.707031 21.8125 17.398438 21.8125 17 L 21.8125 7.1875 C 22.113281 6.789063 21.894531 6.386719 21.59375 6.1875 L 21.5 6.09375 L 12.5 2.09375 C 12.351563 2.042969 12.199219 2.03125 12.0625 2.03125 Z M 12 4.09375 L 18.5 7 L 12 9.90625 L 5.5 7 Z M 12 6.3125 C 11.171875 6.3125 10.5 6.613281 10.5 7 C 10.5 7.386719 11.171875 7.6875 12 7.6875 C 12.828125 7.6875 13.5 7.386719 13.5 7 C 13.5 6.613281 12.828125 6.3125 12 6.3125 Z M 4 8.5 L 7.1875 10 L 11 11.6875 L 11 19.5 L 4 16.40625 Z M 20 8.5 L 20 16.3125 L 13 19.5 L 13 11.6875 L 16.8125 10 Z M 5.25 9.8125 C 5.128906 9.792969 4.992188 9.800781 4.875 9.84375 C 4.40625 10.015625 4.210938 10.660156 4.4375 11.28125 C 4.664063 11.902344 5.25 12.296875 5.71875 12.125 C 6.1875 11.953125 6.382813 11.308594 6.15625 10.6875 C 5.984375 10.21875 5.617188 9.875 5.25 9.8125 Z M 18.09375 10.9375 C 17.726563 11 17.390625 11.34375 17.21875 11.8125 C 16.992188 12.433594 17.1875 13.078125 17.65625 13.25 C 18.125 13.421875 18.679688 13.027344 18.90625 12.40625 C 19.132813 11.785156 18.9375 11.140625 18.46875 10.96875 C 18.351563 10.925781 18.214844 10.917969 18.09375 10.9375 Z M 7.25 12.8125 C 7.128906 12.792969 6.992188 12.800781 6.875 12.84375 C 6.40625 13.015625 6.210938 13.660156 6.4375 14.28125 C 6.664063 14.902344 7.25 15.296875 7.71875 15.125 C 8.1875 14.953125 8.382813 14.308594 8.15625 13.6875 C 7.984375 13.21875 7.617188 12.875 7.25 12.8125 Z M 14.90625 15.03125 C 14.546875 15.078125 14.1875 15.382813 14.03125 15.8125 C 13.824219 16.382813 14.03125 16.984375 14.5 17.15625 C 14.96875 17.328125 15.511719 16.976563 15.71875 16.40625 C 15.925781 15.835938 15.71875 15.234375 15.25 15.0625 C 15.132813 15.019531 15.027344 15.015625 14.90625 15.03125 Z M 9.75 15.8125 C 9.628906 15.792969 9.492188 15.800781 9.375 15.84375 C 8.90625 16.015625 8.710938 16.660156 8.9375 17.28125 C 9.164063 17.902344 9.75 18.296875 10.21875 18.125 C 10.6875 17.953125 10.882813 17.308594 10.65625 16.6875 C 10.484375 16.21875 10.117188 15.875 9.75 15.8125 Z "
            fill="#ebebeb" />
    </g>
</svg>
