<?xml version="1.0" encoding="utf-8"?>
<svg fill="#ebebeb" viewBox="0 0 24 24" xmlns="http://www.w3.org/2000/svg">
    <path
        d="M 4 2 C 3.905 2 3.8156094 2.0143438 3.7246094 2.0273438 C 3.4346094 2.1433438 3.1397031 2.2570938 2.8457031 2.3710938 C 2.3347031 2.7330938 2 3.326 2 4 L 2 18 L 4 18 L 4 4 L 18 4 L 18 2 L 4 2 z M 8 6 C 6.895 6 6 6.895 6 8 L 6 20 C 6 21.105 6.895 22 8 22 L 20 22 C 21.105 22 22 21.105 22 20 L 22 8 C 22 6.895 21.105 6 20 6 L 8 6 z M 17 8.0019531 C 17.768 8.0019531 18.536094 8.2939062 19.121094 8.8789062 C 19.688094 9.4449063 20 10.199 20 11 C 20 11.801 19.688094 12.554094 19.121094 13.121094 L 17.224609 15.017578 L 15.810547 13.603516 L 17.707031 11.707031 C 17.896031 11.518031 18 11.267 18 11 C 18 10.733 17.896031 10.481969 17.707031 10.292969 C 17.316031 9.9019687 16.683969 9.9029688 16.292969 10.292969 L 14.390625 12.195312 L 15.804688 13.609375 L 13.800781 15.613281 L 15.214844 17.027344 L 13.119141 19.121094 C 12.554141 19.687094 11.801 20 11 20 C 10.199 20 9.4449063 19.688094 8.8789062 19.121094 C 8.3129063 18.555094 8 17.801 8 17 C 8 16.199 8.3129062 15.445906 8.8789062 14.878906 L 10.972656 12.785156 L 12.386719 14.199219 L 14.369141 12.216797 L 12.955078 10.802734 L 14.878906 8.8789062 C 15.463906 8.2939062 16.232 8.0019531 17 8.0019531 z M 12.373047 14.212891 L 10.292969 16.292969 C 10.103969 16.481969 10 16.733 10 17 C 10 17.267 10.103969 17.518031 10.292969 17.707031 C 10.671969 18.086031 11.328031 18.085031 11.707031 17.707031 L 13.787109 15.626953 L 12.373047 14.212891 z"
        fill="#ebebeb" />
</svg>
