<?xml version="1.0" encoding="utf-8"?>
<svg xmlns="http://www.w3.org/2000/svg" viewBox="0 0 24 24" fill="#ebebeb"><path style="line-height:normal;text-indent:0;text-align:start;text-decoration-line:none;text-decoration-style:solid;text-decoration-color:#000;text-transform:none;block-progression:tb;isolation:auto;mix-blend-mode:normal" d="M 7.6289062 3.0429688 L 6.2148438 4.4570312 L 11.095703 9.3378906 L 2.7363281 17.697266 C 1.7543281 18.680266 1.7533281 20.279719 2.7363281 21.261719 C 3.2123281 21.738719 3.8465313 22 4.5195312 22 C 5.1925313 22 5.8247813 21.737719 6.3007812 21.261719 L 14.660156 12.902344 L 18.585938 16.828125 L 19.292969 16.121094 L 22.824219 12.589844 L 18.919922 8.6445312 L 20.28125 7.28125 L 19.662109 6.6621094 L 17.337891 4.3378906 L 16.71875 3.71875 L 15.373047 5.0625 L 13.375 3.0429688 L 7.6289062 3.0429688 z M 9.6289062 5.0429688 L 12.539062 5.0429688 L 20.003906 12.582031 L 18.585938 14 L 9.6289062 5.0429688 z" font-weight="400" font-family="sans-serif" white-space="normal" overflow="visible" fill="#ebebeb"/></svg>
