<?xml version="1.0" encoding="UTF-8"?>
<svg fill="#ebebeb" version="1.1" viewBox="0 0 24 24" xmlns="http://www.w3.org/2000/svg">
    <g fill="#ffffff" id="surface1">
        <path style=" "
            d="M 5 2 L 5 4 L 19 4 L 19 2 Z M 12 4 L 9 8 L 11 8 L 11 16 L 9 16 L 12 20 L 15 16 L 13 16 L 13 8 L 15 8 Z M 12 20 L 5 20 L 5 22 L 19 22 L 19 20 Z M 6 5 C 5.449219 5 5 5.449219 5 6 C 5 6.550781 5.449219 7 6 7 C 6.550781 7 7 6.550781 7 6 C 7 5.449219 6.550781 5 6 5 Z M 18 5 C 17.449219 5 17 5.449219 17 6 C 17 6.550781 17.449219 7 18 7 C 18.550781 7 19 6.550781 19 6 C 19 5.449219 18.550781 5 18 5 Z M 6 9 C 5.449219 9 5 9.449219 5 10 C 5 10.550781 5.449219 11 6 11 C 6.550781 11 7 10.550781 7 10 C 7 9.449219 6.550781 9 6 9 Z M 18 9 C 17.449219 9 17 9.449219 17 10 C 17 10.550781 17.449219 11 18 11 C 18.550781 11 19 10.550781 19 10 C 19 9.449219 18.550781 9 18 9 Z M 6 13 C 5.449219 13 5 13.449219 5 14 C 5 14.550781 5.449219 15 6 15 C 6.550781 15 7 14.550781 7 14 C 7 13.449219 6.550781 13 6 13 Z M 18 13 C 17.449219 13 17 13.449219 17 14 C 17 14.550781 17.449219 15 18 15 C 18.550781 15 19 14.550781 19 14 C 19 13.449219 18.550781 13 18 13 Z M 6 17 C 5.449219 17 5 17.449219 5 18 C 5 18.550781 5.449219 19 6 19 C 6.550781 19 7 18.550781 7 18 C 7 17.449219 6.550781 17 6 17 Z M 18 17 C 17.449219 17 17 17.449219 17 18 C 17 18.550781 17.449219 19 18 19 C 18.550781 19 19 18.550781 19 18 C 19 17.449219 18.550781 17 18 17 Z "
            fill="#ffffff" />
    </g>
</svg>
