<?xml version="1.0" encoding="utf-8"?>
<svg fill="#ebebeb" viewBox="0 0 24 24" xmlns="http://www.w3.org/2000/svg">
    <path
        d="M 12 3 C 10.35499 3 9 4.3549904 9 6 C 9 7.6450096 10.35499 9 12 9 C 13.64501 9 15 7.6450096 15 6 C 15 4.3549904 13.64501 3 12 3 z M 12 5 C 12.564129 5 13 5.4358706 13 6 C 13 6.5641294 12.564129 7 12 7 C 11.435871 7 11 6.5641294 11 6 C 11 5.4358706 11.435871 5 12 5 z M 4 11 L 4 13 L 20 13 L 20 11 L 4 11 z M 12 15 C 10.35499 15 9 16.35499 9 18 C 9 19.64501 10.35499 21 12 21 C 13.64501 21 15 19.64501 15 18 C 15 16.35499 13.64501 15 12 15 z M 12 17 C 12.564129 17 13 17.435871 13 18 C 13 18.564129 12.564129 19 12 19 C 11.435871 19 11 18.564129 11 18 C 11 17.435871 11.435871 17 12 17 z"
        fill="#ffffff" />
</svg>
