<?xml version="1.0" encoding="utf-8"?>
<!-- Generator: Adobe Illustrator 20.1.0, SVG Export Plug-In . SVG Version: 6.00 Build 0)  -->
<svg version="1.1" id="Capa_1" xmlns="http://www.w3.org/2000/svg" x="0px"
     y="0px" viewBox="0 0 800 600" style="enable-background:new 0 0 800 600;" xml:space="preserve">

<g>
	<g>
		<path d="M496.5,469.7c-2.6-0.2-5.3-0.3-7.9-0.5c2.6-2.1,4.4-4.8,5.3-8c0.4-1.4-1.2-3.2-3.1-2.6
			c-1.4,0.5-2.9,0.9-4.3,1.4c2.2-3.5,3.2-7.3,1.1-11.4c-0.7-1.4-2.8-1.2-3.9-0.4c-7.1,4.6-14.1,9.3-21.2,13.9
			c-0.1,0-0.1,0.1-0.1,0.1c-2.4-0.3-4.3,2-4.6,4.4c-0.6,5.2,0.3,13.5,2.9,18.4c2.3,4.3,9.6,3,14.1,2.6c7.4-0.7,14.5-2.4,21.3-5
			c1.7-0.7,1.6-3,0-3.7c-2.1-0.9-4.2-1.7-6.4-2.2c2.7-1,5.4-2,8.1-3.1C500.2,472.6,498.8,469.8,496.5,469.7z"
              style="fill:#F4BFAB;"/>
        <path d="M511.1,295.4c-2.4-9.2-6.1-17.7-9.2-26.6c-3.2-9-0.3-15,4.9-22.2c3.6-4.9,7.7-10.1,7.8-16.5
			c0.1-7.5-5.6-12.9-10.6-17.7c-13.2-12.3-28.6-25.3-45.2-32.7c-6.9-3.1-14.6-4.5-21.9-1.6s-12.8,9-18.2,14.4
			c-13,13-25.3,26.7-37,40.9c-25.9,31.6-48.3,65.9-66.8,102.2c-1.5,2.9,2.9,5.4,4.3,2.5c0-0.1,0.1-0.2,0.1-0.3
			c22.6,17.7,46.4,33.8,71.5,47.7c4.5,2.5,9.4,5,14.3,2.1c5.5-3.3,9.5-10,13.6-14.7c9.8-11.5,19.6-23,29.5-34.4
			c6.3,11.5,17.1,21,30.3,23c13.1,1.9,27.6-3.9,33.8-16C519.9,330.5,515.1,310.7,511.1,295.4z"
              style="fill:#F4BFAB;"/>
        <path d="M531.4,215.7c5.8-1.8,11.2-5.2,8-10.9c-1.9-3.5-5.8-4.9-10.1-5.3c5-5.4,9-12.1,2.5-15.3
			c-4.1-2-10.8,0.8-14.6,2.3c-0.5,0.2-1,0.5-1.5,0.7c3.5-6.1,4.9-12.3-1.6-14.3c-5.1-1.6-10.9,1.5-15.3,3.8
			c-1.1,0.6-2.2,1.3-3.3,1.9c1-2.1,1.9-4.3,2.6-6.6c1.4-4.9,2.8-12.4-3-15c-4.9-2.2-10.5,1.1-14.3,4c-2.8,2.2-5.4,4.7-7.6,7.4
			c0.2-3.7,0-7.4-0.5-11.1c-0.6-4.6-1-13.6-7.3-13.6c-5.2,0.1-10.4,4.7-13.3,8.6c-2.1,2.8-3.6,6-4.7,9.3c-0.7-2.4-1.5-4.8-2.5-7.1
			c-1.5-3.5-4-10.5-9.2-8.8c-4.3,1.4-6.1,8.6-7,12.3c-1.1,4.4-1.5,8.8-1.2,13.2c-3.9-3.3-7.9-6.5-12.2-9.2c-3.7-2.4-9.1-4-12.3,0.1
			c-4.8,6.2,1.8,14,8.1,19.3c-3.4,1.4-6.5,3.5-9.4,6c-3.1,2.6-5.8,5.6-8.4,8.7c-2.2,2.6-4.9,5.5-6,8.8c-2.1,6.6,3.6,9.5,9.3,8.1
			c6.3-1.5,12.4-4.2,18.1-7.6c-2.2,5.2-4.1,10.5-5.6,16c-1.2,4.5-3.2,11.8,2,14.7c5.9,3.3,10.8-4,13.8-7.9c2.8-3.6,5.4-7.3,8-11.1
			c-0.5,4.4-0.9,8.8-0.7,13.2c0.1,4.4,0,13.7,6.1,14.4c5.9,0.6,10-7.5,12.4-11.6c2.2-3.7,4.1-7.6,5.7-11.6c0.9,5.1,1.9,10.3,3,15.4
			c1,4.6,1.9,12.5,7.6,14c5.3,1.3,9.1-5.5,11.2-9.2c0.3-0.6,0.7-1.2,1-1.9c0.1,0.8,0.3,1.5,0.4,2.3c0.9,4.1,2.2,12.5,7.3,13.6
			c4.4,0.9,8.1-4.4,10.2-7.5c0.4-0.6,0.8-1.2,1.1-1.9c1.8,8.1,6.1,15,15.8,15.7c5.3,0.4,10.3-2.3,12.2-7.4c1.7-4.5,0.8-9.4-1.2-13.7
			c7.5,0.5,16.1-1.1,17.4-9.8C543.4,224.4,537.7,219.1,531.4,215.7z" style="fill:#4A3B2A;"/>
        <path d="M471.4,457.8c-0.3-0.9-1.3-1.6-2.4-1.6c-9.1,0.3-18.1,0.3-27.2,0c-2.2-0.1-4.4-0.2-6.6-0.3
			c-3-29.3-5.2-58.7-6.6-88.1c-0.1-1.2-0.8-2-1.8-2.4c-3.9-1.5-7.9-3.1-11.8-4.6c-0.7-0.4-1.5-0.8-2.3-1.1
			c-4.1-1.9-8.3-3.6-12.4-5.4c-7.6-3.4-15.2-7-22.7-10.7c-17.3-8.6-34.1-18-50.4-28c-0.8-0.5-2.4-0.3-3,0.3
			c-38.3,39.1-59.6,89.1-59.6,139.9c-3.6,1.9-6.5,4.9-7.7,8.9c-1.4,4.3,0.1,8.6,4.6,10.1c7.2,2.3,13.1-2.5,17.2-8.3
			c13.6,3.4,27.2,6.8,40.8,10.1c16.4,4.1,32.8,8.7,49.6,11.8c16.1,3.1,32.8,4.7,49.2,6c15.8,1.3,32.1,1.6,47.4-2.5
			c6.3-1.7,10.5-3.6,10.5-9.7C476.1,474.1,474.1,465.7,471.4,457.8z" style="fill:#ED7354;"/>
        <path d="M446.9,268.7c-0.1,4.2-5.4,6.9-8.9,4.7c-3.6-2.3-3.7-7.6-1.6-10.9c1.7-2.7-2.6-5.2-4.3-2.5
			c-3.8,6-2.2,15.3,4.7,18.4c6.7,2.9,15.1-2.3,15.2-9.6C451.9,265.5,446.9,265.5,446.9,268.7z"
              style="fill:#4A3B2A;"/>
        <path d="M481.6,316.5c-0.5-2.3-1-4.6-1.5-6.9c-0.7-3.1-5.5-1.8-4.8,1.3c0.5,2.3,1,4.6,1.5,6.9
			C477.5,321,482.3,319.7,481.6,316.5z" style="fill:#4A3B2A;"/>
        <path d="M499,305.5c-1-1.8-1.5-3.6-1.5-5.6c0-3.2-5-3.2-5,0c0,2.9,0.8,5.6,2.2,8.1C496.2,310.8,500.5,308.3,499,305.5
			z" style="fill:#4A3B2A;"/>
        <path d="M493.8,319.1c-0.8-3.1-5.6-1.8-4.8,1.3c0.8,3.2,1.1,6.4,0.9,9.7c-0.1,3.2,4.9,3.2,5,0
			C495.1,326.4,494.7,322.7,493.8,319.1z" style="fill:#4A3B2A;"/>
        <path d="M503.8,336.2c-0.9-0.9-2.7-1-3.5,0c-1.7,2-3.4,4-5.1,6.1c-0.9,1-1,2.5,0,3.5c0.9,0.9,2.7,1,3.5,0
			c1.7-2,3.4-4,5.1-6.1C504.6,338.7,504.8,337.2,503.8,336.2z" style="fill:#4A3B2A;"/>
        <path d="M397.9,265c-5.6-5.9-15.6-3.4-17.9,4.3c-2.6,8.5,4.2,15.6,12.3,16.5c3.2,0.4,3.2-4.6,0-5
			c-4.6-0.5-8.6-4.3-7.7-9.1c0.9-4.7,6.4-6.7,9.8-3.1C396.6,270.8,400.1,267.3,397.9,265z"
              style="fill:#4A3B2A;"/>
        <path d="M536.2,146.7c-10.1-20.4-31.5-29.5-53.5-26.6c-27.5,3.5-48.2,23.9-65.2,44.2c-1.1,1.3-0.6,2.8,0.3,3.7
			c0,0.3,0,0.5,0.1,0.8c6.9,21.9,29.4,33.5,48.9,42.3c11.8,5.3,24.1,9.7,37,11.2c9.9,1.2,25.7,2,33.5-5.5c3.3-3.1,4.5-7.6,5.1-11.9
			c1-7.1,1.2-14.4,1.1-21.5C543.6,170.8,541.9,158.1,536.2,146.7z" style="fill:#ED7354;"/>
        <path d="M426.5,375.9c-40.5-6.4-78.5-24.6-108.7-52.4c-2.4-2.2-5.9,1.4-3.5,3.5c30.8,28.3,69.6,47.2,110.9,53.7
			C428.3,381.2,429.7,376.4,426.5,375.9z" style="fill:#FFFFFF;"/>
        <path d="M464.2,494.7c-2.5-12.7-4.4-25.5-5.4-38.4c-0.3-3.2-5.3-3.2-5,0c1.1,13.3,3,26.6,5.6,39.7
			C460,499.2,464.8,497.8,464.2,494.7z" style="fill:#FFFFFF;"/>
        <path d="M440.8,452.3c-29.3,2.2-58.7-0.5-87-8.2c-6.7-1.8-13.5-3.8-20-6.4c-3.6-1.4-7.3-3.1-8.5-7
			c-1.1-3.4-0.3-7.3,0-10.8c1.5-15.9,3.1-31.7,4.7-47.6c0.3-3.2-4.7-3.2-5,0c-1.7,17.5-4.5,35.2-5.2,52.8
			c-0.2,5.7,1.2,10.9,6.1,14.3c5.6,3.8,13.1,5.5,19.5,7.4c30.9,9.3,63.3,12.8,95.5,10.4C444,457,444,452,440.8,452.3z"
              style="fill:#FFFFFF;"/>
        <path d="M349.7,298.6c-0.9,1.6-1.7,3.1-2.6,4.7c-1.6,2.8,2.8,5.3,4.3,2.5c0.9-1.6,1.7-3.1,2.6-4.7
			C355.6,298.3,351.2,295.8,349.7,298.6z" style="fill:#FFFFFF;"/>
        <path d="M363.8,298.7c-1.1,2.2-2.3,4.4-3.4,6.6c-1.5,2.9,2.8,5.4,4.3,2.5c1.1-2.2,2.3-4.4,3.4-6.6
			C369.6,298.4,365.3,295.9,363.8,298.7z" style="fill:#FFFFFF;"/>
        <path d="M363.5,275c-1.3-0.4-2.7,0.5-3.1,1.7l-1.7,5.2c-0.4,1.3,0.5,2.7,1.7,3.1c1.3,0.4,2.7-0.5,3.1-1.7
			c0.6-1.7,1.1-3.5,1.7-5.2C365.6,276.7,364.8,275.3,363.5,275z" style="fill:#FFFFFF;"/>
        <path d="M539.5,199.2c-3.7-0.1-7.4-0.2-11.1-0.5c0.1-0.2,0.1-0.5,0.1-0.8c0.3-13.7,0-27.8-2.5-41.4
			c-2.1-11.6-6.8-22.9-16.2-30.4c-0.2-0.2-0.4-0.3-0.7-0.4c-1-1-2.4-1.6-4.5-1.7c-12.7-0.6-26.6,3-38.4,7.6
			c-12,4.7-23,11.3-32.9,19.7c-0.3-0.4-0.5-0.9-0.8-1.3c-1.6-2.8-5.9-0.3-4.3,2.5c1.9,3.2,3.9,6.3,6.1,9.1c-5,4.2-9.4,9-13.2,14.3
			c-1.9,2.6,2.5,5.1,4.3,2.5c3.5-4.8,7.5-9.1,12-13c2.7,3.2,5.6,6.1,8.7,8.8c0,0.2,0.1,0.4,0.2,0.6c-4.3,5.3-8.6,10.6-12.9,15.9
			c-2,2.5,1.5,6,3.5,3.5c4.5-5.5,8.9-11,13.4-16.5c2.8,2.2,5.8,4.2,8.8,6.1c-4.2,5-8.1,10.4-11.5,16c-1.7,2.8,2.7,5.3,4.3,2.5
			c3.3-5.4,6.9-10.6,11-15.4c0.2-0.2,0.3-0.4,0.4-0.6c2.7,1.5,5.6,2.9,8.5,4.2c-2.6,5.3-5.2,10.6-7.7,15.8c-1.4,2.9,2.9,5.4,4.3,2.5
			c2.7-5.5,5.3-10.9,8-16.4c3,1.2,6.1,2.3,9.2,3.3l-3.8,17.4c-0.7,3.1,4.1,4.5,4.8,1.3c1.3-5.8,2.5-11.5,3.8-17.3
			c2.9,0.8,5.9,1.6,8.9,2.2c-0.7,6.3-1.3,12.6-2,18.9c-0.3,3.2,4.7,3.2,5,0c0.6-6,1.3-12,1.9-17.9c3.1,0.6,6.2,1.1,9.4,1.5
			c-0.2,0.3-0.3,0.6-0.4,1c-0.8,6.4-1.2,12.9-1.1,19.4c0,3.2,5,3.2,5,0c-0.1-6.5,0.3-12.9,1.1-19.4c0-0.2,0-0.3,0-0.5
			c3.3,0.4,6.6,0.7,9.9,0.9v14.1c0,3.2,5,3.2,5,0V204c2.1,0.1,4.2,0.2,6.3,0.2C542.7,204.3,542.7,199.3,539.5,199.2z M448.6,169.8
			c-2.9-2.6-5.6-5.5-8.2-8.6c-0.2-0.4-0.5-0.8-0.9-1c-1.2-1.5-2.4-3-3.5-4.6c0.1,0,0.1-0.1,0.2-0.1c17.1-14.7,38.7-24.1,61.2-26
			c1.4-0.1,3.1-0.5,4.8-0.4C480.5,137,461.9,151.1,448.6,169.8z M474.5,186.5c-7.9-3.5-15.4-7.9-22.1-13.4c12-17,28.6-30.2,47.8-38
			c-8.5,16.8-16.4,34-23.6,51.5C475.9,186.2,475.2,186.1,474.5,186.5z M496.1,192.8c-0.1,0.3-0.2,0.6-0.2,1c-1.9-0.5-3.7-1-5.6-1.5
			c-0.6-0.6-1.5-0.8-2.3-0.7c-2.4-0.8-4.8-1.6-7.1-2.4l0,0c7.8-18.9,16.4-37.5,25.7-55.7c0.2,2,0.1,4.3,0.2,5.6
			c0.2,5.7,0,11.4-0.6,17.1C504.9,168.8,501.4,181.2,496.1,192.8z M523.5,198.4c-7.6-0.7-15.3-1.8-22.8-3.4
			c5.8-12.9,9.5-26.5,10.8-40.6c0.6-6.4,0.7-12.8,0.2-19.1c5.6,7,8.4,15.7,9.8,24.6c2,12.5,2.3,25.5,2,38.2
			C523.5,198.1,523.5,198.2,523.5,198.4z" style="fill:#FFFFFF;"/>
        <path d="M539.3,120c-5-3.8-11.9-3.5-16.8-0.2c-0.3-5.8-2.1-11.3-5.4-16.4c-1-1.5-3.4-1.7-4.3,0
			c-2.6,4.9-4,10-4.1,15.4c-6.9-3.5-18.8-8.2-19.7,0.5c-0.6,7,7.1,9.7,14.5,10.3c-4.7,4.2-8.5,9.9-3.5,14.2c3,2.5,5.8,2.4,8.1,0.9
			c0,0.2,0,0.4,0.1,0.6c0.5,3.2,2,9,5.4,10.5c4.9,2.1,7.1-3.5,7.9-9.7c1.8,1.8,4,3.3,6.5,4.3c1.5,0.6,3.3-0.9,3.2-2.4
			c-0.5-6.6-2.2-12.7-5.3-18.5c4.8-0.8,9.2-2.5,13.4-5.2C541,123.2,540.8,121.1,539.3,120z"
              style="fill:#4A3B2A;"/>
	</g>
    <path d="M439.3,300.4c-0.4-1.3-1.6-1.8-2.7-1.7c-1,0-1.9,0.6-2.4,1.7c-1.7,4.3-7.5,23.3,1.7,23.4
		C445.6,323.9,440.8,305.2,439.3,300.4z" style="fill:#4A3B2A;"/>
    <path d="M451.6,359.1c-0.4-1.3-1.6-1.8-2.7-1.7c-1,0-1.9,0.6-2.4,1.7c-1.7,4.3-7.5,23.3,1.7,23.4
		C458,382.6,453.1,363.9,451.6,359.1z" style="fill:#4A3B2A;"/>
    <path d="M433.8,394.5c-0.4-1.3-1.6-1.8-2.7-1.7c-1,0-1.9,0.6-2.4,1.7c-1.7,4.3-7.5,23.3,1.7,23.4
		C440.2,418,435.3,399.3,433.8,394.5z" style="fill:#4A3B2A;"/>
</g>
</svg>
