<?xml version="1.0" encoding="utf-8"?>
<!-- Generator: Adobe Illustrator 20.1.0, SVG Export Plug-In . SVG Version: 6.00 Build 0)  -->
<svg version="1.1" id="Capa_1" xmlns="http://www.w3.org/2000/svg" x="0px"
     y="0px" viewBox="0 0 800 600" style="enable-background:new 0 0 800 600;" xml:space="preserve">

<g>
	<path d="M374.9,466.1c-1.5-0.6-3-1.1-4.5-1.5c1.3-1,1.2-3.4-0.3-4.1c-3.7-1.8-7.4-2.9-11.2-3.5
		c2.2-1.5,4.3-3.2,6.2-5.1c1.4-1.4,0.7-3.6-1.1-4.2c-1.9-0.6-3.8-1.1-5.7-1.4c2.3-1.3,4.5-2.8,6.6-4.5c1.4-1.1,1.8-3.3,0-4.3
		c-8-4.6-17-3.8-25.8-3c-11.8,1.1-23.6,2-35.5,2.7c-4.5,0.3-9,0.5-13.5,0.7c29.9-9.8,58.4-23.5,84.8-40.7c1.7-1.1,1.3-3.3,0.1-4.3
		c0-0.2,0-0.4,0-0.6c-7.3-42.5-18-84.3-32.1-125c8,3.1,16.7,4,24.2-0.1c14.4-8,12.3-26.7,8.6-40c-4.4-16-10.2-31.8-18.4-46.2
		c-15.2-26.6-40.4-47.8-72-49.8c-33.1-2.1-56.9,22.5-70.4,50.3c-15.4,31.8-18.1,68.1-15.9,102.9c-9,1.2-14.3,9.5-17.3,17.7
		c-5,13.5-6.8,28.8-8.4,43.1c-1.8,15.2-2.6,30.4-3.3,45.6c-0.7,14.8-1.8,29.9,1.2,44.6c4.6,22.6,20.5,41.3,40.8,51.7
		c10.1,5.2,21.3,8.3,32.6,9c14.8,0.9,29.5-2,43.9-4.7c15.5-2.8,31.2-3.9,46.8-6.3c14.1-2.1,28.1-6,39.6-14.8
		C376.2,469.4,376.8,466.9,374.9,466.1z" style="fill:#F4BFAB;"/>
    <path d="M635,390.9c-0.7-15.2-1.6-30.5-3.3-45.6c-1.7-14.3-3.4-29.5-8.4-43.1c-3-8.1-8.3-16.5-17.3-17.7
		c2.3-34.8-0.4-71.2-15.9-102.9c-13.5-27.9-37.3-52.4-70.4-50.3c-31.6,2-56.8,23.2-72,49.8c-8.2,14.4-14,30.2-18.4,46.2
		c-3.7,13.3-5.8,32,8.6,40c7.5,4.2,16.1,3.2,24.2,0.1c-14,40.7-24.8,82.5-32.1,125c0,0.2,0,0.4,0,0.6c-1.2,1-1.6,3.1,0.1,4.3
		c26.4,17.2,54.9,30.9,84.8,40.7c-4.5-0.2-9-0.5-13.5-0.7c-11.8-0.7-23.6-1.6-35.5-2.7c-8.8-0.8-17.8-1.7-25.8,3
		c-1.8,1-1.4,3.2,0,4.3c2.1,1.6,4.4,3.1,6.6,4.5c-1.9,0.3-3.8,0.8-5.7,1.4c-1.8,0.6-2.5,2.8-1.1,4.2c1.9,1.9,4,3.6,6.2,5.1
		c-3.8,0.6-7.6,1.7-11.2,3.5c-1.5,0.7-1.6,3.1-0.3,4.1c-1.5,0.4-3.1,0.9-4.5,1.5c-1.9,0.8-1.3,3.3,0,4.3
		c11.5,8.8,25.5,12.6,39.6,14.8c15.6,2.3,31.3,3.5,46.8,6.3c14.5,2.6,29.2,5.6,43.9,4.7c11.4-0.7,22.5-3.8,32.6-9
		c3.6-1.8,7.1-4,10.4-6.3c2.6,5.5,9.2,8.6,15.5,5c7.9-4.5,6.8-15-0.1-19.3c7.4-8.9,12.7-19.5,15.1-31.1
		C636.8,420.8,635.7,405.7,635,390.9z" style="fill:#F4BFAB;"/>
    <path d="M350.2,162.6c-2-2.5-4.1-4.9-6.4-7.1c4.3,0.3,8.7-0.3,12.9-1.9c1.4-0.5,2.5-2.2,1.5-3.7
		c-8.9-13-22.9-21.4-38.5-23c2.9-3.3,6.7-6,7.8-10.6c1-4.3-0.7-8.9-5.3-10.1c-5.3-1.4-10.4,2.9-13.8,6.4c-3.3,3.4-6.2,7.1-8.9,11
		c-0.9-5.6-2.3-11.1-4.2-16.4c-1.6-4.4-4.2-11.5-10.1-11.2c-5.8,0.3-9.6,9.1-11.6,13.5c-2.4,5.2-3.9,10.5-4.7,16.1
		c-4-4.1-8.3-7.8-12.8-11.3c-3.1-2.4-6.4-4.6-9.8-6.6c-2.3-1.4-4.9-3.2-7.7-3c-6.3,0.5-5.9,8.8-5.3,13.3c0.5,4.1,1.9,7.9,3.9,11.4
		c-6.4-1.7-12.9-3.1-19.5-4.4c-4.5-0.9-12.6-4-16.8-0.6c-7.7,6.2,4.4,15.2,12.9,20.8c-13.9,1.7-27,7.9-37.1,17.9
		c-1.7,1.7-0.3,4,1.8,4.3c10.8,1.3,21.5,0.9,32-1.4c-5.4,6.7-10.7,13.5-15.8,20.5c-4.9,6.8-11.6,15.5-9.3,24.4
		c2.2,8.4,9.3,8.9,14.8,3.3c5.1-5.2,10-10.5,14.8-15.9c-0.3,5.3,0.4,10.6,3.9,14.9c4.6,5.7,12.1,7.4,18.2,3
		c6.1-4.4,9.9-12.3,12.5-19.2c1.2,4.8,2.9,9.5,5,14.1c0.8,1.8,3.4,1.4,4.3,0c5.5-8.4,8.9-17.8,10.1-27.4c1.1,2.8,2.3,5.6,3.6,8.4
		c2.6,5.3,7.9,13.2,15,10.6c6.7-2.5,6.3-12,6.4-17.8c0-3.9-0.2-7.7-0.7-11.6c5.8,8,13.1,14.8,21.8,20c1.2,0.7,2.7,0.2,3.4-0.9
		c4.3-6.1,5.8-13.5,4.8-20.5c3.4,2.9,7.1,5.4,11.2,7.4c5.6,2.8,16.8,8.2,22.5,3.2C363.3,177.1,353.4,166.7,350.2,162.6z"
          style="fill:#4A3B2A;"/>
    <path d="M268.4,225.9c-0.3-3.2-5.3-3.2-5,0c0.4,3.6,0.8,12.6-3.8,14c-4.9,1.5-7.1-4.9-7.6-8.5
		c-0.5-3.2-5.3-1.8-4.8,1.3c1,6.4,5.5,13.6,13.1,12.2C268.2,243.4,269.1,232.3,268.4,225.9z" style="fill:#4A3B2A;"/>
    <path d="M219.2,259.3c-0.9,2.5-3.8,3.3-6.2,2.9c-3.1-0.5-5-3.2-5.9-6c-0.8-2.3-2.1-8.3,0.8-9.7
		c2.9-1.4,8.1,1.6,10.3,3.2c2.6,1.9,5.1-2.5,2.5-4.3c-4.1-2.8-12.4-6.1-16.9-2.5c-4.1,3.2-2.8,11.5-1.2,15.7
		c1.7,4.6,5.5,8.3,10.6,8.7c4.8,0.4,9.2-2,10.9-6.6C225,257.6,220.2,256.3,219.2,259.3z" style="fill:#4A3B2A;"/>
    <path d="M335.7,235.3l-5-5c-2.3-2.3-5.8,1.3-3.5,3.5c1.7,1.7,3.3,3.3,5,5C334.4,241.1,337.9,237.6,335.7,235.3z"
          style="fill:#4A3B2A;"/>
    <path d="M348.3,227.4c-0.7-2.8-2.6-5.2-5.2-6.5c-1.2-0.6-2.7-0.3-3.4,0.9c-0.6,1.1-0.3,2.8,0.9,3.4
		c1.5,0.8,2.5,1.9,2.9,3.5C344.3,231.8,349.1,230.5,348.3,227.4z" style="fill:#4A3B2A;"/>
    <path d="M356.4,247.3c-0.3-1.9-1.4-3.7-2.8-5c-1-0.8-2.6-1.1-3.5,0c-0.9,0.9-1.1,2.6,0,3.5c0.2,0.2,0.5,0.4,0.7,0.7
		c0,0,0.1,0.1,0.1,0.1c0.1,0.2,0.2,0.3,0.3,0.5c0.1,0.1,0.1,0.3,0.2,0.4c0,0,0,0,0,0.1c0.1,0.3,0.2,0.7,0.3,1
		c0.2,1.3,1.9,2.1,3.1,1.7C356.1,250,356.7,248.7,356.4,247.3z" style="fill:#4A3B2A;"/>
    <path d="M362.3,221.4c-0.5-2.7-1.8-5.1-3.6-7.1c-2.2-2.4-5.7,1.2-3.5,3.5c1.3,1.4,2,3.1,2.3,4.9
		c0.2,1.3,1.9,2.1,3.1,1.7C362,224.1,362.5,222.7,362.3,221.4z" style="fill:#4A3B2A;"/>
    <path d="M367.7,246.2c-1-0.9-1.6-2.2-1.3-3.5c0.3-1.3-0.4-2.7-1.7-3.1c-1.2-0.3-2.8,0.4-3.1,1.7
		c-0.6,3.1,0.2,6.3,2.6,8.4C366.6,251.9,370.1,248.4,367.7,246.2z" style="fill:#4A3B2A;"/>
    <path d="M446.7,209.7c-1.6,3.1-3.1,6.1-4.7,9.2c-1.5,2.9,2.9,5.4,4.3,2.5c1.6-3.1,3.1-6.1,4.7-9.2
		C452.5,209.4,448.1,206.8,446.7,209.7z" style="fill:#4A3B2A;"/>
    <path d="M461.2,212.9c-1.1-0.6-2.8-0.3-3.4,0.9l-3,6c-0.6,1.2-0.3,2.7,0.9,3.4c1.1,0.6,2.8,0.3,3.4-0.9l3-6
		C462.7,215.1,462.4,213.6,461.2,212.9z" style="fill:#4A3B2A;"/>
    <path d="M449.1,238.8c-1.1-0.6-2.9-0.3-3.4,0.9c-1.3,3-2.6,6-3.9,9c-0.5,1.2-0.4,2.7,0.9,3.4c1.1,0.6,2.9,0.3,3.4-0.9
		c1.3-3,2.6-6,3.9-9C450.6,241,450.4,239.6,449.1,238.8z" style="fill:#4A3B2A;"/>
    <path d="M436.8,230.8c-1.3,2.7-2.6,5.4-3.9,8c-1.4,2.9,2.9,5.4,4.3,2.5c1.3-2.7,2.6-5.4,3.9-8
		C442.5,230.4,438.2,227.9,436.8,230.8z" style="fill:#4A3B2A;"/>
    <path d="M547.8,205c-0.2,3.4-1,8.4-4.7,9.6c-4.5,1.5-8-3.9-5-7.5c2-2.5-1.5-6-3.5-3.5c-4.9,6-2.1,15.4,6.1,16.2
		c8.4,0.9,11.8-7.9,12.2-14.8C553,201.7,548,201.8,547.8,205z" style="fill:#4A3B2A;"/>
    <path d="M597.5,222.3c-0.3-5.3-3.4-11.1-8.8-12.6c-5.1-1.4-9.9,2.1-10.4,7.3c-0.3,3.2,4.7,3.2,5,0
		c0.4-4.2,5.5-2.2,7.1-0.3c1.6,1.9,2.2,4.4,2.2,6.8c-0.1,2-0.6,4.2-1.8,5.9c-0.7,0.9-5.3,4.9-6,1.8c-0.7-3.1-5.5-1.8-4.8,1.3
		c1,4.5,6.3,5.5,10.1,3.8C595.2,234.1,597.8,227.7,597.5,222.3z" style="fill:#4A3B2A;"/>
    <path d="M583.8,161.6c-5.6-7.1-13.1-13.5-20.2-19.1c-6.6-5.2-14-9.8-22.2-11.9c-6.1-1.6-12.1-1.5-18.1-0.6
		c-19.1-0.5-38,5.2-53.6,16c-5.3,3-10.2,6.7-14.3,11.8c-0.9,1.1-1.9,2.4-2.8,3.7c-0.4,0.5-0.8,0.9-1.2,1.4c-0.5,0.6-0.6,1.3-0.6,1.9
		c-0.5,1.4-0.8,2.8-0.7,4.2c0.4,4,3.9,6.1,7.6,6.7c8,1.4,16.4-1.2,23.2-5.7c-1.7,7.2-1.8,14.8-0.2,22.3c0.4,1.7,3,2.6,4.2,1.1
		c7.3-9.2,14.4-18.5,21.2-28c0.3,4.5,0.9,9,1.9,13.4c0.9,4.2,1.7,12.3,7.3,12.8c4.9,0.4,7.8-5.2,9.9-8.7c2.2-3.7,4.1-7.6,5.8-11.6
		c2.3,7.5,5.9,14.5,10.6,20.9c1.1,1.5,3.3,1.7,4.3,0c4.6-7.7,7.6-16.1,9-24.9c8,10.8,23.5,27.5,31.8,12.9
		C590.3,174,588,166.9,583.8,161.6z" style="fill:#4A3B2A;"/>
    <path d="M375.7,397c-4-23.6-7.6-47.3-12.1-70.8c-3.6-19.1-8.4-38.1-16.8-55.7c-0.6-1.7-1.4-3.4-2.4-4.8
		c-0.2-0.4-0.4-0.8-0.6-1.2c-0.4-0.7-0.9-1.1-1.5-1.2c-1.7-1.4-3.8-2-6.5-1.5c-3.9,0.8-7.4,3.9-10.8,5.9c-4.2,2.5-8.6,4.7-13,6.7
		c-17.1,7.9-35.7,12.5-54.5,13.7c-21.2,1.4-42.5-1.5-62.6-8.6c-1.6-0.6-2.7,0.5-3,1.8c-0.6,0.1-1.1,0.5-1.5,1
		c-31.2,45.2-38.3,105.2-20.5,157c4.8,14,11.5,27.4,19.8,39.6c-4.9,6.9-7.1,17.9,2.4,22.2c5.5,2.5,11.2-1.2,12.3-6.2
		c31.2,15.9,67.3,7.2,99.6-1.6c0.8-0.2,1.6-0.9,1.7-1.7c2-13.8,3.5-27.6,4.3-41.5c0.2-4,1.1-8.9-1.6-12.3c8.7-4.5,17.4-9,26-13.5
		c14-6.1,27.1-14,39.1-23.6c0.5-0.4,0.7-0.8,0.8-1.2C375.3,399.2,375.9,398.2,375.7,397z M303.2,435.2c-0.4-0.1-0.7-0.2-1.1-0.3
		c0.9-0.2,1.9-0.4,2.8-0.6C304.4,434.6,303.8,434.9,303.2,435.2z" style="fill:#ED7354;"/>
    <path d="M633.1,322.8c-2.6-11.7-5.4-32.9-19.3-36.9c-7.4-2.2-15.7,2.2-22.8,4c-8.2,2-16.6,3.2-25,3.7
		c-16.6,1-33.2-0.8-49.2-5.3c-18.3-5.1-35.4-13.6-50.5-25.2c-1.5-1.2-3-0.1-3.4,1.3c-1.1-0.2-2.4,0.3-2.8,1.7
		c-13.5,38-25.1,76.6-34.5,115.8c-1.7,7.2-3.6,15.5,2.1,21.5c5.7,6,15.3,9.1,22.5,12.7c9.2,4.5,18.5,8.8,27.9,12.9
		c8.3,3.6,16.7,7.6,25.4,10.1c10.6,3,21,1.1,31.7,0c11.5-1.2,23-1.1,34.4-0.1c1.3,0.1,2.6-1.2,2.5-2.5c-0.8-14.4,0.6-28.6,4.3-42.5
		c19.3-2.6,38.5-5.7,57.6-9.4c0.6-0.1,1-0.4,1.3-0.7c1-0.1,2-0.5,3.1-1.1c0.8-0.4,1.2-1.3,1.2-2.2
		C639.4,361.1,637.3,341.8,633.1,322.8z" style="fill:#ED7354;"/>
    <path d="M546,147.3c-1-2.6-2-5.1-3-7.7c-0.5-1.3-1.7-2.1-3.1-1.7c-1.2,0.3-2.2,1.8-1.7,3.1l3,7.7
		c0.5,1.3,1.7,2.1,3.1,1.7C545.5,150,546.5,148.5,546,147.3z" style="fill:#FFFFFF;"/>
    <path d="M564.1,157.3c-2-3.6-5-6.6-8.6-8.6c-2.8-1.5-5.3,2.8-2.5,4.3c2.9,1.6,5.2,3.9,6.8,6.8
		C561.3,162.6,565.7,160.1,564.1,157.3z" style="fill:#FFFFFF;"/>
    <path d="M241,175c-0.1-1.3-1.1-2.5-2.5-2.5c-1.3,0-2.6,1.1-2.5,2.5c0.2,2.1-0.4,3.8-1.7,5.5c-0.8,1.1-0.2,2.8,0.9,3.4
		c1.3,0.8,2.6,0.2,3.4-0.9C240.3,180.7,241.2,177.8,241,175z" style="fill:#FFFFFF;"/>
    <path d="M229,167c-1.1-0.6-2.9-0.3-3.4,0.9c-1.5,3.3-3.5,6-6.3,8.3c-2.5,2.1,1.1,5.6,3.5,3.5c3-2.5,5.4-5.7,7-9.3
		C230.5,169.2,230.3,167.7,229,167z" style="fill:#FFFFFF;"/>
    <path d="M232.6,145.4h-2.9c-1.3,0-2.6,1.1-2.5,2.5c0.1,1.4,1.1,2.5,2.5,2.5h2.9c1.3,0,2.6-1.1,2.5-2.5
		C235.1,146.6,234,145.4,232.6,145.4z" style="fill:#FFFFFF;"/>
    <path d="M251.2,146.2c-1.6,1.6-3.2,3.2-4.8,4.9c-2.3,2.3,1.3,5.8,3.5,3.5c1.6-1.6,3.2-3.2,4.8-4.9
		C257,147.5,253.5,143.9,251.2,146.2z" style="fill:#FFFFFF;"/>
    <path d="M560.3,334.9c-5.7-1.4-11.4-2.8-17-4.1c-5.5-1.3-11.2-3.3-16.8-3.9c-5-0.6-11.4,2.9-10.4,8
		c-0.1,0.2-0.1,0.5-0.1,0.8c0,15.7,2.5,40.2,22.9,41.8c20.8,1.6,21.6-25.5,23.3-40.1C562.3,336.2,561.3,335.1,560.3,334.9z
		 M538.9,372.4c-16-1.6-17.8-21.4-17.9-34.3c0.9-0.7,1.3-1.9,0.5-3.1c1-1.1,2.1-2.2,3.1-3.3c1.1,0,2.2,0.2,3.3,0.5
		c1.2,0.2,2.4,0.6,3.6,0.9c3.2,0.8,6.3,1.5,9.5,2.3c5.3,1.3,10.6,2.6,15.9,3.9c-0.8,7-1.9,14-3.6,20.8
		C551.5,367.4,547.3,373.3,538.9,372.4z" style="fill:#FFFFFF;"/>
    <path d="M449.4,368.4l-2.1,10.6c-0.6,3.1,4.2,4.5,4.8,1.3c0.7-3.5,1.4-7.1,2.1-10.6
		C454.9,366.6,450.1,365.2,449.4,368.4z" style="fill:#FFFFFF;"/>
    <path d="M460.3,336.7c-1.4-0.4-2.6,0.5-3.1,1.7c-0.6,1.6-1.3,3.2-1.9,4.8c-0.5,1.3,0.5,2.7,1.7,3.1
		c1.4,0.4,2.6-0.5,3.1-1.7c0.6-1.6,1.3-3.2,1.9-4.8C462.5,338.6,461.5,337.1,460.3,336.7z" style="fill:#FFFFFF;"/>
    <path d="M471,360.9c-1.2-0.3-2.9,0.4-3.1,1.7c-0.4,2.2-0.7,4.5-1.1,6.7c-0.2,1.3,0.3,2.7,1.7,3.1
		c1.2,0.3,2.9-0.4,3.1-1.7c0.4-2.2,0.7-4.5,1.1-6.7C473,362.6,472.4,361.3,471,360.9z" style="fill:#FFFFFF;"/>
    <path d="M463.9,391.3c-0.1,1.7-0.7,3.1-1.7,4.5c-0.8,1.1-0.2,2.8,0.9,3.4c1.3,0.7,2.6,0.2,3.4-0.9c1.5-2,2.3-4.5,2.4-7
		C469,388.1,464,388.1,463.9,391.3z" style="fill:#FFFFFF;"/>
    <path d="M352.4,304.7C298.2,338.8,231.5,340,170.8,325c-3.1-0.8-4.5,4-1.3,4.8c61.9,15.3,130.1,14,185.5-20.8
		C357.7,307.3,355.2,302.9,352.4,304.7z" style="fill:#4A3B2A;"/>
    <path d="M361.5,345.9c-59.4,34-128.9,48.5-196.9,41.2c-3.2-0.3-3.2,4.7,0,5c68.9,7.4,139.3-7.4,199.5-41.8
		C366.9,348.6,364.3,344.3,361.5,345.9z" style="fill:#4A3B2A;"/>
    <path d="M232.1,422.4c-1.9-2.5-6.3,0-4.3,2.5c-1.3-1.8-3.9,0.9-5.4,1.7c-2,1.1-4,2.1-6.1,3c-3.9,1.8-8,3.2-12.2,4.4
		c-8.5,2.4-17.3,3.5-26.2,3.4c-3.2,0-3.2,5,0,5c11.9,0.1,23.7-1.8,34.8-5.9C216.3,435.1,236.5,428.2,232.1,422.4z"
          style="fill:#4A3B2A;"/>
    <path d="M254.3,440.8c-3.8,10.8-6.8,22.4-12.3,32.4c-5,9-12.6,16.1-20.2,23c-2.4,2.2,1.2,5.7,3.5,3.5
		c7.8-7.2,15.8-14.6,20.9-24c5.7-10.4,8.9-22.4,12.8-33.6C260.2,439.1,255.4,437.8,254.3,440.8z"
          style="fill:#4A3B2A;"/>
    <path d="M293.4,437.1c-1.1,19.6-5.6,38.6-13.1,56.7c-1.2,3,3.6,4.3,4.8,1.3c7.7-18.5,12.2-38,13.3-58
		C298.6,433.8,293.6,433.9,293.4,437.1z" style="fill:#4A3B2A;"/>
    <path d="M542.1,456.3c-3.9-1.3-8.2-1.3-12,0.3c-2.9,1.2-1.7,6,1.3,4.8c3.1-1.3,6.2-1.4,9.4-0.3
		C543.8,462.2,545.1,457.4,542.1,456.3z" style="fill:#4A3B2A;"/>
    <path d="M561.4,472.5c-3.1,1.7-6.5,1.7-9.8,0.5c-3-1.1-4.3,3.7-1.3,4.8c4.5,1.7,9.4,1.2,13.6-1
		C566.8,475.3,564.2,470.9,561.4,472.5z" style="fill:#4A3B2A;"/>
    <path d="M517.2,468.1h-7.7c-3.2,0-3.2,5,0,5h7.7C520.5,473.1,520.5,468.1,517.2,468.1z" style="fill:#4A3B2A;"/>
    <path d="M588,451.5c-0.3-1.2-1.8-2.3-3.1-1.7c-2.5,1-5.1,2-7.6,3.1c-1.3,0.5-2.1,1.7-1.7,3.1c0.3,1.2,1.8,2.3,3.1,1.7
		c2.5-1,5.1-2,7.6-3.1C587.5,454.1,588.4,452.9,588,451.5z" style="fill:#4A3B2A;"/>
    <path d="M443.8,451.4c-0.6-0.1-1.1-0.1-1.7,0c-0.8-0.4-0.6-1.8,0.9-4.2c3.2-0.3,3.3-5.1,0-5c-5.2,0.2-4.2-5.9,0.2-5.5
		c1.3,0.1,2.5-1.2,2.5-2.5c-0.1-6.7-0.6-13.4-1.4-20.1c-0.2-1.4-1-2.4-2.5-2.5c-25.1-2.1-50.1-4.1-75.2-6.2
		c-5.9-0.5-11.9-1-17.8-1.5c-4.1-0.3-10.3-2.1-14,0.6c-2.9,2.1-3,6-3.3,9.3c-0.6,6.4-1.2,12.7-1.8,19.1c-0.1,1.5,0.8,2.2,2,2.4
		c0.4,1,1.3,1.9,2.4,1.8c10.6-1.1,21,0.5,30.8,4.6c-0.5,0.4-1.1,0.7-2,0.6c-3.2-0.2-3.2,4.8,0,5c0,1.4,0,2.8,0,4.2
		c-0.8,0.2-1.3,0.6-1.5,1.1c-0.6,0.7-1.2,1.4-1.9,2.1c-1.9,2.1,0.5,5.2,3,3.9c4.3-2.1,7.8,1.9,9.9,5.4c-0.2,1.2,0.3,2.6,1.7,2.9
		c1.5,0.3,2.8,0.8,4,1.5c-2.1,1.9-4.5,3-7.6,3.4c-2.8,0.4-2.1,5.2,0.7,4.9c20.6-1.8,41.2-2.7,61.8-2.6c2.5,0,3.3-3.4,1.3-4.7
		c-0.7-0.4-1.4-0.9-2.1-1.4c-1.5-0.8-1.8-2.1-1-4.1c1.4,0.8,3.2,0.1,3.7-1.5c1-3.5,3.6-5.5,6.9-5.9c0.6,0.1,1.2,0.1,1.9,0
		C447,456,447.1,451.7,443.8,451.4z" style="fill:#4A3B2A;"/>
    <path d="M441.1,416.8l-26.7,12c-4.2,1.9-8.3,3.7-12.5,5.6c-3.4,1.5-6.3,3.7-10.2,2.4c-1.9-0.7-3.7-2.2-5.5-3.2
		c-16.7-9.8-33.2-19.7-49.6-30c-2.7-1.7-5.3,2.6-2.5,4.3c9.2,5.7,18.4,11.4,27.6,16.9c9.1,5.5,18.4,12,28.1,16.5
		c3.2,1.5,5.8,1.3,9-0.1c4.9-2.1,9.7-4.4,14.5-6.6l30.3-13.7C446.5,419.8,444,415.4,441.1,416.8z"
          style="fill:#FFFFFF;"/>
    <path d="M375.1,462.9c2.2-1.9,3.5-4.1,2.5-6.6c-1-2.4-3.6-2.6-5.9-2.3c-1.1,0.2-2.3,0.3-3.4,0.5
		c2.3-1.6,3.8-3.7,3.5-6.4c-0.4-3.2-3.4-4.4-6.3-4.2c-0.1,0-0.1,0-0.2,0c0.8-0.7,1.5-1.6,2-2.6c0.4-0.8,0.5-1.8,0-2.5
		c-3.1-4.6-9.6-5.4-14.8-5.4c-7.9-0.1-15.8,1.1-23.4,2.8c-3.1,0.7-1.8,5.5,1.3,4.8c5.9-1.3,11.9-2.2,18-2.5c1.3-0.1,2.9-0.2,4.7-0.2
		c0,0.6,0.1,1.2,0.6,1.8c0.3,0.3,1.1,0.9,1.7,1.4c-1.3,1.2-2.8,2.1-4.2,3.2c-1.6,1.2-1.4,3.6,0.1,4.4c0.4,1.1,1.5,2.1,3,1.8
		c1.4-0.3,2.8-0.5,4.3-0.8c0,0.3,0.1,0.5,0.1,0.8c-1.9,1.5-3.9,3.1-5.8,4.6c-2,1.6,0.2,4.9,2.4,4.2c0.2-0.1,0.4-0.1,0.6-0.2
		c0.4,1,1.5,1.9,2.9,1.6c0.5-0.1,2.9-0.6,5.6-1.1c0,0.7,0.2,1.4,0.6,1.8c-0.6,0.4-1.2,0.7-1.9,1c-2.8,1.2-0.7,5,1.9,4.6
		c0.2,0,0.4-0.1,0.6-0.1c0.5,0.7,1.4,1.2,2.5,1c2.3-0.3,5.4,0.1,7.7-0.5c-0.8,0.5-1.7,1.2-2.3,1.4c-3.9,1.5-8.4,1.8-12.6,2.4
		c-0.1,0-0.2,0-0.3,0c-0.3,0.1-0.6,0.1-0.9,0.2c-3.2,0.6-1.8,5.3,1.3,4.8c6-1,18.4-1.1,21.2-8.2C384.1,464,379.8,462.9,375.1,462.9z
		" style="fill:#F4BFAB;"/>
    <path d="M456.3,434.7c-6.1,0.2-16.1-1.5-20.6,3.9c-0.9,1-1,2.5,0,3.5c1,1,2,1.7,3.1,2.3c-2.3,0.6-5.1,1.7-4.8,4.2
		c0.3,2.6,3.9,4.3,6.2,5.2c-1.2,0.1-2.5,0.3-3.7,0.5c-2.6,0.4-5.9,1.5-6.6,4.4c-0.4,1.9,0.3,3.1,1.8,4c-3.3,0.5-5.8,2-5.1,5.4
		c0.6,3.2,4.9,4.6,7.5,5.9c3.7,1.8,7.6,3,11.7,3.3c3.2,0.2,3.2-4.8,0-5c-4.8-0.3-8.5-2.6-12.7-4.5c0.3,0,0.6,0,0.8,0
		c1.2,0,2.4,0,3.6,0c2.4,0.1,4.8,0.2,7.2,0.4c2.3,0.2,2.9-2.4,1.9-3.9c0.6-0.1,1.1-0.1,1.5-0.2c3.2-0.4,1.8-5.3-1.3-4.8
		c-2.1,0.3-4.3,0.4-6.4,0.2c-0.7-0.1-2-0.1-3.3-0.3c1.9-0.3,4.3-0.4,4.6-0.5c2.9-0.2,5.7-0.2,8.5,0c2,0.1,2.8-1.8,2.2-3.3
		c2.3-0.7,2.1-4.8-0.8-4.9c-1.5,0-3.7,0-5.9-0.3c0.1-0.4,0.2-0.8,0.1-1.2c0.6,0,1.2-0.1,1.7-0.1c1.8,0,3.6,0.1,5.3,0.1
		c2.8,0,3.5-4.3,0.7-4.9c-0.4-0.1-0.9-0.2-1.3-0.3c0.2-1.4-0.6-2.8-2.4-2.8c-2.7,0.1-5.5,0.2-8-0.7c1.5-0.4,3.2-0.4,4.8-0.4
		c3.1-0.1,6.3-0.2,9.4-0.3C459.6,439.6,459.6,434.6,456.3,434.7z" style="fill:#F4BFAB;"/>
    <path d="M578.8,396.6c-2.9-15.8-4.7-31.8-5.4-47.8c-0.1-3.2-5.1-3.2-5,0c0.7,16.5,2.6,32.9,5.6,49.1
		C574.6,401.1,579.4,399.8,578.8,396.6z" style="fill:#FFFFFF;"/>
    <path d="M615,292.2c-51.7,14.9-108.3,8.5-155.3-17.7c-2.8-1.6-5.3,2.7-2.5,4.3c48.1,26.8,106.2,33.5,159.2,18.2
		C619.4,296.1,618.1,291.3,615,292.2z" style="fill:#FFFFFF;"/>
    <path d="M488.9,223.3c-6.1,14.1-13.1,32.1-27.1,40c-2.8,1.6-0.3,5.9,2.5,4.3c15-8.4,22.5-26.8,28.9-41.7
		C494.5,222.9,490.2,220.4,488.9,223.3z" style="fill:#4A3B2A;"/>
    <path d="M346.5,266.9c-9.2-4.8-16.2-12.3-22.4-20.5c-6.4-8.5-13.5-17.5-16.7-27.7c-1-3.1-5.8-1.7-4.8,1.3
		c3.5,11.1,11.2,21,18.2,30.2c6.4,8.4,13.8,16.1,23.3,21C346.9,272.7,349.4,268.4,346.5,266.9z"
          style="fill:#4A3B2A;"/>
    <path d="M557.4,259.8v7.3c0,3.2,5,3.2,5,0v-7.3C562.4,256.6,557.4,256.6,557.4,259.8z" style="fill:#4A3B2A;"/>
    <path d="M574.7,263.8c-0.2-1.4-1-2.5-2.5-2.5c-1.2,0-2.7,1.2-2.5,2.5c0.4,3.3,0.8,6.5,1.2,9.8c0.2,1.4,1,2.5,2.5,2.5
		c1.2,0,2.7-1.2,2.5-2.5C575.5,270.3,575.1,267.1,574.7,263.8z" style="fill:#4A3B2A;"/>
    <path d="M589.6,270.6c-0.8-1.1-2.2-1.6-3.4-0.9c-1.1,0.6-1.7,2.3-0.9,3.4c1,1.4,1.4,2.7,1.2,4.4
		c-0.1,1.3,1.3,2.5,2.5,2.5c1.5,0,2.4-1.2,2.5-2.5C591.7,275.2,591,272.6,589.6,270.6z" style="fill:#4A3B2A;"/>
    <path d="M567.9,284.2c-0.3-0.8-0.5-1.6-0.8-2.4c-0.4-1.2-1.7-2.2-3.1-1.7c-1.2,0.4-2.2,1.7-1.7,3.1l0.8,2.4
		c0.4,1.2,1.7,2.2,3.1,1.7C567.4,286.9,568.4,285.5,567.9,284.2z" style="fill:#4A3B2A;"/>
    <path d="M305.9,431.6c-21.8,4.7-49.2,9.9-67-7.7c-8.4-8.3-10.2-20.5-12.5-31.5c-2.6-13.1-4.3-26.3-5.3-39.6
		c-0.2-3.2-5.2-3.2-5,0c1.1,14.4,3,28.7,5.9,42.9c2.5,12,5,24.3,14.4,32.9c19.5,17.8,47.4,13,70.8,8
		C310.4,435.7,309,430.9,305.9,431.6z" style="fill:#FFFFFF;"/>
</g>
</svg>
