<?xml version="1.0" encoding="utf-8"?>
<!-- Generator: Adobe Illustrator 20.1.0, SVG Export Plug-In . SVG Version: 6.00 Build 0)  -->
<svg version="1.1" id="Capa_1" xmlns="http://www.w3.org/2000/svg" xmlns:xlink="http://www.w3.org/1999/xlink" x="0px" y="0px" width="800px" height="600px" viewBox="0 0 800 600" style="enable-background:new 0 0 800 600;" xml:space="preserve">

<g>
	<path d="M604.4,164.4c-2.8-29.5-5.7-59-9.2-88.5c-0.5-4.4-0.9-9.3-5.2-11.6c-5.2-2.7-13.4-2.1-19.1-2.7
		c-15.1-1.5-30.2-2.7-45.3-3.6c-33.5-2-67.1-2.7-100.7-2.1c-2.9,0.1-3.2,4-0.9,4.8c0,0.1-0.1,0.3-0.1,0.5
		c-1.2,59.2,0.4,118.4,5,177.4c1.2,15.1,2.5,30.2,4.1,45.2c0.7,6.9,1.5,13.7,2.2,20.6c0.6,5,0.5,11,3.8,15.1c3.3,4.2,8.8,4.9,13.7,6
		c7.6,1.6,15.2,3.2,22.9,4.6c14,2.6,28.1,5,42.2,7c32.3,4.6,64.8,7.6,97.4,9c1.3,0.1,2.6-1.2,2.5-2.5
		C614.5,283.9,610,224.1,604.4,164.4z" style="fill:#F4BFAB;"/>
	<path d="M432.3,212.3c-0.5-5.9,0.1-14.3-4.3-19c-4.5-4.9-13.1-5.1-19.3-6.3c-8.9-1.6-17.9-3-26.8-4.2
		c-1.2-0.2-2.9,0.3-3.1,1.7c-0.6,4.4-1.1,8.8-1.5,13.2c-1.1,7.3-1.9,14.6-2.3,22c-0.3,5.2-0.5,10.4-0.4,15.5c0,2.4-0.1,4.9,2.4,6.1
		c3.1,1.5,8,1.1,11.4,1.4c5,0.5,10,0.8,15,1c9.6,0.3,19.1-0.3,28.5-2.3c1-0.2,1.9-1.4,1.8-2.4C433.5,230.2,433.1,221.2,432.3,212.3z
		" style="fill:#ED7354;"/>
	<path d="M550.4,84c-10.4-1.5-21.3-1.4-31.7-1.6c-21.5-0.3-42.9,0.8-64.2,3.3c-1.3,0.1-2,1.1-2.3,2.1
		c-0.2,0.3-0.3,0.6-0.4,1c-1,5.7-1.7,13.5,4.1,16.9c3.4,2,7.8,1.4,11.5,1.2l17.8-0.7c23.1-0.9,46.2-1.7,69.3-2.6
		c1.3,0,2.6-1.1,2.5-2.5C556.6,95.2,558.2,85.2,550.4,84z" style="fill:#ED7354;"/>
	<path d="M492.5,181.5c-0.1-4.5-0.9-9.2-1.4-13.7c-0.9-9.1-1.8-18.3-2.7-27.4c-0.5-4.6-0.9-9.2-1.4-13.7
		c-0.3-2.5-0.3-5.1-2.9-6.3c-2.8-1.3-7.1-0.7-10.2-0.9c-5.1-0.3-10.2-0.5-15.2-0.8c-2.2-0.1-2.9,2.3-2,3.8c-0.1,0.3-0.1,0.6-0.1,0.9
		c1.1,18.9,2.5,37.9,4.6,56.7c0.6,5.6,1.9,10.2,8.4,10.2c4.2,0,8.7-0.9,12.9-1.3c2.5-0.3,6.1-0.1,8.1-1.9
		C492.4,185.6,492.5,183.8,492.5,181.5z" style="fill:#4A3B2A;"/>
	<path d="M544.2,117.9c-13.4,1.4-26.7,3.5-40.1,0.8c-3.1-0.6-4.5,4.2-1.3,4.8c13.9,2.8,27.5,0.8,41.4-0.7
		C547.4,122.6,547.5,117.6,544.2,117.9z" style="fill:#4A3B2A;"/>
	<path d="M552.4,136.9c-15.6,1.4-31.2,1.5-46.9,0.1c-3.2-0.3-3.2,4.7,0,5c15.6,1.4,31.3,1.3,46.9-0.1
		C555.6,141.6,555.6,136.6,552.4,136.9z" style="fill:#4A3B2A;"/>
	<path d="M551.7,158.7c-14.2,0.5-28.4,1-42.6,1.6c-3.2,0.1-3.2,5.1,0,5c14.2-0.5,28.4-1,42.6-1.6
		C554.9,163.6,554.9,158.6,551.7,158.7z" style="fill:#4A3B2A;"/>
	<path d="M558.1,181c-14.9-0.1-29.8-0.2-44.7-0.3c-3.2,0-3.2,5,0,5c14.9,0.1,29.8,0.2,44.7,0.3
		C561.3,186,561.3,181,558.1,181z" style="fill:#4A3B2A;"/>
	<path d="M581.1,316.4c-1.1-7.6-2.6-15.1-4.5-22.5c-0.3-1.1-1.3-1.8-2.4-1.8c-33.7-0.8-67.4-1.5-101.1-2.3
		c-1.5-1.2-4.3-0.6-4,1.8c0.7,6.2-0.8,17.6,7.1,19.3c10.8,2.2,22.4,2.6,33.3,3.6c23,2.2,46.1,3.9,69.1,5.1
		C580.5,319.7,581.3,317.9,581.1,316.4z" style="fill:#ED7354;"/>
	<path d="M565.2,202.6c-33.4-1.6-66.8-2.5-100.2-3.7c-3.2-0.1-3.2,4.9,0,5c33.4,1.2,66.8,2,100.2,3.7
		C568.4,207.7,568.4,202.7,565.2,202.6z" style="fill:#FFFFFF;"/>
	<path d="M575.5,215.6c-36.2,5.2-72.4-4.9-108.6-1.4c-3.2,0.3-3.2,5.3,0,5c36.7-3.5,73.3,6.6,110,1.3
		C580,220,578.7,215.1,575.5,215.6z" style="fill:#FFFFFF;"/>
	<path d="M513.8,245.2c0.3-0.6,0.3-1.3,0-2c0-0.2-0.1-0.3-0.2-0.4c-0.1-2-0.2-4.1-0.4-6.1c-0.1-1.3-1.1-2.5-2.5-2.5
		c-12.1,0.3-24.2-0.2-36.2-1.5c-0.9-2.2-4.7-1.8-4.8,1c-0.5,15-0.1,30,1,44.9c0.1,1.4,1.1,2.5,2.5,2.5c13,0.3,25.9-0.2,38.9-1.3
		c1.4-0.1,2.5-1.1,2.5-2.5C514.6,266.6,514.4,255.9,513.8,245.2z M508.4,239.2c0.1,1,0.1,2,0.2,3c-1.2,0.7-2.2,1.8-3.2,2.6
		l-10.7,8.4c-0.4,0.3-0.7,0.6-1.1,0.8c-5.5-5.1-11.3-10.1-15.9-16C487.9,239,498.1,239.4,508.4,239.2z M474.5,241.9
		c4.5,5.5,10,10.2,15.3,15.1c-4.9,3.8-9.8,7.7-14.7,11.5C474.6,259.7,474.4,250.8,474.5,241.9z M475.5,276.1c0-0.7-0.1-1.4-0.1-2.1
		c0.5,0,1-0.2,1.5-0.6c5.5-4.3,11-8.6,16.5-12.9c4,4,7.8,8.3,10.5,13.5c1.5,2.8,5.9,0.3,4.3-2.5c-2.9-5.3-6.8-9.8-11-13.9
		c1.9-1.5,3.7-2.9,5.6-4.4c1.5-1.2,3-2.4,4.6-3.6c0.4-0.3,0.9-0.9,1.6-1.4c0.4,9,0.6,17.9,0.6,26.9
		C498.2,275.9,486.8,276.3,475.5,276.1z" style="fill:#FFFFFF;"/>
	<path d="M403.2,234.9c-0.2-1.5-1.9-1.9-3.1-1.7c-1.7,0.2-3.3,0.7-4.7,1.4c0-2.2-0.4-4.4-1.3-6.7
		c-0.6-1.4-2.2-2.4-3.7-1.5c-2.5,1.5-4.7,3.2-6.8,5.2c-0.1-2.2-0.4-4.4-1-6.6c-0.3-1.3-1.8-2.2-3.1-1.7c-2.1,0.7-4,1.6-5.7,2.8
		c0.1-3.7-0.3-7.3-1.2-11c-0.5-2.1-3.5-2.4-4.6-0.6c-13.3,22.8-22.4,51.6-47.1,64.8c-5.6,3-11.8,5.1-18.2,5.5
		c-3.1,0.2-6.2,0-9.2-0.6c-4.2-0.9-5.4-1.9-6.1-6.3c-2.4-15.3-2.8-30.9-1.4-46.4c13.8,2.6,30.2,2.8,38.8-10.2
		c9.1-13.7-0.3-29.8-9.8-40.2c-6.1-6.7-12.5-13.1-18.7-19.6c-5.1-5.3-9.7-11-17.4-12.1c-8.5-1.2-18,0.7-26.4,2.2
		c-9,1.7-17.8,4.2-26.3,7.5c-3.3,1.3-7.1,2.5-9.6,5.2c-2.6,2.8-2.8,6.5-3,10.1c-0.4,10-0.1,20.1,0.8,30.1c-6.5-1.5-14.2,2-15.2,9.4
		c-1.1,8.1,7,13.9,14.3,12.9c0.1,3.6,0.2,7.1,0.3,10.7c-0.1,0.3-0.2,0.6-0.2,1c-0.2,77.8-1.9,155.5-5.2,233.2
		c-0.9,22.2-2,44.3-3.2,66.4c-0.1,1.4,1.2,2.4,2.5,2.5c16.6,1.4,33.3,1.2,49.9-0.6c3.2-0.4,3.2-4.6,0-5c-9-1-13.5-7.3-15.2-14.9
		c10.5,2.3,21,2.7,31.7,1.2c2.4-0.3,2.4-4.4,0-4.8c-8.7-1.4-10.6-10.6-10.2-18.1c0.4-8,1.7-16.1,2.5-24c1.7-16,3.4-32.1,5-48.1
		c3.1-31.9,5.8-63.7,8.1-95.7c4.8-1.8,9.6-2.8,14.8-3c1.4-0.1,2.2-1,2.4-2.1c21.7-5.9,42.3-15.8,60.4-29.2
		c10.7-7.9,20.5-16.9,29.2-26.9C394.7,259.9,405.2,248.3,403.2,234.9z" style="fill:#F4BFAB;"/>
	<path d="M267.2,508.1c-2.6-3.8-5-3.3-9.5-3c-5.6,0.5-11.1,1.3-16.6,2.4c-11.6,2.4-22.9,6.4-33.5,11.6c0,0,0,0-0.1,0
		c-0.9,0-1.9,0.6-2.2,1.7c-1.5,4.9-2.6,9.9-3,15c-0.2,2.8-0.1,5.2,2.7,6.4c4.1,1.7,9.9,1.2,14.2,1.4c6,0.3,12.1,0.6,18.1,0.4
		c5.3-0.1,10.6-0.6,15.8-1.4c2.7-0.5,7.3-0.6,8.1-4c0.7-3.3-3-4.8-5.3-6c-2.4-1.3-4.8-2.6-7.2-4c-0.9-0.5-2.5-1.1-3.1-1.9
		c-0.8-1-0.9-2.5-0.9-4c4.7,0.7,9.5,1.3,14.3,1.4c4.9,0.2,11.1,0.8,15.7-1.3C285.1,518.2,269.6,511.7,267.2,508.1z" style="fill:#ED7354;"/>
	<path d="M312.9,145.5c-3.4-4-8.4-4.7-13.3-4.4c3.6-7,5.6-15.8-1.5-21.3c-7.5-5.8-15.3-0.4-20.3,5.9
		c-2.8-8-8.3-17.9-16.4-17.9c-8.8,0-11.3,7.3-11.3,14.7c-5.2-5.7-11.7-9.8-19.8-6.8c-4.2,1.6-7.2,5.2-7.5,9.8
		c-0.2,3.4,1,6.5,2.7,9.4c-7.4-1.9-15.5-1.9-20.3,4.9c-2.3,3.2-2.5,7.1-1.2,10.3c-7.9-0.4-16.8,1.2-20.4,7.8
		c-5.3,9.8,5.8,15.6,13.8,17.5c-3.1,7-4.5,16.3,3.8,20c9.3,4.1,16.3-4.1,20.5-11.5c4,4.8,7,11.1,14.2,10.6
		c8.3-0.6,11.3-8.4,12.5-15.6c8,3.8,17.6,6.9,25.4,1.6c4.4-3,7.4-8.3,6.9-13.4c11.1,2.8,24.5,0.9,31.8-8.3
		C315.8,154.9,316.4,149.5,312.9,145.5z" style="fill:#4A3B2A;"/>
	<path d="M300,197.4c-1.7-2.3-3.5-4.6-5.2-6.9c-0.8-1.1-2.2-1.6-3.4-0.9c-1.1,0.6-1.7,2.3-0.9,3.4
		c1.7,2.3,3.5,4.6,5.2,6.9c0.8,1.1,2.2,1.6,3.4,0.9C300.2,200.2,300.8,198.5,300,197.4z" style="fill:#4A3B2A;"/>
	<path d="M308.1,184.8c-1.6-1.8-3.1-3.5-4.7-5.3c-0.9-1-2.6-0.9-3.5,0c-1,1-0.9,2.5,0,3.5c1.6,1.8,3.1,3.5,4.7,5.3
		c0.9,1,2.6,0.9,3.5,0C309.1,187.3,309,185.8,308.1,184.8z" style="fill:#4A3B2A;"/>
	<path d="M315.3,210.5c-1-2.1-2-4.3-3-6.4c-0.6-1.2-2.3-1.5-3.4-0.9c-1.3,0.7-1.5,2.2-0.9,3.4c1,2.1,2,4.3,3,6.4
		c0.6,1.2,2.3,1.5,3.4,0.9C315.7,213.2,315.9,211.8,315.3,210.5z" style="fill:#4A3B2A;"/>
	<path d="M250.2,202.4c-0.3-3.2-5.3-3.2-5,0c0.2,1.8,0.8,5.7-1.2,6.8c-1.1,0.6-2.5-0.1-3.2-0.9
		c-1.1-1.3-1.1-3.3-0.8-4.9c0.6-3.1-4.3-4.5-4.8-1.3c-0.5,3-0.4,6.2,1.4,8.8c1.6,2.3,4.3,3.7,7.2,3.5
		C249.7,213.9,250.7,207.2,250.2,202.4z" style="fill:#4A3B2A;"/>
	<path d="M288.6,229.1c-5.3-3.2-9.5-7.5-12.5-12.9c-1.6-2.8-5.9-0.3-4.3,2.5c3.4,6.1,8.3,11.1,14.3,14.7
		C288.9,235.1,291.4,230.7,288.6,229.1z" style="fill:#4A3B2A;"/>
	<path d="M217.1,210.2c-1.2-0.3-2.9,0.4-3.1,1.7c0,0.3-0.1,0.6-0.1,0.9c-1-0.4-2-0.7-3-1.1c-1.3-0.5-2.7,0.5-3.1,1.7
		c-0.4,1.4,0.5,2.6,1.7,3.1c1.2,0.4,2.4,0.9,3.6,1.3c0,1.2,0.5,2.3,1.8,2.7c1.2,0.3,2.9-0.4,3.1-1.7c0.3-1.9,0.5-3.7,0.8-5.6
		C219,212,218.5,210.6,217.1,210.2z" style="fill:#4A3B2A;"/>
	<path d="M280.1,349.4c0-1.4-1.2-2.5-2.5-2.5c-20.5-0.6-41-1.3-61.5-1.9c-0.6,0-1.1,0.2-1.5,0.5c-0.7-0.1-1.4-0.1-2.3,0
		c-1.1,0.2-1.8,1.4-1.8,2.4c-0.5,29.3-1,58.6-1.5,87.9c-0.3,14.7-1.6,31.5-1.8,46.1c-0.2,13.7,1.2,25.6-3.2,38.8
		c-0.5,1.6,0.9,3.2,2.4,3.2c0.6,0,1.2,0,1.8,0c11.8,4.5,24.2,5.6,36.6,3.5c1.4-0.2,2-1.9,1.7-3.1c-0.8-3.5-1.6-7-2.3-10.5
		c7.2-0.1,14.2-1.1,21.2-2.8c1-0.2,1.8-1.3,1.8-2.4C269,454.9,279.7,402.8,280.1,349.4z" style="fill:#4A3B2A;"/>
	<path d="M384.5,272.7c-1-2.2-3.2-3.6-5.1-5c-3.1-2.4-6.2-4.7-9.2-7.1c-6.7-5.1-13.4-10.2-20-15.3
		c-1.2-0.9-2.7-0.1-3.4,0.9c-13.8,18.2-33.3,41.5-58.9,35.1c-1.2-12.4-2.4-24.7-3.6-37.1c-0.1-1.3-1-2.5-2.5-2.5
		c-22.9,0.1-45.8-1.4-68.6-4.5c-0.8-0.1-1.5,0.1-2,0.5c-0.6-0.2-1.3-0.3-2-0.3c-1.3,0-2.6,1.2-2.5,2.5c2.4,37.8,1.6,75.8-2.4,113.4
		c-0.1,1,0.3,1.7,1,2.1c0.4,0.7,1.1,1.2,2.1,1.2c12.8,0.8,25.5,1.5,38.3,2.3c12.1,0.7,24.4,2,36.3-1.1c1-0.3,1.9-1.3,1.8-2.4
		c-0.4-8.3-0.1-16.5,1-24.8c5.4-1.3,10.9-2.7,16.3-4.1c0.7,5,3,10.5,9,9.7c7-0.9,7.8-8.6,6.2-14.1c17.2-5.4,33.9-12.5,48.3-23.7
		c5.2-4,10-8.5,14.3-13.5C381.6,281.9,386.5,277.3,384.5,272.7z" style="fill:#ED7354;"/>
	<path d="M283.1,254.3c-25.3-1-50.7-2-76-3c-3.2-0.1-3.2,4.9,0,5c25.3,1,50.7,2,76,3
		C286.3,259.4,286.3,254.4,283.1,254.3z" style="fill:#FFFFFF;"/>
	<path d="M293.9,279.7c-8.8-2.3-17.5-4.6-26.3-6.9c-3.1-0.8-4.4,4-1.3,4.8c8.8,2.3,17.5,4.6,26.3,6.9
		C295.7,285.3,297,280.5,293.9,279.7z" style="fill:#FFFFFF;"/>
	<path d="M287.1,328.1h-17c-3.2,0-3.2,5,0,5h17C290.3,333.1,290.3,328.1,287.1,328.1z" style="fill:#FFFFFF;"/>
	<path d="M374.2,285.5c-11-9.6-22.1-19.2-33.1-28.9c-2.4-2.1-6,1.4-3.5,3.5c11,9.6,22.1,19.2,33.1,28.9
		C373.1,291.1,376.6,287.6,374.2,285.5z" style="fill:#FFFFFF;"/>
	<path d="M233.7,285.9c-0.5-1.3-1.7-2.1-3.1-1.7c-1.2,0.3-2.2,1.8-1.7,3.1c0.8,2.2,1.2,4.4,0.8,6.7
		c-0.6,3.1,4.3,4.5,4.8,1.3C235,292.1,234.8,288.9,233.7,285.9z" style="fill:#FFFFFF;"/>
	<path d="M222.6,305.6v6c0,3.2,5,3.2,5,0v-6C227.6,302.4,222.6,302.4,222.6,305.6z" style="fill:#FFFFFF;"/>
	<path d="M233.6,322.6v7c0,3.2,5,3.2,5,0v-7C238.6,319.4,233.6,319.4,233.6,322.6z" style="fill:#FFFFFF;"/>
	<path d="M243.4,525.1c7.2-48.9,12.7-98.1,16.3-147.5c0.2-3.2-4.8-3.2-5,0c-3.6,48.9-9,97.7-16.2,146.2
		c-0.2,1.2,0.5,2.2,1.3,2.7c-1.5,1.2-3,2.5-4.6,3.7c-1,0.9-0.9,2.6,0,3.5c1,1,2.5,0.9,3.5,0l5.5-4.5c1-0.9,0.9-2.6,0-3.5
		C244.1,525.4,243.8,525.2,243.4,525.1z" style="fill:#FFFFFF;"/>
	<path d="M251.2,527.7c-1.1-0.6-2.9-0.4-3.4,0.9c-0.1,0.3-0.3,0.5-0.4,0.8c0,0-0.1,0.1-0.1,0.2
		c-0.1,0.1-0.2,0.2-0.2,0.3c-0.1,0.1-0.2,0.2-0.3,0.3c0,0-0.1,0.1-0.2,0.2c-0.1,0-0.1,0.1-0.2,0.1c-0.2,0.1-0.3,0.2-0.5,0.3
		c-1.2,0.6-1.6,2.3-0.9,3.4c0.8,1.2,2.2,1.6,3.4,0.9c1.6-0.8,2.9-2.2,3.7-3.9C252.7,529.9,252.5,528.4,251.2,527.7z" style="fill:#FFFFFF;"/>
	<path d="M269.7,507.5c-1-0.9-2.6-1-3.5,0l-2.8,2.9c-0.9,0.9-1,2.6,0,3.5c1,0.9,2.6,1,3.5,0l2.8-2.9
		C270.6,510.1,270.7,508.4,269.7,507.5z" style="fill:#FFFFFF;"/>
	<path d="M275.4,511c-1-0.9-2.6-1-3.5,0c-0.7,0.7-1.4,1.4-2.1,2.2c-0.9,0.9-1,2.6,0,3.5c1,0.9,2.6,1,3.5,0
		c0.7-0.7,1.4-1.4,2.1-2.2C276.3,513.6,276.4,511.9,275.4,511z" style="fill:#FFFFFF;"/>
	<path d="M239.4,166c-1.2-0.3-2.9,0.4-3.1,1.7c-0.3,1.7-0.5,3.4-0.8,5.1c-0.2,1.3,0.3,2.7,1.7,3.1
		c1.2,0.3,2.9-0.4,3.1-1.7c0.3-1.7,0.5-3.4,0.8-5.1C241.4,167.8,240.8,166.4,239.4,166z" style="fill:#FFFFFF;"/>
	<path d="M221.8,164.8c0,1.4-0.4,2.6-1.2,3.8c-0.8,1.1-0.2,2.8,0.9,3.4c1.2,0.7,2.6,0.2,3.4-0.9
		c1.3-1.9,1.9-4.1,1.9-6.3C226.8,161.6,221.8,161.6,221.8,164.8z" style="fill:#FFFFFF;"/>
	<path d="M211.8,158.5c-0.8-1.2-2.2-1.5-3.4-0.9l-2.9,1.5c-1.2,0.6-1.6,2.3-0.9,3.4c0.8,1.2,2.2,1.5,3.4,0.9
		c1-0.5,1.9-1,2.9-1.5C212.1,161.3,212.5,159.6,211.8,158.5z" style="fill:#FFFFFF;"/>
	<path d="M231.1,148.2c-0.3-1.2-1.8-2.2-3.1-1.7c-1.5,0.5-2.9,1-4.4,1.5c-1.3,0.4-2.1,1.7-1.7,3.1
		c0.3,1.2,1.8,2.2,3.1,1.7l4.4-1.5C230.6,150.8,231.5,149.5,231.1,148.2z" style="fill:#FFFFFF;"/>
</g>
</svg>
