<?xml version="1.0" encoding="utf-8"?>
<!-- Generator: Adobe Illustrator 20.1.0, SVG Export Plug-In . SVG Version: 6.00 Build 0)  -->
<svg version="1.1" id="Capa_1" xmlns="http://www.w3.org/2000/svg" xmlns:xlink="http://www.w3.org/1999/xlink" x="0px" y="0px" viewBox="0 0 800 600" style="enable-background:new 0 0 800 600;" xml:space="preserve">

<g>
	<g>
		<path d="M552.1,274.4c-0.8-1.1-2.2-1.7-3.5-0.9c-1.7,0.9-3.1,2.1-4.2,3.4c-1.5-2.9-4.2-5-8-4.8
			c-2.5,0.1-4.6,1.4-6.1,3.2c-3.8-3.9-9.2-6.1-14.9-5.4c-0.1,0-0.2,0.1-0.4,0.1c-2.8-4.8-6.1-9.3-9.9-13.5c-1.8-2-4.9,0.1-4.3,2.5
			c6,23.6,14.8,48.3,14.1,72.9c-0.5,19.1-9.3,41.6-28.6,48.9c-4.2,1.6-3.8-0.4-4.6-4.3c-0.5-2.6-1.1-5.2-1.5-7.8
			c-1.2-6.5-2.3-13-3.3-19.5c-1.8-12.2-3.1-24.5-4.1-36.7c-1-12-1.8-24-2.4-36.1c0.3,0,0.6,0,0.9,0c7-1.5,17.6-6.4,13.9-15.5
			c-2.9-7.1-10.3-7.5-15.7-4.1c-0.3-6.2-0.5-12.5-0.8-18.7c-0.5-12.2-1.1-24.5-1.9-36.7c-0.6-8.6-1.4-17.3-4.7-25.3
			c-3.1-7.5-8.5-13.7-16.2-16.7c-9.1-3.6-19.7-3-29.3-2.9c-19.1,0.2-39.5,2.4-56,12.9c-16.4,10.4-26.2,28.1-30.6,46.7
			c-4.1,17.3-4.3,35.4-3.8,53.4c-2.5-3.6-5.7-6.9-10.2-7.4c-4.5-0.6-9.4,1.7-10.4,6.5c-2.2,11.2,12.4,15.6,21,17.1
			c0.1,3.5,0.2,6.9,0.3,10.4c0.5,26.9,0.9,53.9,1.4,80.8c-16.9-10.9-34.6-23.6-40-44c-2.8-10.6-1.4-20.8,4.6-30
			c4.9-7.5,10.7-14.2,11.4-23.5c0.1-2-2.3-3.2-3.9-2.2c-5.8,3.4-10.9,7.5-15.4,12.3c0-0.3,0-0.7,0-1c-0.1-1.9-2.1-3.3-3.9-2.2
			c-2.1,1.3-4,2.7-5.7,4.3c0-1.5,0-3-0.2-4.6c-0.2-2-2.8-3.7-4.4-1.8c-1.1,1.3-2.2,2.7-3.2,4.1c0-0.6,0-1.2,0-1.9
			c-0.1-1.5-1.6-3.1-3.3-2.5c-12.5,4.9-18.7,17.2-22.1,29.5c-4,14.2-4.4,29.3-1.6,43.8c5.7,29.2,25.1,54,52,66.5
			c14.2,6.6,29.7,9.7,45.3,8.9l1.1,20.1c0.1,2.3,2.7,3,4.2,2.1c29.6,3.7,59.3,7.2,89.2,6.5c14.4-0.3,28.8-1.6,42.9-4.4
			c4.2-0.8,9-1.9,10-6.8c0.6-2.9-0.2-6.2-0.5-9.1c-0.4-3.6-0.7-7.2-1.1-10.8c2.5-3.6,6.7-4.7,10.7-6.3c6.7-2.7,12.6-6.8,17.7-11.8
			c11.5-11.2,19.2-26.1,26.5-40.2c8.2-15.7,15.5-32.3,19-49.8C560.5,306.4,561.9,287.7,552.1,274.4z" style="fill:#F4BFAB;"/>
		<path d="M560,319c-14.9,0.6-29.8,0.8-44.7,0.4c-1.4,0-2.5,1.2-2.6,2.6c-0.8,19.8-3.6,48.5-26.7,54
			c-1.3-4.4-2.5-8.7-3.8-13.1c0.5-0.9,0.5-2-0.5-2.9c-3-2.8-6.5-2.6-10.3-2c-6.6,1.2-13.1,2.5-19.6,3.6c-13.9,2.3-27.9,4-41.9,5.2
			c-26.9,2.3-53.9,2.6-80.8,0.9c-0.2,0-0.5,0-0.7,0c-21.3-6.5-37.3-26.1-38.9-48.4c-0.1-1-0.7-2.3-1.9-2.5
			c-16.2-2.2-31.4,2.8-46.5,8.3c-1,0.4-1.6,1.2-1.7,2.1c-0.3,0.3-0.5,0.7-0.6,1.2c-4.1,25.5,3,51.8,19.1,71.9
			c4.1,5.2,8.8,9.8,14,13.9c1.2,0.9,2.4,1.8,3.6,2.7c2.2,1.7,2.2,2.9,1.7,5.7c-0.4,2.2-0.9,3.7,0,6c3.5,9,14.9,5.8,16-1.8
			c12.9,3.7,26,6.5,39.2,8.6c-0.1,0.3-0.1,0.7,0,1.1c1.1,6.4,1.5,12.9,1.2,19.4c0,1,0.8,2.3,1.9,2.5c32.6,4.7,65.4,9.3,98.4,8.7
			c15.8-0.3,31.6-1.8,47.1-5.1c5.3-1.1,10.5-2.7,11.5-8.8c0.7-4.4,0-9.5-1.1-14.4c8.1-3.6,15.4-8.5,21.7-14.7
			c3.1,5.4,11.1,7,15.2,0.6c1.1-1.8,1.6-3.9,1.3-6c-0.5-3.5-3.3-5.4-1.4-9c1.3-2.3,3.6-4.4,5.3-6.5c2.1-2.7,4.1-5.5,5.9-8.4
			c14.2-21.8,22.1-47.3,23-73.2C562.6,320.2,561.3,318.9,560,319z" style="fill:#ED7354;"/>
		<path d="M486.6,175.2c7-5.2,9.6-15.8,5.9-23.8c-4.8-10.5-16.8-13.6-27.3-11.6c2.5-8.5-3.5-18.5-13.1-19.7
			c-12-1.6-20,7-22.7,17.4c-1.6-2.6-3.4-5-5.6-7.2c-3.7-3.6-10.3-9.3-15.8-8.3c-5.4,0.9-7.2,8.5-7.9,12.9c-0.4,2.7-0.5,5.4-0.2,8
			c-6.6-5.7-14.6-9.2-23.6-10.4c-1.1-0.1-2.2,0.9-2.5,1.9c-1.5,5.7-1.2,11.4,0.6,16.6c-9-4.8-19.4-7.5-29.4-6.4
			c-4.5,0.5-9.2,3-8.9,8.1c0.2,3.4,1.9,6.8,4.1,10.1c-9.1-2.8-18.9-2.3-27.9,1.6c-1,0.4-1.5,1.9-1.2,2.9c1.1,3.4,2.6,6.6,4.5,9.4
			c-2.4-0.4-4.9-0.4-7.4,0.1c-5.5,1.2-10.6,5.3-11.6,11.1c-2.2,12.4,11.5,18.7,22.6,20.6c-0.6,1.9-1,3.8-1.1,5.9
			c-0.4,5.2,0.6,12.5,6.7,13.8s12.7-4.1,17.1-7.7c2.9-2.4,5.5-5.2,7.8-8.1c0.2,7.8,2.9,15.9,10.7,16c4.9,0.1,7.6-4.3,9.4-8.3
			c2.1-4.5,3.7-9.2,5.1-14c3,7.8,5.8,16.6,15.9,15.4c10.2-1.1,13.8-10.1,15.1-19.1c2.6,3.9,5.5,7.5,8.8,10.8
			c3.9,3.9,9.2,9.4,15.1,9.9c5.5,0.4,10.2-3.3,12.6-8c1.3-2.7,1.8-5.5,1.7-8.4c5,5.7,11.3,10.5,18.1,11.4c4.2,0.6,7.6-1.8,9.2-5.6
			c0.5-1.1,0.7-2.3,0.8-3.4c7.1,3.5,16.3,2.3,21.8-5C501.6,193.8,496.8,180.5,486.6,175.2z" style="fill:#4A3B2A;"/>
		<path d="M526.6,161.5c-1.6,4.3-3.3,8.7-4.9,13c-1.2,3.1,3.8,4.4,5,1.4c1.6-4.3,3.3-8.7,4.9-13
			C532.7,159.7,527.7,158.4,526.6,161.5z" style="fill:#ED7354;"/>
		<path d="M543.1,170.5c-0.9-0.9-2.8-1.1-3.6,0c-2.3,3-4.6,5.9-6.9,8.9c-0.9,1.1-1.1,2.6,0,3.6c0.9,0.9,2.8,1.1,3.6,0
			c2.3-3,4.6-5.9,6.9-8.9C543.9,173.1,544.1,171.6,543.1,170.5z" style="fill:#ED7354;"/>
		<path d="M280.5,214.9c-2.1-4.8-5.2-9.1-9.1-12.5c-2.5-2.2-6.1,1.4-3.6,3.6c3.6,3.2,6.4,7,8.3,11.5
			C277.4,220.6,281.9,217.9,280.5,214.9z" style="fill:#ED7354;"/>
		<path d="M277.3,220.1c-5.1-1.6-10.1-3.1-15.2-4.7c-3.2-1-4.5,4-1.4,5c5.1,1.6,10.1,3.1,15.2,4.7
			C279.1,226.1,280.5,221.1,277.3,220.1z" style="fill:#ED7354;"/>
		<path d="M475.1,355c-46.6,9.6-94.4,12-141.8,7.2c-0.5-0.4-1.3-0.6-2.1-0.3c-2.8,1-5.3,3.6-4.1,6.8
			c0.5,1.3,1.6,2.1,2.7,2.9c1.4,1,2.7,1.9,4.1,2.9c28.1,22.6,57.7,43.2,88.7,61.7c1.2,0.7,2.8,0.2,3.5-0.9
			c15-23.5,30.9-46.5,47.6-68.8c0.8-0.2,1.6-0.7,1.9-1.7c0.2-0.6,0.5-1.2,0.7-1.9c0.4-0.5,0.7-1,1.1-1.5c0.6-0.8,0.6-1.5,0.3-2.2
			c0.1-0.4,0.3-0.7,0.4-1.1C479,356.2,476.8,354.7,475.1,355z" style="fill:#FFFFFF;"/>
		<path d="M373.2,412.3c-1.8-11.2-11.9-19.3-23.1-19.3c-11.1,0-20.8,8.3-22.9,19.2c-1.7,8.6,2.5,18.3,10.7,20.2
			c-2.3,15.2-2.3,30.5,0,45.8c0.3,2.3,3.7,2.4,4.7,0.6c3.4-6.1,6.8-12.1,10.2-18.2c2.4,5.4,5.3,10.6,8.7,15.5
			c1.5,2.2,4.6,1.3,4.8-1.3c1.4-14.1,0.4-28.3-0.8-42.4c0-0.3-0.1-0.6-0.2-0.8C371.2,427.3,374.4,419.9,373.2,412.3z" style="fill:#4A3B2A;"/>
		<path d="M325.6,274.2l-7.3-6c-1.1-0.9-2.6-1.1-3.6,0c-0.9,0.9-1.1,2.8,0,3.6l7.3,6c1.1,0.9,2.6,1.1,3.6,0
			C326.5,277,326.7,275.1,325.6,274.2z" style="fill:#4A3B2A;"/>
		<path d="M480.5,262.4c-0.7-1.1-2.4-1.7-3.5-0.9c-1.9,1.3-3.8,2.3-6,3.1c-1.3,0.5-2.2,1.8-1.8,3.2
			c0.4,1.3,1.8,2.3,3.2,1.8c2.6-0.9,5-2.1,7.2-3.6C480.7,265.1,481.2,263.6,480.5,262.4z" style="fill:#4A3B2A;"/>
		<path d="M442.7,251.6c-0.8-5.4-1.8-10.8-3-16.2c-0.7-3.1-0.7-7.4-3.6-9.3c-1-0.6-2.3-0.3-3.1,0.4
			c-0.8,0.7-1.1,1.5-1,2.5c0.1,1.1,0.6,1.9,1.5,2.3c0.1,0.2,0.2,0.5,0.3,0.7c0.3,1.3,0.6,2.5,0.9,3.8c0.6,2.5,1.1,5,1.6,7.6
			c0.9,4.8,1.7,9.7,2.3,14.6c1.1,8.8,2.1,17.8,1.7,26.6c-0.8,16.7-10.4,36.6-30,35c-17.8-1.5-28.7-17.4-32.5-33.4
			c-4.4-18.5-2.8-38.9,0.8-57.4c0.6-3.2-4.3-4.6-5-1.4c-5.5,28.3-9,71.4,18.1,90.4c11,7.7,26,9.8,37.4,1.8
			c12.4-8.7,16.5-24.4,16.5-38.8C445.4,271.2,444.2,261.3,442.7,251.6z" style="fill:#4A3B2A;"/>
		<path d="M416.5,280.3c-0.1-1.4-1.1-2.6-2.6-2.6c-1.3,0-2.7,1.2-2.6,2.6c0.2,2,0.1,4-0.4,6c-0.8,3.2,4.2,4.6,5,1.4
			C416.5,285.2,416.7,282.8,416.5,280.3z" style="fill:#4A3B2A;"/>
		<path d="M424.7,282.3c0,2.3-0.4,4.4-1.3,6.6c-0.5,1.3,0.6,2.8,1.8,3.2c1.5,0.4,2.7-0.5,3.2-1.8c1-2.5,1.5-5.2,1.5-8
			C429.9,279,424.7,279,424.7,282.3z" style="fill:#4A3B2A;"/>
		<path d="M414.9,297.1c-0.5,1.9-1,3.8-1.5,5.7c-0.8,3.2,4.1,4.6,5,1.4l1.5-5.7C420.7,295.2,415.8,293.9,414.9,297.1z" style="fill:#4A3B2A;"/>
		<path d="M351.6,251.4c-0.2,2.3-0.7,7.8-4.1,7.7c-3.5-0.1-3.3-5.4-3-7.7c0.4-3.3-4.8-3.3-5.2,0
			c-0.6,5.5,1.5,12.8,8.2,12.9c6.9,0.1,8.8-7.5,9.3-12.9C357,248.1,351.9,248.2,351.6,251.4z" style="fill:#4A3B2A;"/>
		<path d="M459.7,243.7c-0.3-3.3-5.4-3.3-5.2,0c0.1,1.7,0.6,5.6-2,5.4c-2.9-0.2-3.6-4.4-3.9-6.6c-0.5-3.3-5.4-1.9-5,1.4
			c0.7,5,3.5,10.6,9.4,10.4C458.7,254,460.2,248.3,459.7,243.7z" style="fill:#4A3B2A;"/>
		<path d="M459.1,317.2c-14.3,13.7-31.2,21.3-51.2,21.1c-19.8-0.2-38.7-7-57.2-13.5c-3.1-1.1-4.5,3.9-1.4,5
			c20,7.1,40.7,14.4,62.3,13.7c19.9-0.7,36.9-9,51.2-22.6C465.2,318.5,461.5,314.9,459.1,317.2z" style="fill:#4A3B2A;"/>
		<path d="M454.3,386.1c-13.3-5.3-25.7-12.5-36.9-21.4c-0.8-0.7-2.1-1.1-3.1-0.4c-15.3,11.2-30.8,22.1-46.4,32.7
			c-2.7,1.9-0.2,6.3,2.6,4.5c15.2-10.3,30.2-20.9,45.1-31.8c11.5,8.8,24,15.9,37.4,21.3C456,392.3,457.3,387.4,454.3,386.1z" style="fill:#4A3B2A;"/>
		<path d="M422,382.8c-0.3-2.2-2.5-3.8-4.7-3.5c-0.6,0.1-1.2,0.3-1.7,0.7c-0.1,0.1-0.2,0.2-0.3,0.3
			c0.5-0.4,0.4-0.3-0.2,0.2c-0.3,0.2-0.5,0.5-0.6,0.7c-0.8,1.2-0.8,2.7-0.1,3.9c0.4,0.7,1.1,1.1,1.9,1.2c0.3,0.2,0.7,0.4,1.1,0.5
			C419.8,387.4,422.3,385.5,422,382.8z" style="fill:#4A3B2A;"/>
		<path d="M423,403.3c-0.3-1.4-1.9-2.1-3.2-1.8c-0.4,0.1-0.8,0.2-1.1,0.5c-0.2,0.1-0.3,0.1-0.5,0.2
			c-1.3,0.9-2,2.4-1.6,4c0.3,1.3,1.3,2.5,2.7,2.8c1.2,0.2,2.2-0.2,2.9-1.2C423.2,406.5,423.4,404.8,423,403.3z" style="fill:#4A3B2A;"/>
		<path d="M423.7,419.7c-1.1-1-2.5-1-3.6,0c-2.6,2.2-2.5,6.4-0.1,8.7c1.9,1.8,4.5,0,4.4-2
			C425.7,424.4,425.7,421.4,423.7,419.7z" style="fill:#4A3B2A;"/>
		<path d="M476,430.6c-10.3-0.3-21.6-1.9-31.8,0.1c-0.3,0-0.5,0.1-0.7,0.2c-1-0.1-2,0.5-2.3,1.9
			c-2,12.4,4.9,28,19.1,28.6c16.1,0.6,17-16.3,18.1-28.1C478.8,431.8,477.3,430.7,476,430.6z M461.9,456.2
			c-10.8,0.7-16.5-11.3-15.8-20.6c4.8-0.8,9.9-0.3,14.7-0.2c4.1,0.1,8.3,0.2,12.4,0.3C472.7,444,472.2,455.6,461.9,456.2z" style="fill:#FFFFFF;"/>
		<path d="M559.3,330.3c-15-0.9-29.9-0.4-44.8,1.4c-3.3,0.4-3.3,5.6,0,5.2c14.9-1.8,29.8-2.3,44.8-1.4
			C562.6,335.7,562.6,330.5,559.3,330.3z" style="fill:#FFFFFF;"/>
		<path d="M285.9,328c-8.2,3.8-15.7,6.5-24.6,8.3c-7.6,1.6-15,3.3-21.8,7.2c-2.9,1.7-0.3,6.1,2.6,4.5
			c7.4-4.3,15.7-5.6,23.9-7.4c8.2-1.7,15-4.6,22.5-8.1C291.5,331.1,288.8,326.6,285.9,328z" style="fill:#FFFFFF;"/>
		<path d="M353.2,401.7c-5.7-1.1-11.4,2.7-13.7,7.8c-0.6,0.9-1.1,1.9-1.4,2.8c-1.1,3.3-0.2,6.4,1.8,8.7
			c1.2,2.1,3,4,4.9,5.2c6.7,4.2,13,0.5,15.5-5.3C364.6,414.1,361.9,403.4,353.2,401.7z" style="fill:#FFFFFF;"/>
		<path d="M355,412.1h-2.1c0.1-0.5,0.1-1.1,0.3-1.6c0.6-3.2-4.3-4.6-5-1.4c-0.2,1-0.3,2-0.4,2.9h-2
			c-3.3,0-3.3,5.2,0,5.2h1.8c0,0.3,0,0.5,0,0.8c0.2,3.3,5.4,3.3,5.2,0c0-0.3,0-0.5,0-0.8h2.3C358.4,417.3,358.4,412.1,355,412.1z" style="fill:#ED7354;"/>
	</g>
	<path d="M462.1,176.7c-2.3-2.3-5.1-3.6-8.3-4c-1.3-0.2-2.5,1.3-2.5,2.5c0,1.5,1.2,2.3,2.5,2.5c1.9,0.2,3.5,1.2,4.8,2.5
		C460.9,182.5,464.4,179,462.1,176.7z" style="fill:#FFFFFF;"/>
	<path d="M461,156.6c-1.8-0.4-3.6-0.8-5.4-1.1c-1.3-0.3-2.7,0.4-3.1,1.7c-0.3,1.2,0.4,2.8,1.7,3.1
		c1.8,0.4,3.6,0.8,5.4,1.1c1.3,0.3,2.7-0.4,3.1-1.7C463.1,158.4,462.3,156.9,461,156.6z" style="fill:#FFFFFF;"/>
	<path d="M439.3,160.2c-2.3-2.3-5.2-3.5-8.4-3.8c-1.3-0.1-2.5,1.2-2.5,2.5c0,1.4,1.1,2.4,2.5,2.5c1.9,0.2,3.6,1,4.9,2.3
		C438.1,166,441.6,162.5,439.3,160.2z" style="fill:#FFFFFF;"/>
</g>
</svg>
