<?xml version="1.0" encoding="utf-8"?><!-- Generator: Adobe Illustrator 20.1.0, SVG Export Plug-In . SVG Version: 6.00 Build 0)  -->
<svg style="enable-background:new 0 0 800 600;" id="Capa_1" version="1.1" viewBox="0 0 800 600" x="0px"
        xmlns="http://www.w3.org/2000/svg" y="0px" xml:space="preserve">

<g>
	<path style="fill:#4A3B2A;"
            d="M254.4,194.4c-0.7-2.8-3-3.1-5.5-3.4c-3-0.3-6.3-1.1-8.3,1.6c-2.5,3.3-2.2,9.7-2.8,13.7
		c-1.7,11.6-2.8,23.2-3.5,34.9c-0.1,0.4-0.2,0.8-0.1,1.2c0,0,0,0,0,0.1c-0.1,2.4,2.6,3.3,4.1,2.2c2.6,0.6,5.3,1.1,8,1.4
		c1.4,0.2,2.5-1,2.7-2.3c1.7-11.5,3.1-23,4.3-34.5c0.3-2.9,0.5-5.8,0.8-8.7C254.2,198.7,254.9,196.3,254.4,194.4z" />
    <path style="fill:#F4BFAB;"
            d="M253.9,187.7c-0.3-2.2-0.7-4.9-3.1-5.7c-2-0.7-4,0.4-5.3,1.8c-2,2.1-3.6,4.7-5.3,7c-0.5,0.7-0.6,1.4-0.4,2
		c-0.2,1.1,0.2,2.2,1.6,2.6c3,0.9,6.1,1.7,9.1,2.6c1.6,0.5,3.1-0.4,3.4-2.1C254.1,193.2,254.2,190.4,253.9,187.7z" />
    <path style="fill:#F4BFAB;" d="M258.3,241.5c-2.9-0.4-4.4,1.6-5.3,4c-0.8,2-1.3,4.1-1.9,6.2c-0.1-4.2-0.2-8.4-0.5-12.6c-0.1-1.1-1.3-2-2.2-2
		c-3.5-0.2-5.2,2.2-6.3,5.2c-0.5,1.5-1,2.9-1.4,4.5c-0.3-3.6-1.2-7-2.5-10.4c-0.7-1.9-3.2-1.7-4.3-0.4c-3.7,4.7-4.1,10.3-4.9,15.8
		c0-3.3,0.2-6.5-0.4-9.8c-0.7-3.6-3-9.9-7.8-7.3c-4.8,2.5-5.3,12.3-5.3,16.8c0,7.8,2,15.5,4.1,23c0.1,0.2,0.1,0.4,0.2,0.6
		c-0.1,0.7,0.1,1.4,0.6,1.9c2.7,2.8,7.2,1.9,10.7,1.8c5.1-0.1,10.3-0.3,15.3-1.2c9.5-1.6,12.3-8.7,14.6-17.4
		C261.9,256.1,266.1,242.5,258.3,241.5z" />
    <path style="fill:#F4BFAB;"
            d="M447.3,242c0-10-6.9-21.2-14.3-17.2c-0.8-20.3-5-33.6-5.8-53.9c-0.1-1.4-0.8-2.6-2.3-2.7l-39.1-3.7
		c-12.1-1.1-24.4-2.9-36.5-2.8c-16.2,0.1-35.2,6.9-39.7,23.6c-1.2,0-2.3,0.6-2.3,2.2c0.1,12.3-0.5,24.6-1.8,36.9
		c-5.4-3.5-13.2-3.1-17.4,2.4c-5.5,7.4,0.4,18.1,8.7,19.6c0.8,33.2,2.6,66.4,5.5,99.5c0.7,8.5,1.5,17,2.4,25.5
		c0.4,4.2,0.9,8.5,1.3,12.7c0.3,3,0.3,6.5,1.9,9.2c3.2,5.6,11.8,4.4,17.2,4.7c8.6,0.4,17.2,0.8,25.8,1.1c17.2,0.8,34.4,1.5,51.5,2.3
		c4.3,0.2,8.6,0.4,12.9,0.6c2.8,0.1,5.9,0.6,8.6-0.4c5.8-2.2,5.9-9.8,6.6-15c2.3-16.7,2.2-33.7,2.6-50.6c0.3-17.5,0.7-35,1-52.4
		c0.1-4.6,0.2-9.2,0.3-13.9c0.1-5.3-0.9-11.2,3.7-14.9C442.5,251,447.2,248.8,447.3,242z" />
    <path style="fill:#4A3B2A;"
            d="M405.3,299.3c-0.5-22.1-4.3-44.3-10.3-65.5c-0.9-3.1-5.8-2.2-4.9,0.9c4.4,15.7,7.5,31.7,9.1,48
		c1.5,15.4,3.5,34-6.3,47.3c-9.6,13.1-27.3,12.8-39.1,2.9c-12.1-10.2-16.5-27.3-16.3-42.6c0.2-18,5.7-35.5,11.1-52.5
		c1-3.1-3.7-4.8-4.7-1.7c-9.8,30.3-22,72.4,4.3,98.4c10.3,10.2,27.1,14.7,40,6.7C402.4,332.3,405.7,314.7,405.3,299.3z" />
    <path style="fill:#4A3B2A;" d="M441.6,242c1-0.9,1.2-2.5,0.3-3.5c-0.9-1-2.5-1.2-3.5-0.3l-2.6,2.3c-1.1-2.1-5-1.1-4.6,1.8
		c0.3,2.2,0.5,4.4,0.8,6.6c0.4,3.2,5.3,2.3,4.9-0.9c-0.1-0.5-0.1-1-0.2-1.5c0.1-0.1,0.2-0.1,0.2-0.2
		C438.4,244.7,440,243.3,441.6,242z" />
    <path style="fill:#4A3B2A;"
            d="M300,230.9c-0.3,0.8-0.6,1.5-1,2.3c-1-0.7-2-1.5-3-2.2c-1.1-0.8-2.7-0.5-3.5,0.6s-0.5,2.7,0.6,3.5l2.7,2
		c-1.7,2.2,1.3,5.5,3.6,3.5c2.4-2.1,4.2-4.8,5.3-7.9C305.7,229.6,301,227.9,300,230.9z" />
    <path style="fill:#4A3B2A;"
            d="M324.5,240.9c-0.3,2.3-1,8.3-4.7,7.8c-3.2-0.5-2.2-7.5-1.8-9.5c0.7-3.1-3.9-4.9-4.7-1.7
		c-1.2,5.1-1.6,14.9,5.4,16.1c7.3,1.2,10-6.5,10.7-12.2C329.9,238.1,325,237.7,324.5,240.9z" />
    <path style="fill:#4A3B2A;"
            d="M421.6,244.2c0.2-3.2-4.8-3.6-5-0.4c-0.1,1.8-0.7,6.3-3,6.5c-2.5,0.2-3.3-4.1-3.6-5.8
		c-0.7-3.1-5.6-2.2-4.9,0.9c1,4.6,3.2,10,8.8,9.9C419.2,255.2,421.3,248.6,421.6,244.2z" />
    <path style="fill:#4A3B2A;" d="M447.2,188.2c-1-8-3.3-16-8.4-22.4c-5.6-6.9-13.9-10.2-22.3-12.3c-10.7-2.6-21.6-4.7-32.4-7.1
		c1.7-3.8,3.4-7.6,5.1-11.4c1.2-2.6-2.8-4.6-4.4-2.3c-2,2.9-3.8,6-5.4,9.1c-0.8-2.7-1.8-5.4-3-8.1c-1.2-2.6-5.2-1.2-4.7,1.5
		c0.5,2.9,1,5.8,1.5,8.7c-7.5-1.7-15.1-3.3-22.7-4c-18-1.5-34.4,5.5-45.3,20c-13.3,17.7-14,41.4-7.5,61.9c0.3,1.1,1.1,1.7,2,1.9
		c0.3,0.8,0.7,1.6,1,2.3c0.8,1.7,3.6,2.2,4.6,0.4c4.4-7.7,8.9-15.4,13.3-23.1c1.3,7.6,3.4,15,6.2,22.2c0.7,1.8,3.6,2.1,4.6,0.4
		c5.9-10.3,11.8-20.7,17.7-31c4.2,10.1,8.5,20.2,12.7,30.3c1,2.3,4,1.7,4.9-0.2c4-7.9,8-15.7,12-23.6l10.6,23c1,2.1,4.1,1.9,4.9-0.2
		l9.2-24.5c3.1,8.2,6.1,16.4,9.2,24.7c0.9,2.4,4,1.6,4.9-0.2c2.8-5.9,4.8-12.1,6.1-18.4c4,8.7,7.3,17.7,9.8,26.9
		c0.5,1.9,2.7,2.9,4.4,1.6C448.7,223.4,449.1,203.6,447.2,188.2z" />
    <path style="fill:#FFFFFF;" d="M415,170.8c-1.4-1.7-2.9-3.3-4.3-5c-2.1-2.4-5.9,0.8-3.8,3.2c1.4,1.7,2.9,3.3,4.3,5
		C413.3,176.5,417.1,173.2,415,170.8z" />
    <path style="fill:#FFFFFF;" d="M428.5,167.7c-1-1.9-2-3.7-2.9-5.6c-0.6-1.2-2.1-1.8-3.3-1.2c-1.2,0.6-1.8,2.1-1.2,3.3l2.9,5.6
		c0.6,1.2,2.1,1.8,3.3,1.2C428.5,170.5,429.1,168.9,428.5,167.7z" />
    <path style="fill:#FFFFFF;"
            d="M430.9,187.3c-0.8-2.3-1.5-4.5-2.3-6.8c-0.4-1.3-2.2-1.7-3.3-1.2c-1.3,0.6-1.6,2-1.2,3.3
		c0.8,2.3,1.5,4.5,2.3,6.8c0.4,1.3,2.2,1.7,3.3,1.2C431,190,431.3,188.6,430.9,187.3z" />
    <path style="fill:#FFFFFF;" d="M317.3,314.1c-1.5-2.9-6-0.7-4.5,2.2c1.2,2.4,1.7,4.9,1.5,7.6c-0.3,3.2,4.7,3.6,5,0.4
		C319.6,320.7,318.9,317.2,317.3,314.1z" />
    <path style="fill:#FFFFFF;"
            d="M316.5,343.3c-0.6-1.8-1.2-3.7-1.8-5.5c-0.4-1.3-1.5-2.3-2.9-2c-1.2,0.2-2.4,1.6-2,2.9
		c0.6,1.8,1.2,3.7,1.8,5.5c0.4,1.3,1.5,2.3,2.9,2C315.7,346,316.9,344.6,316.5,343.3z" />
    <path style="fill:#FFFFFF;" d="M334.3,343.2c-0.7-2.9-2-5.5-4.1-7.6c-0.9-1-2.4-1.2-3.5-0.3c-1,0.8-1.2,2.6-0.3,3.5c1.5,1.5,2.5,3.3,3,5.3
		C330.1,347.3,335,346.4,334.3,343.2z" />
    <path style="fill:#ED7354;" d="M470.9,455.6c-1.2-14.4-5.1-28.5-11.7-41.3c-2.8-5.5-6-11.3-11.5-14.5c-2.7-1.5-5.6-2.3-8.7-2.6
		c4.2-6.6,4.3-16.2,1.6-23.2c-4.3-11-15.9-14.7-26.8-15.5c-15.3-1.1-30.9,0.1-46.2,0.3c-15.9,0.2-31.8,0-47.7,0.8
		c-10.3,0.5-21.6,3.3-26,13c-0.8,0.3-1.5,0.9-1.6,2c-1,7.5-1.4,15.6,2,21.8c-10.9,2.2-24,2.3-32.9-3.6c-11.2-7.5-8.4-25-8-36.4
		c1-29.4,3.3-58.7,6.7-87.9c0.1-1.2-1-2.7-2.3-2.7c-11,0.2-22.1,0.2-33.1,0.7c-8.8,0.4-9.5,6.4-10.8,14c-3.6,21.2-5.3,42.8-5.1,64.3
		c0.3,28.9,1.1,65.1,21,87.9c-3,2.6-5.3,5.9-6.4,9.8c-1.2,4.2-1.3,9.6,4.2,10.3c6.7,0.9,12.9-2.8,16.8-8.1
		c6.6,3.9,13.9,6.5,21.5,7.8c4.3,0.7,8.6,1,13,0.8c2.6-0.1,11.3-2.6,14.5-1.1c-1,5.4,2,10.6,6.9,13.4c6.9,3.9,16,2.5,23.6,2.3
		c20.8-0.6,41.6-1.2,62.4-1.7c10.2-0.3,20.5-0.6,30.7-0.9c3.9-0.1,9.5,0.5,13.4-1.2c13.4,0.4,27.1,1.3,39-5.9
		C470.6,457.6,471,456.8,470.9,455.6z" />
    <path style="fill:#FFFFFF;" d="M440.4,203c0-1.4-0.9-2.6-2.3-2.7c-1.3-0.1-2.7,0.9-2.7,2.3c0,1.8-0.3,3.5-1,5.2c-1.2,3,3.5,4.7,4.7,1.7
		C440,207.4,440.4,205.2,440.4,203z" />
    <path style="fill:#FFFFFF;" d="M437.7,395.5c-0.7-11.4-3.2-22.5-7.4-33.1c-1.2-3-5.7-0.8-4.5,2.2c4,10,6.3,20.5,7,31.2
		c-5.1,0.5-10.1,0.9-15.2,1.4c0-0.4,0-0.9,0-1.3c0-0.5-0.1-0.9-0.3-1.3c-1.2-12.2-3.8-24.1-7.9-35.7c-1.1-3-5.6-0.9-4.5,2.2
		c4.1,11.9,6.6,24.1,7.7,36.6c-6.2,0.6-12.3,1.1-18.5,1.6c-0.1-0.5-0.4-1-0.8-1.3c-2.8-12.2-5.4-24.4-7.8-36.6
		c-0.6-3.2-5.5-2.2-4.9,0.9c2.5,12.5,5.1,25.1,8,37.5c-5.5,0.5-11.1,0.9-16.7,1.3c0.2-0.4,0.3-0.9,0.4-1.5c0-0.7-0.2-1.3-0.6-1.8
		c-1.1-13-2.8-26-5.2-38.8c-0.6-3.2-5.5-2.3-4.9,0.9c2.5,13.5,4.3,27.2,5.4,40.9c0,0.2,0.1,0.4,0.2,0.6c-0.9,0.1-1.8,0.1-2.8,0.2
		c-4.3,0.3-8.7,0.6-13,0.8c-1.9-14.3-3.8-28.7-5.7-43c-0.4-3.2-5.3-2.3-4.9,0.9c1.9,14.1,3.8,28.2,5.7,42.3
		c-5.2,0.2-10.3,0.2-15.5,0c0-0.1,0-0.2-0.1-0.3c-4.1-13.3-6.1-26.9-5.9-40.8c0-3.2-4.9-3.6-5-0.4c-0.2,14,1.7,27.8,5.7,41.2
		c-4.4-0.3-8.9-0.9-13.2-1.7c0.2-0.5,0.2-1.1,0-1.8c-4.3-11.6-5.7-23.7-4.3-35.9c0.4-3.2-4.6-3.6-5-0.4c-1.5,12.6,0,25.1,4.2,37
		c-4-1-7.9-2.2-11.8-3.8c-3-1.2-4.7,3.5-1.7,4.7c21.5,8.6,44.8,7.8,67.5,6.2c25.4-1.7,50.8-4.1,76.2-6.5
		C440.1,400,439.9,396.2,437.7,395.5z" />
    <path style="fill:#FFFFFF;" d="M434.9,463.3c-0.4-10.6-0.7-21.2-0.8-31.8c0-3.2-5-3.6-5-0.4c0.1,10.6,0.3,21.2,0.8,31.8
		C430.1,466.1,435.1,466.5,434.9,463.3z" />
    <path style="fill:#FFFFFF;" d="M297.8,461.1c-1.2-11.8-2.3-23.6-0.3-35.5c0.5-3.2-4.4-3.6-5-0.4c-2.1,12.2-0.9,24.5,0.3,36.8
		C293.3,465.2,298.2,464.3,297.8,461.1z" />
    <path style="fill:#FFFFFF;" d="M257.2,284.4c-0.7,0-1.4,0.1-2,0.1c-0.2-5.4-0.2-10.8,0.2-16.1c0.2-3.2-4.8-3.6-5-0.4
		c-0.3,5.6-0.4,11.2-0.1,16.8l0,0c-2,0.1-3.9,0.2-5.9,0.3c0.2-0.4,0.3-0.8,0.2-1.4c-0.6-5.5-1.3-10.9-1.9-16.4
		c-0.4-3.2-5.3-2.3-4.9,0.9c0.6,5.5,1.3,10.9,1.9,16.4c0,0.2,0.1,0.4,0.1,0.6c-3.3,0.1-6.6,0.2-9.8,0.3c-0.9-5.8-0.4-12.2-0.3-17.9
		c0-3.2-4.9-3.6-5-0.4c-0.1,5.9-0.6,12.5,0.2,18.5c-3.1,0.1-6.2,0.1-9.3,0.2c-3.2,0.1-3.6,5-0.4,5c13.9-0.2,27.8-0.7,41.7-1.3
		C259.9,289.2,260.4,284.2,257.2,284.4z" />
    <g>
		<path style="fill:#4A3B2A;"
                d="M253.9,183c-0.2-2.3-1.5-4.8-4.2-4.4c-0.9,0.1-1.8,0.6-2.4,1.2c-0.3,0.3-0.6,0.7-0.9,1.1c0,0-0.1,0.1-0.1,0.2
			c0,0,0,0-0.1,0.1s-0.1,0.1,0,0l0,0c0,0,0,0,0.1-0.1v0.1c0,0,0,0,0.1-0.1c0,0,0,0-0.1,0.1c0,0,0,0.1,0,0c-1.1,0.7-1.7,2-1.1,3.3
			c0.4,0.9,1.4,1.5,2.4,1.4c0.1,0,0.2,0,0.4,0c1.1,0,2.2,0,3.3,0C253,185.9,254,184.7,253.9,183z" />
        <path style="fill:#4A3B2A;"
                d="M246.2,181.1L246.2,181.1C246.2,181.1,246.2,181.2,246.2,181.1L246.2,181.1L246.2,181.1z" />
	</g>
    <path style="fill:#4A3B2A;" d="M361.4,303.5c-1-3-2.1-6-3.1-9c-0.4-1.3-2.2-1.7-3.3-1.2c-1.3,0.6-1.6,2.1-1.2,3.3c1,3,2.1,6,3.1,9
		c0.4,1.3,2.2,1.7,3.3,1.2C361.5,306.2,361.8,304.7,361.4,303.5z" />
    <path style="fill:#4A3B2A;"
            d="M358.7,318.7c-1.3-2.2-2.6-4.3-3.9-6.5c-0.7-1.2-2-1.8-3.3-1.2c-1.1,0.5-1.9,2.2-1.2,3.3
		c1.3,2.2,2.6,4.3,3.9,6.5c0.7,1.2,2,1.8,3.3,1.2C358.6,321.5,359.4,319.9,358.7,318.7z" />
    <path style="fill:#4A3B2A;"
            d="M373.9,325.4c-0.8-1.2-1.6-2.4-2.4-3.5c-0.7-1.1-2.6-1.1-3.5-0.3c-1.1,1-1.1,2.4-0.3,3.5
		c0.8,1.2,1.6,2.4,2.4,3.5c0.7,1.1,2.6,1.1,3.5,0.3C374.7,327.9,374.7,326.6,373.9,325.4z" />
    <g>
		<path style="fill:#F4BFAB;" d="M591,382.8c-0.1-4.3-0.1-8.7-0.2-13c-0.2-17.3-0.4-34.7-0.7-52c-0.2-19.7-0.5-39.3-0.7-59
			c0-1.3-0.8-2.6-2.3-2.7c-18.6-1.4-37.2-2.4-55.9-2.8c-9.2-0.2-18.3-0.3-27.5-0.3c-4.6,0-9.2,0.1-13.7,0.1
			c-4.1,0.1-8.6-0.4-12.7,0.3c-6.4,1.1-6.5,7.8-7.3,13.1c-1.4,9-2.6,18-3.5,27c-1.8,18.4-2.6,36.8-2.3,55.3
			c0.2,9.8,0.5,19.7,1.5,29.5c0.6,6.4,2.5,12.8,8.7,15.5c1.1,0.5,2,0.1,2.6-0.5c33.6,1.3,67.3,2.6,100.9,4c4.7,0.2,10.5,1,12.5-4.3
			C591.6,389.9,591,386,591,382.8z" />
        <path style="fill:#4A3B2A;" d="M567,280.3c-26.7-0.4-53.3-1.8-79.9-4.1c-3.2-0.3-3.6,4.7-0.4,5c26.6,2.3,53.2,3.7,79.9,4.1
			C569.8,285.3,570.2,280.3,567,280.3z" />
        <path style="fill:#4A3B2A;" d="M567.3,300.9c-26.7-1.6-53.4-1.9-80.1-1.1c-3.2,0.1-3.6,5.1-0.4,5c26.7-0.9,53.4-0.5,80.1,1.1
			C570.1,306.1,570.5,301.1,567.3,300.9z" />
        <path style="fill:#4A3B2A;" d="M562.4,327c-25.3-3.1-50.8-7.4-76.4-6.5c-3.2,0.1-3.6,5.1-0.4,5c25.6-0.9,51.1,3.4,76.4,6.5
			C565.2,332.4,565.6,327.4,562.4,327z" />
        <path style="fill:#4A3B2A;" d="M572.8,357.7c-0.7-3.6-1.3-7.2-2-10.8c-0.4-2.1-3.3-2.8-4.5-1c-1.3,1.9-2.5,3.8-3.8,5.7
			c-1.7-0.1-3.4-0.3-5.1-0.4c-0.5-1-0.9-2-1.4-3.1c-0.7-1.6-3.4-2-4.3-0.4c-0.5,1-1.1,1.9-1.6,2.9c-1.9-0.2-3.7-0.3-5.6-0.5
			c-0.6-1.3-1.3-2.6-2-3.8c-1.1-2-3.6-1.7-4.6,0.2c-0.5,1-1,2-1.4,2.9c-1.4-0.1-2.7-0.2-4.1-0.3c-1-1.7-1.9-3.5-2.7-5.3
			c-1-2.1-3.7-1.6-4.6,0.2c-0.7,1.5-1.5,2.9-2.3,4.2c-1.6-0.1-3.3-0.3-4.9-0.4c-0.7-1.4-1.3-2.9-2.1-4.2c-1-1.9-2.2-3.5-4.5-3.6
			c-3.3-0.1-5.2,3.1-6.5,6.8c-0.7-0.1-1.3-0.1-2-0.2c-1-2.9-1.9-5.9-2.4-9c-0.4-2.1-3.3-2.7-4.5-1c-2.1,2.9-3.8,5.9-5.2,9
			c-2-0.2-4-0.3-6-0.5c-3.2-0.3-3.6,4.7-0.4,5c1.5,0.1,3,0.3,4.5,0.4c-0.6,1.9-1.1,3.9-1.5,6c-0.6,3.2,4.4,3.5,5,0.4
			c0.4-2.1,1-4.1,1.6-6c1.8,0.1,3.5,0.3,5.3,0.4c0.9,2.2,2,4.4,3.2,6.6c1,1.7,3.9,2,4.6-0.2l1.7-5.6c1.8,0.2,3.7,0.3,5.5,0.5
			c0.9,2,1.8,4,2.7,6c0.8,1.8,3.2,1.8,4.3,0.4c1.4-1.8,2.8-3.6,4-5.4c1.4,0.1,2.7,0.2,4.1,0.3c1.2,2,2.4,3.9,3.7,5.8
			c1.2,1.7,3.5,0.7,4.3-0.7c0.7-1.4,1.4-2.8,2.1-4.3c0.6,0,1.2,0.1,1.7,0.1c1,2.3,1.8,4.6,2.5,7c0.6,2,3.2,2.8,4.5,1
			c1.6-2.3,3.2-4.6,4.6-7c0.5,0,1,0.1,1.5,0.1c1.1,2,2.3,3.9,3.7,5.8c0.9,1.3,3.1,1.1,4-0.2l3.2-4.7c0.9,0.1,1.7,0.1,2.6,0.2
			c0.1,0.5,0.2,1.1,0.3,1.6C568.5,361.8,573.4,360.9,572.8,357.7z M510.4,346.6c0.4-1.7,0.6-1.9,0.7-0.9c0.3,0.1,0.6,0.7,1,1.6
			c-0.7-0.1-1.3-0.1-2-0.2C510.3,347,510.3,346.8,510.4,346.6z M495.8,346c0.3-0.5,0.6-1.1,0.8-1.6c0.2,0.6,0.3,1.2,0.5,1.7
			C496.7,346.1,496.3,346.1,495.8,346z" />
	</g>
</g>
</svg>
