<?xml version="1.0" encoding="utf-8"?><!-- Generator: Adobe Illustrator 20.1.0, SVG Export Plug-In . SVG Version: 6.00 Build 0)  -->
<svg style="enable-background:new 0 0 800 600;" id="Capa_1" version="1.1" viewBox="0 0 800 600" x="0px"
        xmlns="http://www.w3.org/2000/svg" y="0px" xml:space="preserve">

<g>
	<g>
		<path style="fill:#4A3B2A;"
                d="M313.2,229.2c-12.6-6.2-26.5-6.8-40.3-7.1c-16.5-0.3-33-0.7-49.4-1c-1.8,0-2.7,1.6-2.4,3.2
			c2.4,14.6,5.7,29,10,43.2c0.1,0.4,0.3,0.7,0.5,0.9c0.1,1.5,1.2,2.9,3,2.2c2.8-1.1,5.5-2.3,8.2-3.5c2.7,3.3,2.8,7.9,8.8,6.8
			c6.3-1.1,12.8-6,18.1-9.4c11.9-7.6,22.7-16.6,33.4-25.7c3.4-1.8,6.8-3.5,10.1-5.3C314.8,232.7,314.9,230.1,313.2,229.2z" />
        <path style="fill:#FFFFFF;" d="M292.2,236c-17.2,11.5-34.9,22.2-53,32.3c-2.8,1.6-0.3,5.9,2.5,4.3c18.1-10.1,35.7-20.9,53-32.3
			C297.4,238.5,294.9,234.2,292.2,236z" />
        <path style="fill:#FFFFFF;" d="M267.2,233.3c-14.6,2.3-29.1,5-43.5,8.2c-3.1,0.7-1.8,5.5,1.3,4.8c14.4-3.1,28.9-5.9,43.5-8.2
			C271.7,237.6,270.3,232.8,267.2,233.3z" />
        <path style="fill:#F4BFAB;"
                d="M511.4,298.8c-11-18.6-26.2-34.6-41.6-49.6c-8-7.8-16-15.8-24.7-22.9c-7.8-6.3-16.3-9.6-26.2-10.5
			c-25.7-2.3-52.9,2.9-77,11.3c-1.1,0.4-1.8,1.3-1.8,2.4c-0.5,22.2-1.4,44.5-2.5,66.7c-0.6,11.3-1.3,22.5-2,33.8
			c-0.7,9.9-0.8,20.2-2.5,30c-1.2,7.1-3.6,16.1-10.8,19.4c-9.7,4.6-19.1-4.2-24.1-11.6c-10.5-15.6-14.6-36.2-14-54.7
			c0.3-10.9,2.4-21.6,6.1-31.9c3.1-8.5,10.7-18.2,7-27.6c-0.6-1.6-2.1-2.2-3.7-1.5c-2.7,1.2-5.1,2.9-7.1,4.9
			c-0.2-0.8-0.4-1.5-0.6-2.3c-0.6-1.9-2.7-2.4-4.2-1.1c-0.9,0.8-1.8,1.6-2.6,2.5c0-1,0-2.1-0.1-3.1c-0.2-2.6-3.1-3.3-4.7-1.3
			c-0.3,0.4-0.6,0.7-0.8,1.1c0.1-2.2-0.1-4.5-0.5-6.8c-0.3-1.7-3-2.5-4.2-1.1c-17.1,21.7-25.5,48.7-26.1,76.2
			c-0.6,27.9,5.9,59.5,21.8,82.9c8.7,12.7,21.7,22.6,37.4,23.5c15.4,3.3,30.9,5.6,46.6,6.9c1.1,1.3,2.3,2.4,3.7,3.4
			c-1.2,0.5-2.4,1.1-3.6,1.9c-1.4,0.9-1.6,2.7-0.5,3.9c1.2,1.2,2.4,2.3,3.7,3.2c-4.7,0.8-8.3,3-6.3,8.1c1.3,3.1,4.5,5.1,7.5,6.3
			c5.8,2.3,12.1,3.8,18.1,5.4c23.3,6.1,47.7,9,71.6,5.1c20.6-3.3,42.5-11.9,54.9-29.5c11.7-16.6,11.7-39.3-3.4-53.7
			c-3.8-3.6-8.2-6.6-12.9-9c-2.4-1.2-5-2.3-7.6-3.3c-2.9-1.1-6.9-1.8-8.7-4.7c-1.7-2.7-1-6.9-1-10c0-3.9,0-7.9-0.1-11.8l-0.1-18.1
			c12.4,10.4,28.2,20.4,44.3,12C525.4,334.7,519.4,312.4,511.4,298.8z" />
        <path style="fill:#4A3B2A;" d="M488.9,226.3c-5.7-9.5-19-11.9-30.3-9.5c5-7.3,6.8-16-2.3-21.9c-9.5-6.2-20-2.8-28.9,2.3
			c1.5-4.1,2.4-8.3,1.4-12.7c-1.2-5.3-5.1-10.4-11-12c-6.1-1.6-12.3,1.3-16.2,5.6c-1.5,1.7-2.6,3.6-3.4,5.5c-1-2.7-2.2-5.3-3.5-7.8
			c-3-5.5-8.5-14.8-16.6-14.1c-7.5,0.6-9.3,9.2-10,14.8c-0.7,5.8,0.2,11.6,2.4,17c-5.2-1.4-10.6-2.2-16.1-2.3
			c-6.5-0.1-15.9-0.1-20.6,4.9c-4,4.2-3,10.5,0.4,14.7c2.5,3.1,6.1,4.9,10.1,6.1c-10.3,3.8-21.6,10.3-22.4,19.8
			c-0.4,5.2,3.7,9.2,9.2,10.1c2.4,0.4,4.6,0.1,6.7-0.5c-4.8,9-6.9,20.5,2.3,26c6.4,3.9,13.7,0.1,18.9-3.6c4.6-3.3,8.6-7.2,12-11.5
			c1,9,5,19.6,15.1,16.7c8.1-2.3,13.1-10.1,15.2-18.1c2.2,4.5,4.9,8.8,8.1,12.8c4.2,5.2,9.9,10.6,17.5,10.6c6.6,0,12.4-4.5,14.8-9.9
			c1.4-3,1.7-6.1,1.4-9.2c8.1,6.2,19,9.8,28.4,4.9c6-3.2,7.8-9.8,5.1-15.4c-0.9-1.9-2.2-3.4-3.7-4.7c2.9-0.6,5.7-1.6,8.3-2.9
			C487.4,238.7,492.8,232.8,488.9,226.3z" />
        <path style="fill:#ED7354;"
                d="M501.2,440.8c7-13.3,8.2-29.1,0.5-43.8c-3.1-5.9-7.6-11.1-13.1-14.9c-5.4-3.7-17.4-5.3-18.4-12.8
			c-0.1-0.8-0.9-1.5-1.7-1.7c0-0.5-0.1-0.9-0.1-1.4c-0.2-1.6-1.5-2.8-3.2-2.4c-22.3,5.3-45.2,4.7-67.9,2.6
			c-23.1-2.1-46.2-5-69.3-7.5c-1.4-0.2-2.5,1.3-2.5,2.5l-0.2,10.2c0,0.5,0.1,0.9,0.3,1.3c-3.4,5-10.7,6.7-16.6,3.1
			c-7.7-4.8-10.3-14.6-12.6-22.9c-5.2-19.2-7.5-39-6.9-58.9c0-1.1-0.8-2.1-1.8-2.4c-13.7-3.9-27.4-7.8-41.1-11.7
			c-1.5-0.4-2.6,0.5-3,1.7c-0.8,0.2-1.5,0.7-1.8,1.7c-8.3,32.3-13,67.9,0.1,99.6c1.3,3.2,2.8,6.3,4.4,9.3c-3.3,1.8-5.9,4.5-7.4,7.9
			c-1.4,3.1-2.4,7.7,0.4,10.4c4.9,4.6,13.4,2.4,18.7-1.6c11.4,12.8,26.5,21.8,44.5,24.8c16.9,2.8,36.7,5.6,52.5-2.8
			c0.6-0.3,0.9-0.7,1.1-1.1c0.4-0.7,0.5-1.5-0.1-2.4c-4.4-6.2,6.5-9.6,11-8.8c5.5,1,10,5,11.3,10.4c1.5,6,0.9,12.7,1.1,18.8
			c0.2,6.7,0.3,13.3,0.5,20c0,1.2,0.8,2,1.8,2.4c16.4,5.6,33.7,5.8,50.8,4.3c15.9-1.4,32.8-3.1,46.9-11.3c3.1-1.8,6-3.9,8.6-6.2
			c0.3,0.5,0.7,0.9,1.3,1.1c6.5,2.5,15.9,4.1,19.5-3.7C511.8,448.4,506.2,443.4,501.2,440.8z" />
        <path style="fill:#4A3B2A;"
                d="M578.9,201c-6.3-23.3-12.6-46.7-18.9-70c-0.5-2-2.8-2.2-4.2-1.1c-26,21-51.9,42.2-77.5,63.6
			c-1.2,1-1,2.4-0.1,3.3c-0.5,1.5,0.2,3.4,2.2,3.2c3.2-0.3,6.4-0.6,9.6-0.8c16.4,2.5,31.8,9.2,48.4,11.2c4.4,0.5,8.9,0.9,13.3,1
			c3.1,0.1,6.8,0.5,9.7-0.7c3.4-1.5,4.9-4.9,4.6-8.2c3.3,0.5,6.6,1.1,9.9,1.7C577.6,204.4,579.4,203,578.9,201z" />
        <path style="fill:#4A3B2A;"
                d="M348.6,162.2c-21.8-15.5-45.4-28.1-70.4-37.5c-0.8-0.3-1.9,0-2.4,0.6c-12.6,14.7-25.1,29.3-37.7,44
			c-1.2,1.4-0.5,3.2,0.6,3.9c0.4,0.7,1.1,1.3,2.1,1.3c4.6-0.1,9.2-0.1,13.8-0.2c1.1,4.6,3.2,9.1,8.4,9.7c2.8,0.3,5.7-0.6,8.4-1.1
			c4.5-0.9,9-1.7,13.5-2.6c11.6-2.3,23.1-4.9,34.6-7.5c9.7-0.9,19.3-2.5,28.5-6C350.1,166,350.4,163.5,348.6,162.2z" />
        <path style="fill:#4A3B2A;"
                d="M432.2,301.2c-0.2,4.2-2.5,12.3-8.5,10.2c-4.1-1.5-3.5-7.8-3.2-11.2c0.3-3.2-4.7-3.2-5,0
			c-0.6,6.4,0.4,15.5,8.5,16.3c8.8,0.9,12.8-8,13.1-15.4C437.3,297.9,432.3,297.9,432.2,301.2z" />
        <path style="fill:#4A3B2A;" d="M484.9,308.4c-2.3-1.1-4.1-2.7-5.4-4.9c-1.6-2.8-5.9-0.3-4.3,2.5c1.6,2.9,4.2,5.3,7.2,6.7
			c1.2,0.6,2.7,0.3,3.4-0.9C486.4,310.8,486.1,309,484.9,308.4z" />
        <path style="fill:#4A3B2A;" d="M495,293.5c-2.1-2-3.8-4.2-5.2-6.8c-1.5-2.8-5.8-0.3-4.3,2.5c1.5,2.9,3.6,5.5,5.9,7.8
			C493.8,299.3,497.3,295.8,495,293.5z" />
        <path style="fill:#4A3B2A;" d="M503.5,304.5c-2.8-1.7-5.3,2.7-2.5,4.3c1.5,0.9,2.5,2.5,2.5,4.3c0.1,3.2,5.1,3.2,5,0
			C508.4,309.6,506.6,306.4,503.5,304.5z" />
        <path style="fill:#4A3B2A;"
                d="M377.6,322.1c-3.3,1.7-8.1,1.1-9.1-3.1c-0.7-3,2.7-6.5,5.5-4.2c2.5,2,6-1.5,3.5-3.5
			c-5.7-4.7-14.6-0.5-14.2,7.1c0.5,8.5,9.9,11.7,16.7,8.1C383,324.9,380.4,320.6,377.6,322.1z" />
        <path style="fill:#4A3B2A;"
                d="M342.8,341.1v5.7c0,3.2,5,3.2,5,0v-5.7C347.8,337.9,342.8,337.9,342.8,341.1z" />
        <path style="fill:#4A3B2A;"
                d="M341.6,312v8c0,3.2,5,3.2,5,0v-8C346.6,308.8,341.6,308.8,341.6,312z" />
        <path style="fill:#4A3B2A;" d="M356.7,326.8c-0.8-3.1-5.6-1.8-4.8,1.3c0.6,2.6,1.1,5.2,1.2,7.9c0.2,3.2,5.2,3.2,5,0
			C357.9,332.9,357.4,329.8,356.7,326.8z" />
        <path style="fill:#FFFFFF;" d="M317.3,150.1c-20.2-4.5-40.6-7.6-61.3-9.2c-3.2-0.3-3.2,4.8,0,5c20.2,1.6,40.2,4.6,59.9,9
			C319.1,155.6,320.4,150.8,317.3,150.1z" />
        <path style="fill:#FFFFFF;" d="M314.8,171.4c-20.4,3.1-41,3.6-61.6,1.4c-3.2-0.3-3.2,4.7,0,5c21,2.2,42,1.7,62.9-1.6
			C319.3,175.7,317.9,170.9,314.8,171.4z" />
        <path style="fill:#FFFFFF;"
                d="M566.2,157.1c-12.6,8.7-27.8,13.1-42,18.4c-14.9,5.6-29.8,11.2-44.7,16.8c-3,1.1-1.7,6,1.3,4.8
			c15.5-5.8,31-11.7,46.6-17.5c14-5.3,28.9-9.7,41.3-18.2C571.4,159.6,568.9,155.2,566.2,157.1z" />
        <path style="fill:#FFFFFF;" d="M569,202.4c-23.3,1.6-46.2-5.1-69.5-3.2c-3.2,0.3-3.2,5.3,0,5c23.3-1.9,46.2,4.9,69.5,3.2
			C572.2,207.2,572.2,202.2,569,202.4z" />
        <path style="fill:#FFFFFF;" d="M467.6,404.2c-29.5,17.1-65.2,21.1-97.8,11.2c-3.1-0.9-4.4,3.9-1.3,4.8c6.8,2.1,13.7,3.5,20.7,4.4
			c6.3,14.9,8.5,31.2,6.3,47.2c-0.4,3.1,4.4,4.5,4.8,1.3c2.3-16.4,0.4-32.6-5.5-48c26,2.2,52.5-3.6,75.4-16.8
			C472.9,406.9,470.4,402.6,467.6,404.2z" />
        <path style="fill:#FFFFFF;" d="M474.5,376c-12.8,3.7-26.5,3.3-39.8,3.8c-12.9,0.5-25.8,1.1-38.7,1.4c-24,0.6-48.9-0.4-70.5-12.1
			c-2.8-1.5-5.4,2.8-2.5,4.3c21.9,11.8,46.9,13.3,71.2,12.8c13.8-0.3,27.6-1,41.4-1.5c13.4-0.5,27.1-0.3,40.1-4
			C479,380,477.6,375.1,474.5,376z" />
        <path style="fill:#FFFFFF;" d="M287.8,301c-16.6,0-32.9-2.8-48.7-8.1c-3.1-1-4.4,3.8-1.3,4.8c16.1,5.5,32.9,8.3,50,8.3
			C291,306,291,301,287.8,301z" />
        <path style="fill:#FFFFFF;" d="M262,340.4c-0.6-2.8-1.3-5.6-1.9-8.4c-0.7-3.1-5.5-1.8-4.8,1.3c0.6,2.8,1.3,5.6,1.9,8.4
			C257.9,344.8,262.7,343.5,262,340.4z" />
        <path style="fill:#FFFFFF;" d="M269.5,328c-0.2-1.3-1-2.5-2.5-2.5c-1.2,0-2.7,1.2-2.5,2.5c0.3,2.3,0.6,4.6,0.8,6.9c0.2,1.3,1,2.5,2.5,2.5
			c1.2,0,2.7-1.2,2.5-2.5C270,332.6,269.7,330.3,269.5,328z" />
        <path style="fill:#FFFFFF;"
                d="M271.5,350.6c-0.8-1.8-1.5-3.6-2.3-5.4c-0.5-1.2-2.4-1.5-3.4-0.9c-1.3,0.8-1.4,2.2-0.9,3.4
			c0.8,1.8,1.5,3.6,2.3,5.4c0.5,1.2,2.4,1.5,3.4,0.9C271.9,353.2,272.1,351.8,271.5,350.6z" />
        <path style="fill:#FFFFFF;"
                d="M429.4,437.3c-0.4-1.4-1.7-1.9-3.1-1.7c-1.8,0.3-3.6,0.5-5.4,0.8c-1.3,0.2-2.1,1.9-1.7,3.1
			c0.4,1.4,1.7,1.9,3.1,1.7c1.8-0.3,3.6-0.5,5.4-0.8C429,440.2,429.8,438.5,429.4,437.3z" />
        <path style="fill:#FFFFFF;"
                d="M437.2,446c-0.3-1.2-1.8-2.2-3.1-1.7c-1.8,0.7-3.6,1.4-5.5,2.1c-1.3,0.5-2.1,1.7-1.7,3.1
			c0.3,1.2,1.8,2.2,3.1,1.7c1.8-0.7,3.6-1.4,5.5-2.1C436.7,448.6,437.6,447.4,437.2,446z" />
        <path style="fill:#FFFFFF;" d="M450.7,439.4c-1-0.2-1.8,0.1-2.4,0.7c-1,0.1-1.9,0.8-2.1,1.8c-0.3,1.3,0.4,2.7,1.7,3.1c2,0.6,3.9-0.6,4.6-2.5
			C452.9,441.2,452,439.7,450.7,439.4z" />
	</g>
    <path style="fill:#FFFFFF;" d="M368.9,228.8c-1.5,2.5-3,5-4.5,7.5c-1.6,2.8,2.7,5.3,4.3,2.5c1.5-2.5,3-5,4.5-7.5
		C374.8,228.5,370.5,226,368.9,228.8z" />
    <path style="fill:#FFFFFF;"
            d="M370.1,209.1c-0.7-1.1-2.3-1.6-3.4-0.9c-1.5,0.9-3.1,1.9-4.6,2.8c-1.2,0.7-1.6,2.2-0.9,3.4
		c0.7,1.1,2.3,1.6,3.4,0.9c1.5-0.9,3.1-1.9,4.6-2.8C370.3,211.8,370.8,210.3,370.1,209.1z" />
    <path style="fill:#FFFFFF;"
            d="M358.4,232.3c-0.4-1.4-1.7-1.9-3.1-1.7c-3.7,0.6-6.8,2.7-9,5.7c-0.8,1.1-0.2,2.8,0.9,3.4
		c1.3,0.7,2.6,0.2,3.4-0.9c1.4-2,3.6-3,6-3.4C358,235.1,358.7,233.5,358.4,232.3z" />
</g>
</svg>
