<?xml version="1.0" encoding="utf-8"?>
<!-- Generator: Adobe Illustrator 20.1.0, SVG Export Plug-In . SVG Version: 6.00 Build 0)  -->
<svg version="1.1" id="Capa_1" xmlns="http://www.w3.org/2000/svg" xmlns:xlink="http://www.w3.org/1999/xlink" x="0px" y="0px" width="800px" height="600px" viewBox="0 0 800 600" style="enable-background:new 0 0 800 600;" xml:space="preserve">

<g>
	<path d="M233.1,392.2c18,1.1,36.1,3.7,53.6,8.2c16,4.1,32.4,9.8,45.7,19.9c10.9,8.3,19.1,19.3,25.8,31.1
		c6.3,11.1,14.4,18.6,27.5,19.8c14.2,1.3,29-0.8,43.2-1.8c9.1-0.7,17.8-2.1,26.4-5c4.8-1.6,8.5-3.6,10.3-8.5
		c2-5.2,3.1-10.6,5.5-15.7c2.7-5.7,6.4-11,10.8-15.6c9.8-10.1,22.5-17.4,35-23.7c12.2-6.1,24.8-11.2,37.2-16.8
		c8-3.6,15.9-7.2,23.9-10.6c2.4-11.5,3.7-23.2,4.2-34.7c1.6-34.2-3.9-68.6-13.8-101.3c-5-16.7-11.2-33-18.2-48.9
		c-6.9-15.6-14.2-31.4-23.2-45.9c-4.1-6.7-8.9-12.9-14.9-17.8c-1.3-1.1-3.5-0.4-3.5,1.5c0,2.2-0.1,4.3-0.1,6.5
		c-2-2.5-4.4-4.6-7.2-6.3c-1.2-0.7-2.7,0-3,1.2c-0.6,2.1-1,4.1-1,6.2c-1.7-1.6-3.5-3-5.5-4.3c-1-0.6-2.9-0.1-3,1.2
		c-0.4,2.6-0.4,5.2-0.1,7.7c-2.6-1.5-5.2-3.1-7.9-4.6c-1.4-0.8-3.7,0.6-3,2.3c7.2,18.8,14.4,37.7,21.6,56.5
		c7,18.2,14.3,36.4,20.4,54.9c11,33.2,17.6,71.1,1.5,103.9c-8.2,16.7-22,29.9-39.4,36.5c-1.5-11.5-3-23-4.6-34.4
		c-4.8-36.2-9.6-72.5-14.4-108.7c8.2-0.9,14.6-10.9,9.8-18.4c-3.9-6.2-12.5-6.9-18-3c-1.9-5.7-3.7-11.4-5.6-17.1l-3.2-9.8
		c-0.9-2.7-1.6-5.9-3.4-8.2c-3-4-8.1-3.9-12.6-4.1c-6.2-0.2-12.4,0-18.6,0.6c-24.7,2.3-48.6,10.5-69.6,23.7
		c-2.1,1.4-0.4,4.7,1.8,3.7c0.1,7.8,0.1,15.6,0.2,23.4c-6.7-0.6-14.6,2.9-15.2,10.4c-0.5,6.3,5.5,11.8,11.4,11
		c0.6,31.9,2.7,63.8,6.2,95.5c1.8,16.1,4,32.1,6.6,48.1c0.1,0.7,0.2,1.4,0.3,2.1c-15.4,5-32.9-1.3-44.6-12.4
		c-15.2-14.4-23.6-35.5-28.3-55.6c-10.2-43.8-1.1-89.7,17.3-130c10.3-22.7,23.5-44.1,37.9-64.4c1.1-1.5-0.7-3.5-2.3-3
		c-6.3,1.8-12.3,4.1-18,7.2c1.6-3.3,3.1-6.7,4.7-10c0.8-1.7-1-4.1-2.8-2.8c-2.2,1.6-4.4,3.1-6.6,4.7c1.3-3.6,2.6-7.2,3.9-10.8
		c0.6-1.6-1.6-3.4-3-2.3l-8.1,5.9c0.9-3.9,1-7.9,0.3-12.1c-0.2-1.3-2-2-3-1.2c-52.7,36.5-89.8,93.9-95,158.5
		c-2.8,34.6,4.6,68.1,19.1,99.5C226.9,380.1,229.9,386.2,233.1,392.2z" style="fill:#F4BFAB;"/>
	<path d="M466,175.6c-18.6-14.2-44.1-14.7-66.5-12.6c-2-6.5-3.9-13-5.9-19.5c-0.6-2-3.3-1.9-4,0c-1,2.9-1.5,5.8-1.7,8.8
		c-2.2-2.9-4.9-5.4-8-7.6c-1.2-0.8-3.3,0.3-3.1,1.8c0.8,6.9,2.5,13.5,5,20c-25.6,3.1-56.3,10.4-64.3,38.5c-0.1,0.2-0.1,0.4-0.1,0.6
		c-0.3,0.6-0.6,1.3-0.9,2c-2.2,5.4-6.6,16.1-0.2,20.3c6,4,13.4-2.2,17.7-5.8c6.3-5.3,12.1-11.2,17.5-17.5c0,5.7,0.4,11.5,1.7,17
		c1,4.3,3.4,8.9,8.3,9.3c4.8,0.3,8.1-4.2,9.9-8c2-4.4,3.4-9.2,4.7-13.9c3.3,10,9,19,16.6,26.4c1,1,2.5,0.7,3.2-0.4
		c4.4-6.8,6.6-14.5,6.4-22.4c2.1,2.7,4.4,5.2,6.9,7.5c3.5,3.2,7.7,6.2,12.5,4.1c7.3-3.1,7.8-9.8,6.1-16.3c6.7,5.3,15,8.9,23.4,9.2
		c5.5,0.2,6.7-3.9,6.1-8.7c-0.2-1.8-0.7-3.6-1.3-5.3c6.4,3.4,13.5,4.7,19.2-1.2C484,192.9,473.1,181.1,466,175.6z" style="fill:#4A3B2A;"/>
	<path d="M511.2,445.7c0-1.9,1.1-4,2.8-4.9c20.9-10.1,38.4-26,52.9-44c3.7-4.6,7.2-9.5,10.5-14.5
		c3.4-5.3,6-11.1,7.6-17.1c4.2-15.4,7.8-31.1,10.8-46.8c5.2-2.2,10.1-7.2,8.5-13.2c-1.2-4.4-5.6-7.3-9.8-6.6
		c-4.5-24.2-10.9-48-19.1-71.1c-4.2-11.9-8.9-23.5-14-35c-2.5-5.5-4.7-11.7-8-16.8c-2.7-4.2-7.1-2.3-11-1.1c-13.1,4-26.3,8-39.4,12
		c-0.7-0.4-1.7-0.4-2.9,0.6c-1.4,0.6-2.7,1.1-4.1,1.7c-2.8,0.1-4,1.8-3.1,3.8c10.9,24.3,23.7,48.6,30.9,74.4
		c3.4,12.1,5.3,24.5,6.2,37c-0.1,10.8-1.5,21.5-4.7,31.8c-2.5,7.8-6.1,15.3-10.8,22c-3.7,5.2-9.2,12.3-15.7,15.4
		c5.7-13.2,1.6-28.3-4.6-41c-3.2-6.5-6.2-14.7-14.7-14.9c-3.9-0.1-7.9,1.1-11.6,1.8l-15.4,2.9c-19.7,3.7-39.5,7.5-59.2,11.2
		l-29.2,5.5c-4.6,0.9-9.2,1.7-13.8,2.6c-3.3,0.6-6.9,1.2-9.1,4c-2.2,2.9-2.2,7.3-2.4,10.8c-0.3,4.9-0.3,9.9,0.1,14.8
		c0.7,8.7,2.5,17.3,5.3,25.5c-29.7-1-48-32.7-55.5-57.9c-9-30-7.2-61.9-0.5-92.1c4-18.2,9.7-35.9,15.7-53.5c0.4-1.1-0.4-2.2-1.4-2.5
		l-49-17.3c-5.6-2-13.2-6.5-17.8-0.6c-4.4,5.6-7.2,13.6-10.1,20.1c-12.2,27.9-19.6,57.9-21.8,88.3c-1.2,17-0.8,34.2,1.2,51.1
		c-7.2,1.3-12.3,10.5-7.5,16.9c2.7,3.6,7.6,4.6,11.7,3.4c3.6,10.1,8.1,19.7,13.4,28.9c0,0.1,0.1,0.1,0.1,0.2
		c5.6,11.5,14.6,21,25.5,27.6c26.8,16.2,54.2,31,85,38.7c1.7,0.4,3.7,2.1,3.9,3.9c1.6,10.6,3.7,21.2,6,31.6
		c18.7,1.8,37.7,0.4,56.4-0.8c31-2,62.1-3.9,93.1-5.9c3.7-0.2,7.3-0.4,11-0.7c0.2,0.1,0.4,0.1,0.7,0.1c3.8-0.1,7.6-0.2,11.5-0.2
		C514.6,465.8,511.4,455.9,511.2,445.7z" style="fill:#ED7354;"/>
	<path d="M432.2,249c-1.1-2.8-5.7-1.6-4.6,1.3c4.9,12.3,7.5,25.8,4.8,39c-1.3,6.4-3.7,13.5-8.8,17.9
		c-5,4.4-12.1,5.2-18.5,4.3c-11.3-1.5-21.6-8.6-27.3-18.4c-6.9-11.9-6-26.4-5.3-39.7c0.2-3-4.6-3-4.7,0c-0.8,15.2-1.4,31.9,7.8,45
		c7.2,10.2,18.8,17.1,31.3,18.1c14.8,1.2,24.7-7.6,28.9-21.2C440.5,280,437.9,263.5,432.2,249z" style="fill:#4A3B2A;"/>
	<path d="M416.8,280.2c-0.3-1.3-0.5-2.6-0.8-3.9c-0.3-1.2-1.7-2-2.9-1.7c-1.3,0.4-1.9,1.7-1.7,2.9
		c0.3,1.3,0.5,2.6,0.8,3.9c0.3,1.2,1.7,2,2.9,1.7C416.5,282.7,417.1,281.4,416.8,280.2z" style="fill:#4A3B2A;"/>
	<path d="M420.9,283.1v5.5c0,3,4.7,3,4.7,0v-5.5C425.7,280.1,420.9,280.1,420.9,283.1z" style="fill:#4A3B2A;"/>
	<path d="M417,293.3c-1.3,0.1-2.4,1-2.4,2.4v3.1c0,1.2,1.1,2.4,2.4,2.4c1.3-0.1,2.4-1,2.4-2.4v-3.1
		C419.4,294.5,418.3,293.3,417,293.3z" style="fill:#4A3B2A;"/>
	<path d="M362.5,249.7c-0.5-3-5.1-1.7-4.6,1.3c0.4,2.1,0.9,4.7,0.1,6.8c-0.5,1.3-1.7,2.9-3.3,2.7
		c-2.8-0.4-2.8-5-2.8-7.1c0.1-3-4.7-3-4.7,0c-0.1,5,1.8,12.2,8.1,11.9c2.9-0.1,5.4-2.2,6.6-4.7C363.7,257.1,363.1,253.3,362.5,249.7
		z" style="fill:#4A3B2A;"/>
	<path d="M450.7,242.7c-0.8-2.9-5.4-1.7-4.6,1.3c0.5,1.8,1.2,3.9,0.8,5.9c-0.2,1.3-1.3,3.1-2.8,2.7
		c-2.2-0.5-2.6-4.4-2.8-6.1c-0.3-3-5-3-4.7,0c0.5,4.6,2.3,11.1,8.1,10.9c2.9-0.1,5.2-2.2,6.3-4.7
		C452.4,249.4,451.6,245.9,450.7,242.7z" style="fill:#4A3B2A;"/>
	<path d="M466,230l-4.6,2.5c-2.7,1.4-0.3,5.5,2.4,4.1l4.6-2.5C471.1,232.7,468.7,228.6,466,230z" style="fill:#4A3B2A;"/>
	<path d="M342.9,244.2c-0.6-1-2.2-1.6-3.2-0.8c-1.4,1-2.8,1.4-4.5,1c-3-0.7-4.2,3.8-1.3,4.6c2.8,0.7,5.8,0.2,8.1-1.5
		C343.1,246.7,343.5,245.4,342.9,244.2z" style="fill:#4A3B2A;"/>
	<path d="M361.6,306.3c-0.8-3.3-1.7-6.7-2.5-10c-0.7-2.9-5.3-1.7-4.6,1.3c0.8,3.3,1.7,6.7,2.5,10
		C357.8,310.5,362.3,309.3,361.6,306.3z" style="fill:#4A3B2A;"/>
	<path d="M361.7,329c-0.5-2.4-1-4.7-1.5-7.1c-0.6-3-5.2-1.7-4.6,1.3l1.5,7.1C357.7,333.2,362.3,331.9,361.7,329z" style="fill:#4A3B2A;"/>
	<path d="M375.7,324.2c-0.5-0.9-1-1.9-1.4-2.8c-0.6-1.1-2.2-1.5-3.2-0.8c-1.1,0.7-1.4,2.1-0.8,3.2
		c0.5,0.9,1,1.9,1.4,2.8c0.6,1.1,2.2,1.5,3.2,0.8C375.9,326.7,376.3,325.4,375.7,324.2z" style="fill:#4A3B2A;"/>
	<path d="M366.9,187.5c-1-0.6-2.7-0.3-3.2,0.8c-0.7,1.5-1.4,3-2.1,4.5c-0.6,1.2-0.3,2.6,0.8,3.2c1,0.6,2.7,0.3,3.2-0.8
		c0.7-1.5,1.4-3,2.1-4.5C368.3,189.5,368,188.1,366.9,187.5z" style="fill:#FFFFFF;"/>
	<path d="M340.6,188.3c-1.2,2-2.4,4-3.6,6c-1.6,2.6,2.5,5,4.1,2.4l3.6-6C346.3,188,342.2,185.7,340.6,188.3z" style="fill:#FFFFFF;"/>
	<path d="M372.8,174.2c-0.6-1-2.2-1.6-3.2-0.8c-0.7,0.5-1.4,1-2.2,1.5c-0.5,0.4-0.9,0.8-1.1,1.4
		c-0.2,0.6-0.1,1.3,0.2,1.8c0.6,1,2.2,1.6,3.2,0.8c0.7-0.5,1.4-1,2.2-1.5c0.5-0.4,0.9-0.8,1.1-1.4
		C373.2,175.4,373.1,174.7,372.8,174.2z" style="fill:#FFFFFF;"/>
	<path d="M557.3,186.2c-17.6,7.8-37.4,10.6-56.1,14.8c-3,0.7-1.7,5.2,1.3,4.6c19.2-4.3,39.2-7.2,57.2-15.3
		C562.4,189,560,184.9,557.3,186.2z" style="fill:#FFFFFF;"/>
	<path d="M297.5,215c-23.7-7.8-47-16.7-69.9-26.7c-2.8-1.2-5.2,2.9-2.4,4.1c23.2,10.1,46.9,19.2,71,27.1
		C299.2,220.6,300.4,216,297.5,215z" style="fill:#FFFFFF;"/>
	<path d="M498.2,371.7c-4.2,2.7-8.5,5.1-13,7.2c-2.3-18.5-8.1-36.2-17.5-52.4c-1.5-2.6-5.6-0.3-4.1,2.4
		c9.2,16,15,33.7,17.1,52.1c-7,3-14.3,5.5-21.8,7.4c0-0.4-0.1-0.8-0.3-1.3c-0.6-2.3-1.5-4.8-2.1-7.2c-1.5-6-3.2-11.9-5.1-17.7
		c-3.7-11.6-8.1-23.1-13-34.3c-1.2-2.8-5.3-0.4-4.1,2.4c4.5,10.3,8.5,20.8,11.9,31.5c1.6,5,3.1,10.1,4.5,15.2c0.7,2.5,1.4,5.1,2,7.7
		c0.2,1,0.3,2.6,0.8,3.4c0.2,0.3,0.3,0.5,0.3,0.6c0,0.3,0.1,0.6,0.2,0.9c-8.8,2-17.7,3.4-26.7,4.2c0-0.3-0.1-0.7-0.3-1
		c-4-8.7-5.8-19.1-7.9-28.4c-2.2-9.9-4-19.8-5.4-29.9c-0.4-3-5-1.7-4.6,1.3c1.5,10.6,3.4,21.2,5.8,31.6c2,8.6,3.8,17.8,7.2,26
		c-0.1,0.3-0.1,0.6-0.1,0.8c-9,0.7-18,1.1-26.9,1.3c0-0.1,0-0.1,0-0.2c-5.6-18-8.3-36.7-8.1-55.6c0-3-4.7-3-4.7,0
		c-0.2,18.9,2.5,37.7,8,55.9c-1,0-2,0-3.1,0c-5.8,0.1-11.7,0.2-17.5,0.2c0-0.3,0-0.7-0.1-1.1c-6.3-16.4-9.6-33.7-9.7-51.3
		c0-3-4.7-3-4.7,0c0.1,17.9,3.4,35.6,9.8,52.3c-6.8-0.1-13.7-0.5-20.4-1.5c-3-0.4-4.3,4.1-1.3,4.6c14.3,2,28.8,1.7,43.2,1.5
		c13.5-0.1,27-0.5,40.5-1.8c25.8-2.5,51.4-8.5,73.4-22.6C503.1,374.1,500.7,370,498.2,371.7z" style="fill:#FFFFFF;"/>
	<path d="M233.7,293.4v18.8c0,3,4.7,3,4.7,0v-18.8C238.4,290.3,233.7,290.3,233.7,293.4z" style="fill:#FFFFFF;"/>
	<path d="M228.3,336.7c-0.8-3.4-1.5-6.7-2.3-10.1c-0.7-3-5.2-1.7-4.6,1.3c0.8,3.4,1.5,6.7,2.3,10.1
		C224.4,340.9,229,339.7,228.3,336.7z" style="fill:#FFFFFF;"/>
	<path d="M251.9,346.2c-1.8-3.3-3.5-6.6-5.3-9.9c-1.4-2.7-5.5-0.3-4.1,2.4c1.8,3.3,3.5,6.6,5.3,9.9
		C249.3,351.3,253.3,348.9,251.9,346.2z" style="fill:#FFFFFF;"/>
	<path d="M254.1,372.1c-2.9-3.4-6.5-6.1-10.5-7.9c-2.8-1.2-5.2,2.9-2.4,4.1c3.8,1.7,6.9,4,9.6,7.1
		C252.7,377.7,256,374.4,254.1,372.1z" style="fill:#FFFFFF;"/>
</g>
</svg>
